<?xml version="1.0" encoding="UTF-8" standalone="no"?>
<!DOCTYPE svg PUBLIC "-//W3C//DTD SVG 1.1//EN" "http://www.w3.org/Graphics/SVG/1.1/DTD/svg11.dtd">
<svg width="100%" height="100%" viewBox="0 0 2481 3508" version="1.1" xmlns="http://www.w3.org/2000/svg" xmlns:xlink="http://www.w3.org/1999/xlink" xml:space="preserve" xmlns:serif="http://www.serif.com/" style="fill-rule:evenodd;clip-rule:evenodd;stroke-linecap:round;stroke-miterlimit:10;">
    <g transform="matrix(4.16667,0,0,4.16667,436.979,351.125)">
        <path d="M0,68.25L0,18.125L-12.625,7.25L-12.625,0" style="fill:none;fill-rule:nonzero;stroke:black;stroke-width:3px;"/>
    </g>
    <g transform="matrix(4.1588,-0.255926,-0.255926,-4.1588,350.617,384.454)">
        <path d="M-0.008,0.25L8.133,0.25" style="fill:none;fill-rule:nonzero;stroke:black;stroke-width:3px;"/>
    </g>
    <g transform="matrix(1,0,0,1,-48.0506,368.475)">
        <path d="M654.39,427.806L681.056,454.472L653.986,481.542" style="fill:none;stroke:black;stroke-width:12.79px;stroke-linejoin:round;stroke-miterlimit:1.5;"/>
    </g>
    <g transform="matrix(1,0,0,1,390.768,184.166)">
        <path d="M654.39,427.806L681.056,454.472L653.986,481.542" style="fill:none;stroke:black;stroke-width:12.79px;stroke-linejoin:round;stroke-miterlimit:1.5;"/>
    </g>
    <g transform="matrix(4.16667,0,0,4.16667,468.75,381.333)">
        <path d="M0,-7.25L0.5,0L10,0" style="fill:none;fill-rule:nonzero;stroke:black;stroke-width:3px;"/>
    </g>
    <g transform="matrix(2.49386,-3.33793,-3.33793,-2.49386,461.925,431.11)">
        <path d="M-2.725,5.438L10.85,5.438" style="fill:none;fill-rule:nonzero;stroke:black;stroke-width:3px;"/>
    </g>
    <g transform="matrix(4.16667,0,0,4.16667,358.333,493.312)">
        <path d="M0,0L6.25,3.25L7.792,-3.25" style="fill:none;fill-rule:nonzero;stroke:black;stroke-width:3px;"/>
    </g>
    <g transform="matrix(-3.41919,2.38122,2.38122,3.41919,477.17,478.471)">
        <path d="M-7.765,-2.438L0.765,-2.438" style="fill:none;fill-rule:nonzero;stroke:black;stroke-width:3px;"/>
    </g>
    <g transform="matrix(4.16667,0,0,4.16667,408.854,635.5)">
        <path d="M0,13.25L6.75,0L13.375,13.25L0,13.25Z" style="fill:none;fill-rule:nonzero;stroke:black;stroke-width:3px;"/>
    </g>
    <g transform="matrix(4.16667,0,0,4.16667,342.708,759.458)">
        <path d="M0,-7.875L9.25,-7.875L9.25,0" style="fill:none;fill-rule:nonzero;stroke:black;stroke-width:3px;"/>
    </g>
    <g transform="matrix(4.16667,0,0,4.16667,503.125,732.896)">
        <path d="M0,7.375L0,0L8.5,0" style="fill:none;fill-rule:nonzero;stroke:black;stroke-width:3px;"/>
    </g>
    <g transform="matrix(4.16667,0,0,4.16667,436.979,506.852)">
        <path d="M0,23.141L-12.375,14L-12.625,0" style="fill:none;fill-rule:nonzero;stroke:black;stroke-width:3px;"/>
    </g>
    <g transform="matrix(4.16667,0,0,4.16667,492.735,694.322)">
        <path d="M31.503,30.854L-12.375,31.454L-12.625,0" style="fill:none;fill-rule:nonzero;stroke:black;stroke-width:3px;"/>
    </g>
    <g transform="matrix(4.16667,0,0,4.16667,797.302,932.225)">
        <path d="M63.844,-69.879L32.51,-69.972L33.193,7.208L-9.85,7.829L-10.225,-24.5" style="fill:none;fill-rule:nonzero;stroke:black;stroke-width:3px;"/>
    </g>
    <g transform="matrix(4.16667,0,0,4.16667,436.979,438.624)">
        <path d="M0,25.844L7.625,20.125L7.625,0" style="fill:none;fill-rule:nonzero;stroke:black;stroke-width:3px;"/>
    </g>
    <g transform="matrix(2.53815,-3.30438,-3.30438,-2.53815,400.895,730.569)">
        <path d="M-2.125,4.313L8.75,4.313" style="fill:none;fill-rule:nonzero;stroke:black;stroke-width:3px;"/>
    </g>
    <g transform="matrix(-2.81036,-3.0762,-3.0762,2.81036,486.43,683.347)">
        <path d="M-11.482,5.063L2.232,5.063" style="fill:none;fill-rule:nonzero;stroke:black;stroke-width:3px;"/>
    </g>
    <g transform="matrix(1,0,0,1,-739.063,-552.083)">
        <g transform="matrix(4.16667,0,0,4.16667,1496.3,1026.66)">
            <path d="M0,68.25L-0.131,33.895" style="fill:none;fill-rule:nonzero;stroke:black;stroke-width:3px;"/>
        </g>
        <g transform="matrix(4.1588,-0.255926,-0.255926,-4.1588,1409.94,1059.99)">
            <path d="M-2.145,-45.175L5.996,-45.175" style="fill:none;fill-rule:nonzero;stroke:black;stroke-width:3px;"/>
        </g>
        <g transform="matrix(4.16667,0,0,4.16667,1528.07,1056.87)">
            <path d="M0.657,38.22L1.157,45.47L10.657,45.47" style="fill:none;fill-rule:nonzero;stroke:black;stroke-width:3px;"/>
        </g>
        <g transform="matrix(2.49386,-3.33793,-3.33793,-2.49386,1521.24,1106.65)">
            <path d="M-38.758,-22.304L-25.183,-22.304" style="fill:none;fill-rule:nonzero;stroke:black;stroke-width:3px;"/>
        </g>
        <g transform="matrix(3.90773,1.44594,-1.44594,3.90773,1639.62,1127.23)">
            <path d="M0.657,38.22L1.157,45.47L10.657,45.47" style="fill:none;fill-rule:nonzero;stroke:black;stroke-width:3px;"/>
        </g>
        <g transform="matrix(3.49722,-2.26507,-2.26507,-3.49722,1615.95,1171.54)">
            <path d="M-38.758,-22.304L-25.183,-22.304" style="fill:none;fill-rule:nonzero;stroke:black;stroke-width:3px;"/>
        </g>
        <g transform="matrix(4.16667,0,0,4.16667,1417.65,1168.85)">
            <path d="M0,0L6.25,3.25L7.792,-3.25" style="fill:none;fill-rule:nonzero;stroke:black;stroke-width:3px;"/>
        </g>
        <g transform="matrix(-3.41919,2.38122,2.38122,3.41919,1536.49,1154.01)">
            <path d="M-7.765,-2.438L0.765,-2.438" style="fill:none;fill-rule:nonzero;stroke:black;stroke-width:3px;"/>
        </g>
        <g transform="matrix(0.811111,0,0,0.811111,288.248,257.491)">
            <circle cx="1490.51" cy="1339.27" r="36.961" style="fill:none;stroke:black;stroke-width:19.78px;stroke-linejoin:round;stroke-miterlimit:1.5;"/>
        </g>
        <g transform="matrix(4.16667,0,0,4.16667,1402.03,1435)">
            <path d="M0,-7.875L9.25,-7.875L9.25,0" style="fill:none;fill-rule:nonzero;stroke:black;stroke-width:3px;"/>
        </g>
        <g transform="matrix(4.16667,0,0,4.16667,1562.44,1408.43)">
            <path d="M0,7.375L0,0L8.5,0" style="fill:none;fill-rule:nonzero;stroke:black;stroke-width:3px;"/>
        </g>
        <g transform="matrix(4.16667,0,0,4.16667,1496.3,1182.39)">
            <path d="M0,23.141L-12.375,14L-12.625,0" style="fill:none;fill-rule:nonzero;stroke:black;stroke-width:3px;"/>
        </g>
        <g transform="matrix(1.44275,-3.90891,3.90891,1.44275,1207.85,1223.15)">
            <path d="M0,68.25L-0.131,33.895" style="fill:none;fill-rule:nonzero;stroke:black;stroke-width:3px;"/>
        </g>
        <g transform="matrix(1.19993,-3.99015,-3.99015,-1.19993,1209.21,1315.71)">
            <path d="M-2.145,-45.175L5.996,-45.175" style="fill:none;fill-rule:nonzero;stroke:black;stroke-width:3px;"/>
        </g>
        <g transform="matrix(1.44275,-3.90891,3.90891,1.44275,1314.01,1346.16)">
            <path d="M0,0L6.25,3.25L7.792,-3.25" style="fill:none;fill-rule:nonzero;stroke:black;stroke-width:3px;"/>
        </g>
        <g transform="matrix(1.44275,-3.90891,3.90891,1.44275,1353.94,1277.07)">
            <path d="M0,23.141L-12.375,14L-12.625,0" style="fill:none;fill-rule:nonzero;stroke:black;stroke-width:3px;"/>
        </g>
        <g transform="matrix(4.16667,0,0,4.16667,1496.3,1114.16)">
            <path d="M0,25.844L7.625,20.125L7.625,0" style="fill:none;fill-rule:nonzero;stroke:black;stroke-width:3px;"/>
        </g>
        <g transform="matrix(2.53815,-3.30438,-3.30438,-2.53815,1460.21,1406.11)">
            <path d="M-2.125,4.313L8.75,4.313" style="fill:none;fill-rule:nonzero;stroke:black;stroke-width:3px;"/>
        </g>
        <g transform="matrix(-2.81036,-3.0762,-3.0762,2.81036,1545.75,1358.89)">
            <path d="M-11.482,5.063L2.232,5.063" style="fill:none;fill-rule:nonzero;stroke:black;stroke-width:3px;"/>
        </g>
    </g>
    <g transform="matrix(-4.16667,0,0,4.16667,1090.95,351.125)">
        <path d="M0,68.25L0,18.125L-12.625,7.25L-12.625,0" style="fill:none;fill-rule:nonzero;stroke:black;stroke-width:3px;"/>
    </g>
    <g transform="matrix(-4.1588,-0.255926,0.255926,-4.1588,1177.31,384.454)">
        <path d="M-0.008,0.25L8.133,0.25" style="fill:none;fill-rule:nonzero;stroke:black;stroke-width:3px;"/>
    </g>
    <g transform="matrix(-4.16667,0,0,4.16667,1059.17,381.333)">
        <path d="M0,-7.25L0.5,0L10,0" style="fill:none;fill-rule:nonzero;stroke:black;stroke-width:3px;"/>
    </g>
    <g transform="matrix(-2.49386,-3.33793,3.33793,-2.49386,1066,431.11)">
        <path d="M-2.725,5.438L10.85,5.438" style="fill:none;fill-rule:nonzero;stroke:black;stroke-width:3px;"/>
    </g>
    <g transform="matrix(3.41919,2.38122,-2.38122,3.41919,1050.75,478.471)">
        <path d="M-7.765,-2.438L0.765,-2.438" style="fill:none;fill-rule:nonzero;stroke:black;stroke-width:3px;"/>
    </g>
    <g transform="matrix(-4.16667,0,0,4.16667,1119.07,635.5)">
        <path d="M0,13.25L6.75,0L13.375,13.25L0,13.25Z" style="fill:none;fill-rule:nonzero;stroke:black;stroke-width:3px;"/>
    </g>
    <g transform="matrix(-4.16667,0,0,4.16667,1185.22,759.458)">
        <path d="M0,-7.875L9.25,-7.875L9.25,0" style="fill:none;fill-rule:nonzero;stroke:black;stroke-width:3px;"/>
    </g>
    <g transform="matrix(-4.16667,0,0,4.16667,1024.8,732.896)">
        <path d="M0,7.375L0,0L8.5,0" style="fill:none;fill-rule:nonzero;stroke:black;stroke-width:3px;"/>
    </g>
    <g transform="matrix(-4.16667,0,0,4.16667,1090.95,438.624)">
        <path d="M0,25.844L7.625,20.125L7.625,0" style="fill:none;fill-rule:nonzero;stroke:black;stroke-width:3px;"/>
    </g>
    <g transform="matrix(-2.53815,-3.30438,3.30438,-2.53815,1127.03,730.569)">
        <path d="M-2.125,4.313L8.75,4.313" style="fill:none;fill-rule:nonzero;stroke:black;stroke-width:3px;"/>
    </g>
    <g transform="matrix(2.81036,-3.0762,3.0762,2.81036,1041.49,683.347)">
        <path d="M-11.482,5.063L2.232,5.063" style="fill:none;fill-rule:nonzero;stroke:black;stroke-width:3px;"/>
    </g>
</svg>
