<?xml version="1.0" encoding="UTF-8" standalone="no"?>
<!DOCTYPE svg PUBLIC "-//W3C//DTD SVG 1.1//EN" "http://www.w3.org/Graphics/SVG/1.1/DTD/svg11.dtd">
<svg width="100%" height="100%" viewBox="0 0 2481 3508" version="1.1" xmlns="http://www.w3.org/2000/svg" xmlns:xlink="http://www.w3.org/1999/xlink" xml:space="preserve" xmlns:serif="http://www.serif.com/" style="fill-rule:evenodd;clip-rule:evenodd;stroke-linecap:round;stroke-miterlimit:10;">
    <g transform="matrix(4.16667,0,0,4.16667,436.979,351.125)">
        <path d="M0,68.25L0,18.125L-12.625,7.25L-12.625,0" style="fill:none;fill-rule:nonzero;stroke:black;stroke-width:3px;"/>
    </g>
    <g transform="matrix(4.1588,-0.255926,-0.255926,-4.1588,350.617,384.454)">
        <path d="M-0.008,0.25L8.133,0.25" style="fill:none;fill-rule:nonzero;stroke:black;stroke-width:3px;"/>
    </g>
    <g transform="matrix(1,0,0,1,50.9077,368.475)">
        <path d="M654.39,427.806L681.056,454.472L653.986,481.542" style="fill:none;stroke:black;stroke-width:12.79px;stroke-linejoin:round;stroke-miterlimit:1.5;"/>
    </g>
    <g transform="matrix(4.16667,0,0,4.16667,468.75,381.333)">
        <path d="M0,-7.25L0.5,0L10,0" style="fill:none;fill-rule:nonzero;stroke:black;stroke-width:3px;"/>
    </g>
    <g transform="matrix(2.49386,-3.33793,-3.33793,-2.49386,461.925,431.11)">
        <path d="M-2.725,5.438L10.85,5.438" style="fill:none;fill-rule:nonzero;stroke:black;stroke-width:3px;"/>
    </g>
    <g transform="matrix(4.16667,0,0,4.16667,358.333,493.312)">
        <path d="M0,0L6.25,3.25L7.792,-3.25" style="fill:none;fill-rule:nonzero;stroke:black;stroke-width:3px;"/>
    </g>
    <g transform="matrix(-3.41919,2.38122,2.38122,3.41919,477.17,478.471)">
        <path d="M-7.765,-2.438L0.765,-2.438" style="fill:none;fill-rule:nonzero;stroke:black;stroke-width:3px;"/>
    </g>
    <g transform="matrix(4.16667,0,0,4.16667,408.854,635.5)">
        <path d="M0,13.25L6.75,0L13.375,13.25L0,13.25Z" style="fill:none;fill-rule:nonzero;stroke:black;stroke-width:3px;"/>
    </g>
    <g transform="matrix(4.16667,0,0,4.16667,342.708,759.458)">
        <path d="M0,-7.875L9.25,-7.875L9.25,0" style="fill:none;fill-rule:nonzero;stroke:black;stroke-width:3px;"/>
    </g>
    <g transform="matrix(4.16667,0,0,4.16667,503.125,732.896)">
        <path d="M0,7.375L0,0L8.5,0" style="fill:none;fill-rule:nonzero;stroke:black;stroke-width:3px;"/>
    </g>
    <g transform="matrix(4.16667,0,0,4.16667,436.979,506.852)">
        <path d="M0,23.141L-12.375,14L-12.625,0" style="fill:none;fill-rule:nonzero;stroke:black;stroke-width:3px;"/>
    </g>
    <g transform="matrix(4.16667,0,0,4.16667,492.735,694.322)">
        <path d="M56.629,30.511L-12.375,31.454L-12.625,0" style="fill:none;fill-rule:nonzero;stroke:black;stroke-width:3px;"/>
    </g>
    <g transform="matrix(4.16667,0,0,4.16667,436.979,438.624)">
        <path d="M0,25.844L7.625,20.125L7.625,0" style="fill:none;fill-rule:nonzero;stroke:black;stroke-width:3px;"/>
    </g>
    <g transform="matrix(2.53815,-3.30438,-3.30438,-2.53815,400.895,730.569)">
        <path d="M-2.125,4.313L8.75,4.313" style="fill:none;fill-rule:nonzero;stroke:black;stroke-width:3px;"/>
    </g>
    <g transform="matrix(-2.81036,-3.0762,-3.0762,2.81036,486.43,683.347)">
        <path d="M-11.482,5.063L2.232,5.063" style="fill:none;fill-rule:nonzero;stroke:black;stroke-width:3px;"/>
    </g>
    <g transform="matrix(4.16667,0,0,4.16667,743.344,580.898)">
        <path d="M0,68.25L0,18.125L-12.625,7.25L-12.625,0" style="fill:none;fill-rule:nonzero;stroke:black;stroke-width:3px;"/>
    </g>
    <g transform="matrix(4.1588,-0.255926,-0.255926,-4.1588,656.981,614.228)">
        <path d="M-0.008,0.25L8.133,0.25" style="fill:none;fill-rule:nonzero;stroke:black;stroke-width:3px;"/>
    </g>
    <g transform="matrix(4.16667,0,0,4.16667,775.115,611.107)">
        <path d="M0,-7.25L0.5,0L10,0" style="fill:none;fill-rule:nonzero;stroke:black;stroke-width:3px;"/>
    </g>
    <g transform="matrix(2.49386,-3.33793,-3.33793,-2.49386,768.29,660.884)">
        <path d="M-2.725,5.438L10.85,5.438" style="fill:none;fill-rule:nonzero;stroke:black;stroke-width:3px;"/>
    </g>
    <g transform="matrix(4.16667,0,0,4.16667,715.219,865.273)">
        <path d="M0,13.25L6.75,0L13.375,13.25L0,13.25Z" style="fill:none;fill-rule:nonzero;stroke:black;stroke-width:3px;"/>
    </g>
    <g transform="matrix(4.16667,0,0,4.16667,649.073,989.232)">
        <path d="M0,-7.875L9.25,-7.875L9.25,0" style="fill:none;fill-rule:nonzero;stroke:black;stroke-width:3px;"/>
    </g>
    <g transform="matrix(4.16667,0,0,4.16667,809.49,962.669)">
        <path d="M0,7.375L0,0L8.5,0" style="fill:none;fill-rule:nonzero;stroke:black;stroke-width:3px;"/>
    </g>
    <g transform="matrix(4.16667,0,0,4.16667,743.344,668.398)">
        <path d="M0,25.844L7.625,20.125L7.625,11.248" style="fill:none;fill-rule:nonzero;stroke:black;stroke-width:3px;"/>
    </g>
    <g transform="matrix(2.53815,-3.30438,-3.30438,-2.53815,707.259,960.342)">
        <path d="M-2.125,4.313L8.75,4.313" style="fill:none;fill-rule:nonzero;stroke:black;stroke-width:3px;"/>
    </g>
    <g transform="matrix(-2.81036,-3.0762,-3.0762,2.81036,792.794,913.121)">
        <path d="M-11.482,5.063L2.232,5.063" style="fill:none;fill-rule:nonzero;stroke:black;stroke-width:3px;"/>
    </g>
</svg>
