<?xml version="1.0" encoding="UTF-8"?>
<svg xmlns="http://www.w3.org/2000/svg" xmlns:serif="http://www.serif.com/" version="1.1" viewBox="0 0 1728 1728">
  <defs>
    <style>
      .cls-1 {
        stroke-width: 6.1px;
      }

      .cls-1, .cls-2, .cls-3, .cls-4, .cls-5, .cls-6, .cls-7, .cls-8, .cls-9, .cls-10, .cls-11, .cls-12, .cls-13, .cls-14, .cls-15, .cls-16, .cls-17, .cls-18, .cls-19, .cls-20, .cls-21, .cls-22, .cls-23, .cls-24, .cls-25, .cls-26, .cls-27, .cls-28, .cls-29, .cls-30, .cls-31, .cls-32, .cls-33, .cls-34, .cls-35, .cls-36, .cls-37, .cls-38, .cls-39, .cls-40, .cls-41, .cls-42, .cls-43, .cls-44, .cls-45 {
        stroke: #000;
        stroke-linecap: round;
        stroke-linejoin: round;
      }

      .cls-1, .cls-2, .cls-3, .cls-4, .cls-5, .cls-6, .cls-7, .cls-8, .cls-9, .cls-10, .cls-11, .cls-12, .cls-13, .cls-14, .cls-15, .cls-16, .cls-17, .cls-18, .cls-19, .cls-20, .cls-21, .cls-22, .cls-23, .cls-24, .cls-25, .cls-26, .cls-27, .cls-28, .cls-30, .cls-32, .cls-33, .cls-39, .cls-45 {
        fill: none;
      }

      .cls-2 {
        stroke-width: 6.1px;
      }

      .cls-3 {
        stroke-width: 4.6px;
      }

      .cls-4 {
        stroke-width: 4.4px;
      }

      .cls-5 {
        stroke-width: 4.6px;
      }

      .cls-6, .cls-38 {
        stroke-width: 4.6px;
      }

      .cls-7, .cls-39 {
        stroke-width: 4.6px;
      }

      .cls-8, .cls-36 {
        stroke-width: 4.6px;
      }

      .cls-9, .cls-37 {
        stroke-width: 4.6px;
      }

      .cls-10 {
        stroke-width: 2.6px;
      }

      .cls-11, .cls-43 {
        stroke-width: 7px;
      }

      .cls-12 {
        stroke-width: 6.7px;
      }

      .cls-13 {
        stroke-width: 8.1px;
      }

      .cls-14 {
        stroke-width: 8.1px;
      }

      .cls-15 {
        stroke-width: 8.2px;
      }

      .cls-16 {
        stroke-width: 6.8px;
      }

      .cls-17 {
        stroke-width: 5px;
      }

      .cls-46, .cls-47, .cls-48, .cls-49, .cls-50, .cls-51 {
        isolation: isolate;
      }

      .cls-46, .cls-52, .cls-53, .cls-54, .cls-48, .cls-49, .cls-50, .cls-51 {
        font-family: ArialMT, Arial;
      }

      .cls-46, .cls-54 {
        font-size: 49.8px;
      }

      .cls-18 {
        stroke-width: 3px;
      }

      .cls-19 {
        stroke-width: 3px;
      }

      .cls-20 {
        stroke-width: 3px;
      }

      .cls-21 {
        stroke-width: 3px;
      }

      .cls-22 {
        stroke-width: 3px;
      }

      .cls-23 {
        stroke-width: 3px;
      }

      .cls-24 {
        stroke-width: 3px;
      }

      .cls-25 {
        stroke-width: 3px;
      }

      .cls-26, .cls-34 {
        stroke-width: 3px;
      }

      .cls-27, .cls-35 {
        stroke-width: 3.1px;
      }

      .cls-28 {
        stroke-width: 3px;
      }

      .cls-29 {
        stroke-width: 11.8px;
      }

      .cls-30 {
        stroke-dasharray: 9.1 13.7 0 0 0 0;
        stroke-width: 4.6px;
      }

      .cls-31 {
        stroke-width: 6.1px;
      }

      .cls-32 {
        stroke-dasharray: 12.2 18.3 0 0 0 0;
        stroke-width: 6.1px;
      }

      .cls-33 {
        stroke-width: 10.3px;
      }

      .cls-52 {
        font-size: 30.5px;
      }

      .cls-53, .cls-51 {
        font-size: 32.8px;
      }

      .cls-55, .cls-34, .cls-35, .cls-36, .cls-37, .cls-38, .cls-41, .cls-42, .cls-43, .cls-44 {
        fill-rule: evenodd;
      }

      .cls-34, .cls-35, .cls-36, .cls-37, .cls-38, .cls-40, .cls-42, .cls-43, .cls-44 {
        fill: #a9a9a9;
      }

      .cls-39 {
        stroke-dasharray: 9.1 13.7 0 0 0 0;
      }

      .cls-48 {
        font-size: 27.4px;
      }

      .cls-49 {
        font-size: 27.4px;
      }

      .cls-40 {
        stroke-width: 4.6px;
      }

      .cls-41 {
        stroke-width: 4.4px;
      }

      .cls-50 {
        font-size: 30.5px;
      }

      .cls-42 {
        stroke-width: 5.5px;
      }

      .cls-44 {
        stroke-width: 10.1px;
      }

      .cls-45 {
        stroke-dasharray: 9.1 13.7 0 0 0 0;
        stroke-width: 4.6px;
      }
    </style>
  </defs>
  <!-- Generator: Adobe Illustrator 28.6.0, SVG Export Plug-In . SVG Version: 1.2.0 Build 709)  -->
  <g>
    <g id="Layer_1">
      <path class="cls-16" d="M1417.1,176.9h226.8l87.3-40.5-.2-96.6-88.7,44h-225.2v93.2Z"/>
      <path class="cls-5" d="M1504.8,39.7l-86.9,43.5,86.9-43.5Z"/>
      <path class="cls-5" d="M1729.8,39.4h-225.9"/>
      <path class="cls-12" d="M1642.4,84v93.3"/>
      <path class="cls-18" d="M1417,101.5h225.8"/>
      <path class="cls-28" d="M1642.9,101.5l88.9-43.6"/>
      <path class="cls-18" d="M1418.8,121.8h225.8"/>
      <path class="cls-18" d="M1416.3,139.5h225.8"/>
      <path class="cls-18" d="M1418.3,157.4h225.8"/>
      <path class="cls-37" d="M1484.6,211.2h127.3l34.2-15.8,25.5-13.1-.3-17.9-27.3,12-26.4.4-6.5,1.9h-126.4v32.4Z"/>
      <path class="cls-9" d="M1611.5,179.2v31.9"/>
      <path class="cls-25" d="M1484.8,186.1h126.8"/>
      <path class="cls-25" d="M1485.1,192.6h126.8"/>
      <path class="cls-25" d="M1484.7,199.1h126.8"/>
      <path class="cls-25" d="M1484.8,205.6h126.8"/>
      <path class="cls-28" d="M1642.7,121.2l89.3-42.8"/>
      <path class="cls-28" d="M1642.7,139l89.3-42.8"/>
      <path class="cls-28" d="M1642.7,156.8l89.3-42.8"/>
      <path class="cls-28" d="M1532.1,84.6v92.2"/>
      <path class="cls-28" d="M1693,59.5v94.5"/>
      <path class="cls-38" d="M1484.7,70.5l50.2-24.8h126.4l-48.2,24.9-128.4-.2Z"/>
      <path class="cls-28" d="M1469.4,57.4h39.7"/>
      <path class="cls-4" d="M1638.9,58.4h54"/>
      <path class="cls-28" d="M1590.3,46.2l10-6.8"/>
      <path class="cls-28" d="M1532.4,83.9l18.6-13.3"/>
      <g>
        <g>
          <path class="cls-35" d="M1428.2,823.7s8.1-10.4,9.1-9.9c5.1,2.3,9.4,12.2,13.6,21.3,3.2,6.8,10.8,16.2,18.2,23.8,7.4,7.7,15.6,15.9,15.6,15.9,0,0,4.3-6.8,8.8-6.8s7.4,6.2,11.1,10.5c3.7,4.3,12.2,9.4,15.6,12.8,3.4,3.4,1.4,8.5-3.7,10.2-5.1,1.7-7.4-7.7-9.6-3.7-2.3,4-4.5,9.6-11.3,7.1-6.8-2.6-11.9-2.6-15.3-.9-3.4,1.7-1.7-11.6-5.1-15.6-3.4-4-7.1-14.9-9.9-18.2-4-4.5-13.9-13.3-15.9-16.7-2-3.4-9.1-21-12.8-22.1-3.7-1.1-10.2-3.7-8.2-7.7Z"/>
          <path class="cls-35" d="M1262,590.7s0,13.7,8,23.5c8,9.8,12.4,24.4,20.8,27.5,8.4,3.1,13.7,7.5,21.3,10.6,7.5,3.1,8.9,11.1,9.3,23.5.4,12.4,5.3,15.5,12.9,19.5,7.5,4,12.4,1.8,16.4,12.9s3.5,24.8,8.9,33.7,11.1,8.4,11.5,21.3c.4,12.9-1.8,19.5,1.3,24.8,3.1,5.3,6.2,6.7,12.9,6.2,6.7-.4,11.1,2.2,20,6.2,8.9,4,18.2,6.7,25.3,2.7,7.1-4,12.4-7.5,10.2-17.7-2.2-10.2-7.1-19.1-13.7-23.1-6.6-4-13.3-10.6-19.5-9.3-6.2,1.3-16.4,7.5-20,4.9-3.5-2.7-9.3-3.5-14.2-11.1-4.9-7.5-12-13.3-9.3-19.1,2.7-5.8,16.8-8.4,17.3-15.5.4-7.1,0-16.4-5.3-16.8-5.3-.4-12.9,4-17.3,4s-8.9-8.4-10.6-15.1c-1.8-6.6-3.5-16-9.8-19.9-6.2-4-9.8-12.9-14.2-15.1-4.4-2.2-14.6-9.3-21.3-16.8-6.6-7.5-13.3-23.5-15.5-28.8-2.2-5.3-6.7-13.7-6.7-13.7l-18.6.9Z"/>
          <path class="cls-27" d="M1308.9,810.7s7.8-.7,11.3,2.1c3.5,2.8,3.2,3.9,8.1,1.4,5-2.5,13.5-15.2,21.6-18.8,8.2-3.5,12.4-7.4,19.5-12.8"/>
          <path class="cls-27" d="M1312.1,829.8c7.1-3.5,14.5,3.9,19.9-.7,5.3-4.6,9.6-9.9,17.4-13.8,7.8-3.9,12.4-2.8,17.4-6.7,5-3.9,11-6,11-6,0,0-1.8,7.8,6,12.8,7.8,5,14.9,9.9,22.3,9.9s12.4,1.1,18.1.7c5.7-.4,18.1-16.3,18.1-16.3,0,0,3.9,4.6,7.5,9.2,3.5,4.6,9.2,11.3,15.6,13.8,6.4,2.5,9.6,8.9,16.3,10.3,6.7,1.4,20.2,2.1,24.5-.7,4.3-2.8,8.9-8.2,16.7-8.2"/>
          <path class="cls-27" d="M1443.3,792.2s6.7,4.6,11.7,9.2c5,4.6,10.6,9.2,12.8,14.5,2.1,5.3,5,10.3,13.1,11.7,8.2,1.4,12.8,5.3,20.9,2.5,8.2-2.8,14.2-5,20.2-4.3"/>
        </g>
        <g>
          <path class="cls-36" d="M1183.4,1020.3s-5-17.3-4.6-27.5c.4-10.2,12.8-22.1,33.1-29.2,20.3-7.1,35.4-9,48.2-18.3,12.8-9.2,29.5-6.9,41.4-4.3,10,2.2,29.7,3.4,38.4,8.2,7.7,4.3,27.5.5,32.8,13.8,4.2,10.7-6.2,17.9,10,26.6,13.2,7.2,17.1,19,15.8,34.3-1.3,15.3-14.7,19.9-20.5,30.9s-22.4,14.6-35,16.6c-12.7,1.9-33.5-.4-33.5-.4,0,0-7.9-18.9-18.7-23.9-10.8-5.1-26-25.3-36.9-25.5-10.9-.2-25.8-10.5-36.5-7.5-10.7,2.9-33.9,6.1-33.9,6.1Z"/>
          <path class="cls-8" d="M1183.8,1022.3s11.9,27.1,14.3,29.6c2.4,2.5,7.5,13.8,20.6,16.9,13.1,3.2,37.5,8,46.4,13.3,8.9,5.3,26.4,4.6,33.1-3.5,6.7-8.1,8.6-10,8.6-10"/>
          <path class="cls-41" d="M1189.7,1019.3s.6,5.6,7.2,5.3c6.5-.2,16.3-5.6,25-4.4,8.7,1.3,22.1,6.5,25.3,6.5,3.2,0,6.1-1.2,10.1,1.6,4,2.8,10.1,7.9,14.7,10.7,4.6,2.7,11.7,10,16.5,12.3s6.3,5.9,8.9,5.2c2.6-.7,4.4.2,4.4.2l-4.5-6.5-10.1-5.8-12-9.6-14.3-11.5-11.5-2.7-22.6-7.1-37.1,5.9Z"/>
        </g>
        <g>
          <path class="cls-55" d="M1411.3,852.7l10-19.3,3.6,21.4-13.5-2.1Z"/>
          <path class="cls-45" d="M1395.4,998.4s16.8-107,23.3-148.6"/>
        </g>
        <g>
          <path class="cls-55" d="M1349.8,828.5l20.2-8-11.4,18.5-8.8-10.5Z"/>
          <path class="cls-30" d="M1196.1,966.2s121.2-101.6,161.2-135.1"/>
        </g>
        <g>
          <path class="cls-13" d="M296.9,951.9h60.4"/>
          <path class="cls-6" d="M488.8,951.9h59.6"/>
          <rect class="cls-40" x="357.9" y="887.3" width="128.8" height="130.3"/>
          <path class="cls-15" d="M423.6,827.1v58.5"/>
          <path class="cls-14" d="M423.6,1019v60"/>
          <g>
            <text class="cls-48" transform="translate(375.9 950.8)"><tspan x="0" y="0">Column</tspan></text>
            <text class="cls-48" transform="translate(415.6 979.1)"><tspan x="0" y="0">1</tspan></text>
          </g>
          <g>
            <text class="cls-48" transform="translate(314.3 870.7)"><tspan x="0" y="0">Column</tspan></text>
            <text class="cls-48" transform="translate(314.3 899)"><tspan x="0" y="0">2</tspan></text>
          </g>
          <g>
            <text class="cls-48" transform="translate(436.5 871.7)"><tspan x="0" y="0">Column</tspan></text>
            <text class="cls-48" transform="translate(515.7 900.1)"><tspan x="0" y="0">3</tspan></text>
          </g>
          <g>
            <text class="cls-48" transform="translate(314.8 1024.8)"><tspan x="0" y="0">4</tspan></text>
            <text class="cls-48" transform="translate(314.8 1053.1)"><tspan x="0" y="0">Column</tspan></text>
          </g>
          <g>
            <text class="cls-48" transform="translate(515.6 1024.8)"><tspan x="0" y="0">5</tspan></text>
            <text class="cls-48" transform="translate(436.3 1053.1)"><tspan x="0" y="0">Column</tspan></text>
          </g>
          <text class="cls-48" transform="translate(378.7 800)"><tspan x="0" y="0">800 μm</tspan></text>
          <rect class="cls-6" x="296.6" y="825.3" width="251.5" height="254.4"/>
          <g>
            <path class="cls-55" d="M533.1,805.5l9.1,4.6-9.1,4.6v-9.1Z"/>
            <path class="cls-22" d="M447.2,810.1h87.8"/>
          </g>
          <g>
            <path class="cls-55" d="M308.9,814.6l-9.1-4.6,9.1-4.6v9.1Z"/>
            <path class="cls-21" d="M467.8,810.1h-160.7"/>
          </g>
        </g>
        <g>
          <g>
            <path class="cls-55" d="M663.5,663.2l6.6-7.8-10.2-.5,3.6,8.4Z"/>
            <path class="cls-55" d="M602,688l-10.2-.5,6.6-7.8,3.6,8.4Z"/>
            <path class="cls-24" d="M663.4,658.3c-12.3,5.4-52.5,20.9-64.8,26.3"/>
          </g>
          <g>
            <path class="cls-55" d="M583.6,710.7l4.6-9.1,4.6,9.1h-9.1Z"/>
            <path class="cls-23" d="M588.1,745.5v-36.7"/>
          </g>
          <g>
            <path class="cls-55" d="M592.7,761l-4.6,9.1-4.6-9.1h9.1Z"/>
            <path class="cls-23" d="M588.1,743.2v19.6"/>
          </g>
          <g>
            <g>
              <path class="cls-55" d="M910,647.8l9.1,4.6-9.1,4.6v-9.1Z"/>
              <path class="cls-19" d="M816.5,652.4h95.3"/>
            </g>
            <g>
              <path class="cls-55" d="M700.3,657l-9.1-4.6,9.1-4.6v9.1Z"/>
              <path class="cls-20" d="M826.3,652.4h-127.8"/>
            </g>
            <text class="cls-48" transform="translate(756.5 644.2)"><tspan x="0" y="0">400 μm</tspan></text>
          </g>
          <text class="cls-48" transform="translate(575.9 767.8) rotate(-90)"><tspan x="0" y="0">80 μm</tspan></text>
          <text class="cls-49" transform="translate(584.9 681.2) rotate(-22.5)"><tspan x="0" y="0">400 μm</tspan></text>
          <g>
            <path class="cls-11" d="M603.5,769.2h262.2l70.4-32.5v-63.2l-72.3,28.8h-260.4v66.8Z"/>
            <path class="cls-11" d="M674.2,673l-70.2,29.1,70.2-29.1Z"/>
            <path class="cls-11" d="M935.7,672.7h-261.2"/>
            <path class="cls-11" d="M864.7,703.1v65.6"/>
            <path class="cls-3" d="M603.8,717.3h261.1"/>
            <path class="cls-3" d="M604.5,730.7h261.1"/>
            <path class="cls-3" d="M603.5,744.1h261.1"/>
            <path class="cls-3" d="M603.8,757.5h261.1"/>
          </g>
          <g>
            <path class="cls-11" d="M603.5,847.8h262.2l70.4-32.5v-67.5l-72.3,33.2h-260.4v66.8Z"/>
            <path class="cls-11" d="M864.7,781.8v65.6"/>
          </g>
          <g>
            <path class="cls-43" d="M603.5,926.9h262.2l70.4-32.5v-67.5l-72.3,33.2h-260.4v66.8Z"/>
            <path class="cls-11" d="M864.7,860.8v65.6"/>
          </g>
          <g>
            <path class="cls-11" d="M603.5,1007.1h262.2l70.4-32.5v-67.5l-72.3,33.2h-260.4v66.8Z"/>
            <path class="cls-11" d="M864.7,941v65.6"/>
          </g>
          <g>
            <path class="cls-11" d="M603.5,1087.7h262.2l70.4-32.5v-67.5l-72.3,33.2h-260.4v66.8Z"/>
            <path class="cls-11" d="M864.7,1021.7v65.6"/>
          </g>
          <g class="cls-47">
            <text class="cls-52" transform="translate(955.9 868.8)"><tspan x="0" y="0">Volumes</tspan><tspan x="0" y="36.6">1-5 in each</tspan><tspan x="0" y="73.1">column</tspan></text>
          </g>
          <g class="cls-47">
            <text class="cls-51" transform="translate(622.4 906.7)"><tspan x="0" y="0">Scan V</tspan></text>
            <text class="cls-51" transform="translate(726.5 906.7)"><tspan x="0" y="0">o</tspan></text>
            <text class="cls-51" transform="translate(744.8 906.7)"><tspan x="0" y="0">l</tspan></text>
            <text class="cls-53" transform="translate(752.1 906.7)"><tspan x="0" y="0">ume 3</tspan></text>
          </g>
        </g>
        <rect class="cls-31" x="1255.7" y="1462.7" width="76.7" height="8.7"/>
        <g>
          <path class="cls-55" d="M1303,1428l-9.1,18.3-9.1-18.3h18.3Z"/>
          <path class="cls-2" d="M1293.8,1311.5v120.1"/>
        </g>
        <g>
          <path class="cls-55" d="M1284.7,1148.4l9.1-18.3,9.1,18.3h-18.3Z"/>
          <path class="cls-2" d="M1293.8,1183.4v-38.7"/>
        </g>
        <text class="cls-46" transform="translate(570.8 1178.4)"><tspan x="0" y="0">Ca   Imaging</tspan></text>
        <g class="cls-47">
          <text class="cls-46" transform="translate(205.3 1653.2)"><tspan x="0" y="0">V</tspan></text>
          <text class="cls-46" transform="translate(237.6 1653.2)"><tspan x="0" y="0">i</tspan></text>
          <text class="cls-46" transform="translate(248.6 1653.2)"><tspan x="0" y="0">s</tspan></text>
          <text class="cls-54" transform="translate(273.5 1653.2)"><tspan x="0" y="0">ual Stimuli</tspan></text>
        </g>
        <g>
          <text class="cls-46" transform="translate(1197.8 1233.9)"><tspan x="0" y="0">Electron</tspan></text>
          <text class="cls-46" transform="translate(1163.2 1285.3)"><tspan x="0" y="0">Microscopy</tspan></text>
        </g>
        <g>
          <path class="cls-55" d="M1220.4,1421.1l5.7,22.1-22.8-.8,17.2-21.4Z"/>
          <path class="cls-32" d="M775.9,1371.8s114.5-45.3,230.5-33.7c88.5,8.9,177.4,72.1,208.2,96"/>
        </g>
        <ellipse class="cls-29" cx="698.8" cy="1413.7" rx="6.6" ry="3.4"/>
        <path class="cls-44" d="M390.3,1218.3v349.9l-69.2,29.9v-349.9l69.2-29.9Z"/>
        <path class="cls-39" d="M692.9,1413.8l-327.1,131.2v-263.4l327.1,132.3Z"/>
        <path class="cls-7" d="M900.4,1522.7l-2.6,4.6,4.4,1.5s-2.6,2.2-1.8,4.4c.8,2.2,16-4.1,21.1-3.4"/>
        <path class="cls-7" d="M973.2,1520s-4.7,7.6-7.6,8.3c-2.9.7-16.6-.3-24.6.7-8,1-23.2.5-26.7,3.9-3.5,3.3-.6,5.1,0,8.1.5,3,8-3,12.2-3.9,4.1-.8-12.2,3.9-12.2,3.9,0,0,1.4,5.1,6.2,5.7,4.8.6,8.3-4.4,13.1-5.5,4.8-1.1,8.7.1,8.7.1,0,0-4.4,4.1-3.9,6.2.5,2.1,7.3.8,8.8-.4,1.5-1.2,15.3-4.4,19.2-5.1,3.9-.7,12.8,2.1,15.9-.7,3-2.8,10.8-14.4,11.5-16.4.7-2.1-2.3-9.3-2.3-9.3"/>
        <path class="cls-7" d="M771.3,1508.7s-8,8.4-10.5,10.3c-2.5,1.9-8.5,2.5-9.8,6.9-1.3,4.3.4,10.9,3,12.3,2.5,1.3,6,1.7,6.7.7.8-1,.1-9.8,1.9-9.9,2.5-.2,2.8,5.5,2.8,5.5,0,0,8.7-4.3,10.7-10.2,2-5.9,3.1-9.6,3.1-9.6"/>
        <path class="cls-7" d="M699.5,1530s-1.5.7-1.3,2.7c.2,2,4.2,4.6,6.6,4.4,2.4-.2,9.7-2,10.7-2.2,1-.2-5.5,1.2-5.5,1.2,0,0,0,5.8,3.5,5.8s8.8-3.1,10.7-4-4.5,2.2-4.5,2.2c0,0,1,6,6,4.2,5-1.8,8.2-5,10.2-5.1,2-.1,10.6,1.8,12.3.4,1.7-1.3,2.7-5.1,2.7-5.1"/>
        <path class="cls-7" d="M699.2,1530.1s6.9-.4,10.2-1.5c3.3-1.1,5.6-1.4,8.3-1.2,2.7.2,7.8,2.8,10.6,2.2,2.8-.5,10.3-2.3,13.1-6.9,2.9-4.5,11.8-17,11.8-17"/>
        <path class="cls-7" d="M755.7,1497.7s-3.2,4.9-2.7,6.5c.5,1.6,10.6,7.4,12.4,7.4s4.6-5.4,4.6-5.4"/>
        <path class="cls-7" d="M1026,1487.6c9.6,3.7,28.9,11.1,40.6,19.2,11.4,7.9,25.5,17.7,29.7,29.4,7.3,20.3-1.2,33.3-11.5,42.9-10.3,9.6-33,14.4-50.5,14.7-18.7.2-43.2-7.2-61.5-13.2-17.5-5.8-35.6-11.4-51.1-14.4-13.8-2.7-29.3-4.2-42.1-3.9-11.7.3-28.1,5-34.5,5.6-1.5.1-5.3-.9-4.1-1.7,3.2-2.3,14.5-10.6,23.1-12.1,12.2-2.2,33.4-2.9,49.9-.9,18.2,2.3,40.3,8.4,59.1,14.5,18.9,6,41.8,10.5,57.1,11,11.8.4,26.2-3.5,34.7-7.8,7.1-3.6,14.4-8.8,15.9-17.9,1.4-8.4-6.4-18.9-11.8-23.8-10.3-9.3-37.3-21.4-54.6-27.2"/>
        <path class="cls-7" d="M729.4,1375.3s1.6-7.7,11.8-11.8c7.3-2.9,13.8-2.9,18-1.8,5.4,1.4,2.8,7.7,1.2,9.1-2.4,2-6.5,5.1-6.5,5.1"/>
        <path class="cls-7" d="M747.3,1387.2c8.3-2.4,13.2-9.7,25-7.2,11.8,2.5,13.3,12.4,13.2,17-.1,4.5-3.4,16.5-6.5,21.4-2.2,3.6-5.7,7.2-10.1,7.5-4.4.3-10.9-1.1-14.7-2.3-3-1-6.6-2.8-7.7-4.4-1.1-1.7,3.5-3.5,4.8-7,1.2-3.4,2-9.9,2.2-12.7.2-2.8,1.4-9.3,4.3-11.2,2.9-1.9,10.3-4.3,13-4.4,2.8-.1,9.9,1,12.1,2.4"/>
        <path class="cls-7" d="M740.2,1385.5s6.5,2.8,7.7,5.8c1.2,3,3.2,5-1.8,22.2"/>
        <path class="cls-7" d="M785.8,1509.2c1.6,1.3,4.9,3.8,8.6,6.1,4,2.5,10.6,3.8,16.1,3.8,5.8,0,11.8-2.4,18.9-3.7,6.7-1.3,14.8-3.1,20.3-3.7,4.2-.4,8.5-.3,12.6.5,5.5,1.1,13.6,4.4,20.6,6,7.7,1.8,16.9,3.7,25.4,4.7,8.4.9,17.9,1,25.4.9,6.6,0,14-1.1,19.7-1.4,4.8-.2,10.6.8,14.5-.3,3.6-1.1,6.3-5.2,9.2-6.7,2.5-1.4,5.5-2.8,8.1-2.8,2.6,0,4.9,3.6,7.6,3.3,3.2-.4,9.2-3.7,11.7-5.7,1.9-1.6,1.6-5,3.5-6.6,2.2-1.9,7.2-2.3,9.8-4.8,2.8-2.8,6.5-7.2,6.9-11.7.5-5.8-.2-16.1-4-22.8-4.8-8.3-15.7-18.8-24.5-27.3-9.2-8.8-19.6-17.7-30.4-25.2-11.1-7.7-24.6-16.3-36.1-21.1-10.4-4.4-21.7-6.9-33-7.8-13.1-1-32.9,1.1-45.4,1.9-9.9.6-23.2,1.7-29.7,2.8-3.3.5-6.4,3.9-9.5,3.6-3-.3-5.4-5.2-8.8-5.2s-13.3,3.5-17.8,5.2"/>
        <path class="cls-7" d="M723.4,1378.5c2.4-1.4,15.9-3.5,21.6-2.4,5.7,1.1,17.3.5,20.5,3.2"/>
        <path class="cls-7" d="M683,1394.7s-6.2.9-17.1,8.1c-10.9,7.3-18.6,15.2-18.6,15.2,0,0,.5,2.2.3,5.7-.2,3.5-5.3,7.9-5.3,7.9,0,0,1.4,9.2,5.5,11.9,4.1,2.8,27.3,11.4,31.4,12.6,4.1,1.2,31.8,9,35.7,9.8,4,.9,19.2,5,22.4,6.9s5,10.4,7.6,14.3c2.6,4,7.3,7.1,13.5,10.5,6.2,3.5,11.9,5.7,13.6,8.5,1.7,2.8,4,3.4,5.9,5.9,1.9,2.4,3.1,5.3,3.1,5.3,0,0,4.5-8.1,7.3-12.6s5.7-17.3,6-22.8"/>
        <path class="cls-34" d="M678.8,1379l9.3,23.6c13.8-1,26-5.2,36.7-12.6l-8-23.6-37.9,12.6Z"/>
        <path class="cls-42" d="M716.3,1319l9.8,28.6c2.7,7.9-1.5,16.5-9.4,19.2l-38.1,13.1c-7.9,2.7-16.5-1.5-19.2-9.4l-9.8-28.6c-2.7-7.9,1.5-16.5,9.4-19.2l38.1-13.1c7.9-2.7,16.5,1.5,19.2,9.4Z"/>
        <path class="cls-33" d="M651.8,1340.3l62.6-20.8"/>
        <path class="cls-26" d="M681.1,1196.2c8.4,8.6,16.7,18.7,15.9,28.1-1.4,14.5-9.1,19.6-20.2,37.8-11.1,18.2-17.5,24.3-14.8,34.7,2.7,10.5,15.2,19.2,15.2,19.2"/>
        <path class="cls-7" d="M645.6,1418.1s-4.1,1-5.4,4.4c-1.3,3.4,1.1,8.6,1.1,8.6"/>
        <text class="cls-50" transform="translate(634.6 1161.6)"><tspan x="0" y="0">2+</tspan></text>
        <g>
          <text class="cls-50" transform="translate(1166.2 738.3)"><tspan x="0" y="0">Post-</tspan></text>
          <text class="cls-50" transform="translate(1166.2 769.7)"><tspan x="0" y="0">synaptic</tspan></text>
          <text class="cls-50" transform="translate(1166.2 801.2)"><tspan x="0" y="0">Density</tspan></text>
          <text class="cls-50" transform="translate(1166.2 832.7)"><tspan x="0" y="0">(PSD)</tspan></text>
        </g>
        <rect class="cls-17" x="1156.3" y="929.3" width="271.1" height="174.8"/>
        <g>
          <path class="cls-55" d="M1231.6,987.2l-9.1,18.3-9.1-18.3h18.3Z"/>
          <path class="cls-1" d="M1222.5,850.4v140.5"/>
        </g>
        <g>
          <g>
            <path class="cls-10" d="M1219.1,1498.9h118.2l31.8-10.1v-19.6l-32.6,9h-117.4v20.8Z"/>
            <path class="cls-10" d="M1251.9,1469l-32.1,9.1,32.1-9.1Z"/>
            <path class="cls-10" d="M1368.9,1468.9h-117.8"/>
          </g>
          <path class="cls-10" d="M1336.9,1478.3v20.4"/>
        </g>
      </g>
    </g>
  </g>
</svg>