<?xml version="1.0" encoding="utf-8" standalone="no"?>
<!DOCTYPE svg PUBLIC "-//W3C//DTD SVG 1.1//EN"
  "http://www.w3.org/Graphics/SVG/1.1/DTD/svg11.dtd">
<svg xmlns:xlink="http://www.w3.org/1999/xlink" width="720pt" height="504pt" viewBox="0 0 720 504" xmlns="http://www.w3.org/2000/svg" version="1.1">
 <metadata>
  <rdf:RDF xmlns:dc="http://purl.org/dc/elements/1.1/" xmlns:cc="http://creativecommons.org/ns#" xmlns:rdf="http://www.w3.org/1999/02/22-rdf-syntax-ns#">
   <cc:Work>
    <dc:type rdf:resource="http://purl.org/dc/dcmitype/StillImage"/>
    <dc:date>2025-05-16T00:02:51.028885</dc:date>
    <dc:format>image/svg+xml</dc:format>
    <dc:creator>
     <cc:Agent>
      <dc:title>Matplotlib v3.8.4, https://matplotlib.org/</dc:title>
     </cc:Agent>
    </dc:creator>
   </cc:Work>
  </rdf:RDF>
 </metadata>
 <defs>
  <style type="text/css">*{stroke-linejoin: round; stroke-linecap: butt}</style>
 </defs>
 <g id="figure_1">
  <g id="patch_1">
   <path d="M 0 504 
L 720 504 
L 720 0 
L 0 0 
z
" style="fill: #ffffff"/>
  </g>
  <g id="axes_1">
   <g id="patch_2">
    <path d="M 81.99 407.386724 
L 702.443362 407.386724 
L 702.443362 65.184 
L 81.99 65.184 
z
" style="fill: #ffffff"/>
   </g>
   <g id="matplotlib.axis_1">
    <g id="xtick_1">
     <g id="text_1">
      <!-- A 1 -->
      <g style="fill: #262626" transform="translate(94.990831 450.799123) rotate(-45) scale(0.2 -0.2)">
       <defs>
        <path id="DejaVuSans-41" d="M 2188 4044 
L 1331 1722 
L 3047 1722 
L 2188 4044 
z
M 1831 4666 
L 2547 4666 
L 4325 0 
L 3669 0 
L 3244 1197 
L 1141 1197 
L 716 0 
L 50 0 
L 1831 4666 
z
" transform="scale(0.015625)"/>
        <path id="DejaVuSans-20" transform="scale(0.015625)"/>
        <path id="DejaVuSans-31" d="M 794 531 
L 1825 531 
L 1825 4091 
L 703 3866 
L 703 4441 
L 1819 4666 
L 2450 4666 
L 2450 531 
L 3481 531 
L 3481 0 
L 794 0 
L 794 531 
z
" transform="scale(0.015625)"/>
       </defs>
       <use xlink:href="#DejaVuSans-41"/>
       <use xlink:href="#DejaVuSans-20" x="68.408203"/>
       <use xlink:href="#DejaVuSans-31" x="100.195312"/>
      </g>
     </g>
    </g>
    <g id="xtick_2">
     <g id="text_2">
      <!-- A 2 -->
      <g style="fill: #262626" transform="translate(136.354389 450.799123) rotate(-45) scale(0.2 -0.2)">
       <defs>
        <path id="DejaVuSans-32" d="M 1228 531 
L 3431 531 
L 3431 0 
L 469 0 
L 469 531 
Q 828 903 1448 1529 
Q 2069 2156 2228 2338 
Q 2531 2678 2651 2914 
Q 2772 3150 2772 3378 
Q 2772 3750 2511 3984 
Q 2250 4219 1831 4219 
Q 1534 4219 1204 4116 
Q 875 4013 500 3803 
L 500 4441 
Q 881 4594 1212 4672 
Q 1544 4750 1819 4750 
Q 2544 4750 2975 4387 
Q 3406 4025 3406 3419 
Q 3406 3131 3298 2873 
Q 3191 2616 2906 2266 
Q 2828 2175 2409 1742 
Q 1991 1309 1228 531 
z
" transform="scale(0.015625)"/>
       </defs>
       <use xlink:href="#DejaVuSans-41"/>
       <use xlink:href="#DejaVuSans-20" x="68.408203"/>
       <use xlink:href="#DejaVuSans-32" x="100.195312"/>
      </g>
     </g>
    </g>
    <g id="xtick_3">
     <g id="text_3">
      <!-- A 3 -->
      <g style="fill: #262626" transform="translate(177.717946 450.799123) rotate(-45) scale(0.2 -0.2)">
       <defs>
        <path id="DejaVuSans-33" d="M 2597 2516 
Q 3050 2419 3304 2112 
Q 3559 1806 3559 1356 
Q 3559 666 3084 287 
Q 2609 -91 1734 -91 
Q 1441 -91 1130 -33 
Q 819 25 488 141 
L 488 750 
Q 750 597 1062 519 
Q 1375 441 1716 441 
Q 2309 441 2620 675 
Q 2931 909 2931 1356 
Q 2931 1769 2642 2001 
Q 2353 2234 1838 2234 
L 1294 2234 
L 1294 2753 
L 1863 2753 
Q 2328 2753 2575 2939 
Q 2822 3125 2822 3475 
Q 2822 3834 2567 4026 
Q 2313 4219 1838 4219 
Q 1578 4219 1281 4162 
Q 984 4106 628 3988 
L 628 4550 
Q 988 4650 1302 4700 
Q 1616 4750 1894 4750 
Q 2613 4750 3031 4423 
Q 3450 4097 3450 3541 
Q 3450 3153 3228 2886 
Q 3006 2619 2597 2516 
z
" transform="scale(0.015625)"/>
       </defs>
       <use xlink:href="#DejaVuSans-41"/>
       <use xlink:href="#DejaVuSans-20" x="68.408203"/>
       <use xlink:href="#DejaVuSans-33" x="100.195312"/>
      </g>
     </g>
    </g>
    <g id="xtick_4">
     <g id="text_4">
      <!-- A 4 -->
      <g style="fill: #262626" transform="translate(219.081504 450.799123) rotate(-45) scale(0.2 -0.2)">
       <defs>
        <path id="DejaVuSans-34" d="M 2419 4116 
L 825 1625 
L 2419 1625 
L 2419 4116 
z
M 2253 4666 
L 3047 4666 
L 3047 1625 
L 3713 1625 
L 3713 1100 
L 3047 1100 
L 3047 0 
L 2419 0 
L 2419 1100 
L 313 1100 
L 313 1709 
L 2253 4666 
z
" transform="scale(0.015625)"/>
       </defs>
       <use xlink:href="#DejaVuSans-41"/>
       <use xlink:href="#DejaVuSans-20" x="68.408203"/>
       <use xlink:href="#DejaVuSans-34" x="100.195312"/>
      </g>
     </g>
    </g>
    <g id="xtick_5">
     <g id="text_5">
      <!-- A 5 -->
      <g style="fill: #262626" transform="translate(260.445061 450.799123) rotate(-45) scale(0.2 -0.2)">
       <defs>
        <path id="DejaVuSans-35" d="M 691 4666 
L 3169 4666 
L 3169 4134 
L 1269 4134 
L 1269 2991 
Q 1406 3038 1543 3061 
Q 1681 3084 1819 3084 
Q 2600 3084 3056 2656 
Q 3513 2228 3513 1497 
Q 3513 744 3044 326 
Q 2575 -91 1722 -91 
Q 1428 -91 1123 -41 
Q 819 9 494 109 
L 494 744 
Q 775 591 1075 516 
Q 1375 441 1709 441 
Q 2250 441 2565 725 
Q 2881 1009 2881 1497 
Q 2881 1984 2565 2268 
Q 2250 2553 1709 2553 
Q 1456 2553 1204 2497 
Q 953 2441 691 2322 
L 691 4666 
z
" transform="scale(0.015625)"/>
       </defs>
       <use xlink:href="#DejaVuSans-41"/>
       <use xlink:href="#DejaVuSans-20" x="68.408203"/>
       <use xlink:href="#DejaVuSans-35" x="100.195312"/>
      </g>
     </g>
    </g>
    <g id="xtick_6">
     <g id="text_6">
      <!-- A 6 -->
      <g style="fill: #262626" transform="translate(301.808619 450.799123) rotate(-45) scale(0.2 -0.2)">
       <defs>
        <path id="DejaVuSans-36" d="M 2113 2584 
Q 1688 2584 1439 2293 
Q 1191 2003 1191 1497 
Q 1191 994 1439 701 
Q 1688 409 2113 409 
Q 2538 409 2786 701 
Q 3034 994 3034 1497 
Q 3034 2003 2786 2293 
Q 2538 2584 2113 2584 
z
M 3366 4563 
L 3366 3988 
Q 3128 4100 2886 4159 
Q 2644 4219 2406 4219 
Q 1781 4219 1451 3797 
Q 1122 3375 1075 2522 
Q 1259 2794 1537 2939 
Q 1816 3084 2150 3084 
Q 2853 3084 3261 2657 
Q 3669 2231 3669 1497 
Q 3669 778 3244 343 
Q 2819 -91 2113 -91 
Q 1303 -91 875 529 
Q 447 1150 447 2328 
Q 447 3434 972 4092 
Q 1497 4750 2381 4750 
Q 2619 4750 2861 4703 
Q 3103 4656 3366 4563 
z
" transform="scale(0.015625)"/>
       </defs>
       <use xlink:href="#DejaVuSans-41"/>
       <use xlink:href="#DejaVuSans-20" x="68.408203"/>
       <use xlink:href="#DejaVuSans-36" x="100.195312"/>
      </g>
     </g>
    </g>
    <g id="xtick_7">
     <g id="text_7">
      <!-- A 7 -->
      <g style="fill: #262626" transform="translate(343.172176 450.799123) rotate(-45) scale(0.2 -0.2)">
       <defs>
        <path id="DejaVuSans-37" d="M 525 4666 
L 3525 4666 
L 3525 4397 
L 1831 0 
L 1172 0 
L 2766 4134 
L 525 4134 
L 525 4666 
z
" transform="scale(0.015625)"/>
       </defs>
       <use xlink:href="#DejaVuSans-41"/>
       <use xlink:href="#DejaVuSans-20" x="68.408203"/>
       <use xlink:href="#DejaVuSans-37" x="100.195312"/>
      </g>
     </g>
    </g>
    <g id="xtick_8">
     <g id="text_8">
      <!-- A 8 -->
      <g style="fill: #262626" transform="translate(384.535734 450.799123) rotate(-45) scale(0.2 -0.2)">
       <defs>
        <path id="DejaVuSans-38" d="M 2034 2216 
Q 1584 2216 1326 1975 
Q 1069 1734 1069 1313 
Q 1069 891 1326 650 
Q 1584 409 2034 409 
Q 2484 409 2743 651 
Q 3003 894 3003 1313 
Q 3003 1734 2745 1975 
Q 2488 2216 2034 2216 
z
M 1403 2484 
Q 997 2584 770 2862 
Q 544 3141 544 3541 
Q 544 4100 942 4425 
Q 1341 4750 2034 4750 
Q 2731 4750 3128 4425 
Q 3525 4100 3525 3541 
Q 3525 3141 3298 2862 
Q 3072 2584 2669 2484 
Q 3125 2378 3379 2068 
Q 3634 1759 3634 1313 
Q 3634 634 3220 271 
Q 2806 -91 2034 -91 
Q 1263 -91 848 271 
Q 434 634 434 1313 
Q 434 1759 690 2068 
Q 947 2378 1403 2484 
z
M 1172 3481 
Q 1172 3119 1398 2916 
Q 1625 2713 2034 2713 
Q 2441 2713 2670 2916 
Q 2900 3119 2900 3481 
Q 2900 3844 2670 4047 
Q 2441 4250 2034 4250 
Q 1625 4250 1398 4047 
Q 1172 3844 1172 3481 
z
" transform="scale(0.015625)"/>
       </defs>
       <use xlink:href="#DejaVuSans-41"/>
       <use xlink:href="#DejaVuSans-20" x="68.408203"/>
       <use xlink:href="#DejaVuSans-38" x="100.195312"/>
      </g>
     </g>
    </g>
    <g id="xtick_9">
     <g id="text_9">
      <!-- A 9 -->
      <g style="fill: #262626" transform="translate(425.899291 450.799123) rotate(-45) scale(0.2 -0.2)">
       <defs>
        <path id="DejaVuSans-39" d="M 703 97 
L 703 672 
Q 941 559 1184 500 
Q 1428 441 1663 441 
Q 2288 441 2617 861 
Q 2947 1281 2994 2138 
Q 2813 1869 2534 1725 
Q 2256 1581 1919 1581 
Q 1219 1581 811 2004 
Q 403 2428 403 3163 
Q 403 3881 828 4315 
Q 1253 4750 1959 4750 
Q 2769 4750 3195 4129 
Q 3622 3509 3622 2328 
Q 3622 1225 3098 567 
Q 2575 -91 1691 -91 
Q 1453 -91 1209 -44 
Q 966 3 703 97 
z
M 1959 2075 
Q 2384 2075 2632 2365 
Q 2881 2656 2881 3163 
Q 2881 3666 2632 3958 
Q 2384 4250 1959 4250 
Q 1534 4250 1286 3958 
Q 1038 3666 1038 3163 
Q 1038 2656 1286 2365 
Q 1534 2075 1959 2075 
z
" transform="scale(0.015625)"/>
       </defs>
       <use xlink:href="#DejaVuSans-41"/>
       <use xlink:href="#DejaVuSans-20" x="68.408203"/>
       <use xlink:href="#DejaVuSans-39" x="100.195312"/>
      </g>
     </g>
    </g>
    <g id="xtick_10">
     <g id="text_10">
      <!-- A 10 -->
      <g style="fill: #262626" transform="translate(462.763882 459.797057) rotate(-45) scale(0.2 -0.2)">
       <defs>
        <path id="DejaVuSans-30" d="M 2034 4250 
Q 1547 4250 1301 3770 
Q 1056 3291 1056 2328 
Q 1056 1369 1301 889 
Q 1547 409 2034 409 
Q 2525 409 2770 889 
Q 3016 1369 3016 2328 
Q 3016 3291 2770 3770 
Q 2525 4250 2034 4250 
z
M 2034 4750 
Q 2819 4750 3233 4129 
Q 3647 3509 3647 2328 
Q 3647 1150 3233 529 
Q 2819 -91 2034 -91 
Q 1250 -91 836 529 
Q 422 1150 422 2328 
Q 422 3509 836 4129 
Q 1250 4750 2034 4750 
z
" transform="scale(0.015625)"/>
       </defs>
       <use xlink:href="#DejaVuSans-41"/>
       <use xlink:href="#DejaVuSans-20" x="68.408203"/>
       <use xlink:href="#DejaVuSans-31" x="100.195312"/>
       <use xlink:href="#DejaVuSans-30" x="163.818359"/>
      </g>
     </g>
    </g>
    <g id="xtick_11">
     <g id="text_11">
      <!-- A 11 -->
      <g style="fill: #262626" transform="translate(504.127439 459.797057) rotate(-45) scale(0.2 -0.2)">
       <use xlink:href="#DejaVuSans-41"/>
       <use xlink:href="#DejaVuSans-20" x="68.408203"/>
       <use xlink:href="#DejaVuSans-31" x="100.195312"/>
       <use xlink:href="#DejaVuSans-31" x="163.818359"/>
      </g>
     </g>
    </g>
    <g id="xtick_12">
     <g id="text_12">
      <!-- A 12 -->
      <g style="fill: #262626" transform="translate(545.490997 459.797057) rotate(-45) scale(0.2 -0.2)">
       <use xlink:href="#DejaVuSans-41"/>
       <use xlink:href="#DejaVuSans-20" x="68.408203"/>
       <use xlink:href="#DejaVuSans-31" x="100.195312"/>
       <use xlink:href="#DejaVuSans-32" x="163.818359"/>
      </g>
     </g>
    </g>
    <g id="xtick_13">
     <g id="text_13">
      <!-- A 13 -->
      <g style="fill: #262626" transform="translate(586.854554 459.797057) rotate(-45) scale(0.2 -0.2)">
       <use xlink:href="#DejaVuSans-41"/>
       <use xlink:href="#DejaVuSans-20" x="68.408203"/>
       <use xlink:href="#DejaVuSans-31" x="100.195312"/>
       <use xlink:href="#DejaVuSans-33" x="163.818359"/>
      </g>
     </g>
    </g>
    <g id="xtick_14">
     <g id="text_14">
      <!-- A 14 -->
      <g style="fill: #262626" transform="translate(628.218112 459.797057) rotate(-45) scale(0.2 -0.2)">
       <use xlink:href="#DejaVuSans-41"/>
       <use xlink:href="#DejaVuSans-20" x="68.408203"/>
       <use xlink:href="#DejaVuSans-31" x="100.195312"/>
       <use xlink:href="#DejaVuSans-34" x="163.818359"/>
      </g>
     </g>
    </g>
    <g id="xtick_15">
     <g id="text_15">
      <!-- A 15 -->
      <g style="fill: #262626" transform="translate(669.581669 459.797057) rotate(-45) scale(0.2 -0.2)">
       <use xlink:href="#DejaVuSans-41"/>
       <use xlink:href="#DejaVuSans-20" x="68.408203"/>
       <use xlink:href="#DejaVuSans-31" x="100.195312"/>
       <use xlink:href="#DejaVuSans-35" x="163.818359"/>
      </g>
     </g>
    </g>
    <g id="text_16">
     <!-- Assembly or Matched Random Ensemble -->
     <g style="fill: #262626" transform="translate(146.707931 484.974429) scale(0.24 -0.24)">
      <defs>
       <path id="DejaVuSans-73" d="M 2834 3397 
L 2834 2853 
Q 2591 2978 2328 3040 
Q 2066 3103 1784 3103 
Q 1356 3103 1142 2972 
Q 928 2841 928 2578 
Q 928 2378 1081 2264 
Q 1234 2150 1697 2047 
L 1894 2003 
Q 2506 1872 2764 1633 
Q 3022 1394 3022 966 
Q 3022 478 2636 193 
Q 2250 -91 1575 -91 
Q 1294 -91 989 -36 
Q 684 19 347 128 
L 347 722 
Q 666 556 975 473 
Q 1284 391 1588 391 
Q 1994 391 2212 530 
Q 2431 669 2431 922 
Q 2431 1156 2273 1281 
Q 2116 1406 1581 1522 
L 1381 1569 
Q 847 1681 609 1914 
Q 372 2147 372 2553 
Q 372 3047 722 3315 
Q 1072 3584 1716 3584 
Q 2034 3584 2315 3537 
Q 2597 3491 2834 3397 
z
" transform="scale(0.015625)"/>
       <path id="DejaVuSans-65" d="M 3597 1894 
L 3597 1613 
L 953 1613 
Q 991 1019 1311 708 
Q 1631 397 2203 397 
Q 2534 397 2845 478 
Q 3156 559 3463 722 
L 3463 178 
Q 3153 47 2828 -22 
Q 2503 -91 2169 -91 
Q 1331 -91 842 396 
Q 353 884 353 1716 
Q 353 2575 817 3079 
Q 1281 3584 2069 3584 
Q 2775 3584 3186 3129 
Q 3597 2675 3597 1894 
z
M 3022 2063 
Q 3016 2534 2758 2815 
Q 2500 3097 2075 3097 
Q 1594 3097 1305 2825 
Q 1016 2553 972 2059 
L 3022 2063 
z
" transform="scale(0.015625)"/>
       <path id="DejaVuSans-6d" d="M 3328 2828 
Q 3544 3216 3844 3400 
Q 4144 3584 4550 3584 
Q 5097 3584 5394 3201 
Q 5691 2819 5691 2113 
L 5691 0 
L 5113 0 
L 5113 2094 
Q 5113 2597 4934 2840 
Q 4756 3084 4391 3084 
Q 3944 3084 3684 2787 
Q 3425 2491 3425 1978 
L 3425 0 
L 2847 0 
L 2847 2094 
Q 2847 2600 2669 2842 
Q 2491 3084 2119 3084 
Q 1678 3084 1418 2786 
Q 1159 2488 1159 1978 
L 1159 0 
L 581 0 
L 581 3500 
L 1159 3500 
L 1159 2956 
Q 1356 3278 1631 3431 
Q 1906 3584 2284 3584 
Q 2666 3584 2933 3390 
Q 3200 3197 3328 2828 
z
" transform="scale(0.015625)"/>
       <path id="DejaVuSans-62" d="M 3116 1747 
Q 3116 2381 2855 2742 
Q 2594 3103 2138 3103 
Q 1681 3103 1420 2742 
Q 1159 2381 1159 1747 
Q 1159 1113 1420 752 
Q 1681 391 2138 391 
Q 2594 391 2855 752 
Q 3116 1113 3116 1747 
z
M 1159 2969 
Q 1341 3281 1617 3432 
Q 1894 3584 2278 3584 
Q 2916 3584 3314 3078 
Q 3713 2572 3713 1747 
Q 3713 922 3314 415 
Q 2916 -91 2278 -91 
Q 1894 -91 1617 61 
Q 1341 213 1159 525 
L 1159 0 
L 581 0 
L 581 4863 
L 1159 4863 
L 1159 2969 
z
" transform="scale(0.015625)"/>
       <path id="DejaVuSans-6c" d="M 603 4863 
L 1178 4863 
L 1178 0 
L 603 0 
L 603 4863 
z
" transform="scale(0.015625)"/>
       <path id="DejaVuSans-79" d="M 2059 -325 
Q 1816 -950 1584 -1140 
Q 1353 -1331 966 -1331 
L 506 -1331 
L 506 -850 
L 844 -850 
Q 1081 -850 1212 -737 
Q 1344 -625 1503 -206 
L 1606 56 
L 191 3500 
L 800 3500 
L 1894 763 
L 2988 3500 
L 3597 3500 
L 2059 -325 
z
" transform="scale(0.015625)"/>
       <path id="DejaVuSans-6f" d="M 1959 3097 
Q 1497 3097 1228 2736 
Q 959 2375 959 1747 
Q 959 1119 1226 758 
Q 1494 397 1959 397 
Q 2419 397 2687 759 
Q 2956 1122 2956 1747 
Q 2956 2369 2687 2733 
Q 2419 3097 1959 3097 
z
M 1959 3584 
Q 2709 3584 3137 3096 
Q 3566 2609 3566 1747 
Q 3566 888 3137 398 
Q 2709 -91 1959 -91 
Q 1206 -91 779 398 
Q 353 888 353 1747 
Q 353 2609 779 3096 
Q 1206 3584 1959 3584 
z
" transform="scale(0.015625)"/>
       <path id="DejaVuSans-72" d="M 2631 2963 
Q 2534 3019 2420 3045 
Q 2306 3072 2169 3072 
Q 1681 3072 1420 2755 
Q 1159 2438 1159 1844 
L 1159 0 
L 581 0 
L 581 3500 
L 1159 3500 
L 1159 2956 
Q 1341 3275 1631 3429 
Q 1922 3584 2338 3584 
Q 2397 3584 2469 3576 
Q 2541 3569 2628 3553 
L 2631 2963 
z
" transform="scale(0.015625)"/>
       <path id="DejaVuSans-4d" d="M 628 4666 
L 1569 4666 
L 2759 1491 
L 3956 4666 
L 4897 4666 
L 4897 0 
L 4281 0 
L 4281 4097 
L 3078 897 
L 2444 897 
L 1241 4097 
L 1241 0 
L 628 0 
L 628 4666 
z
" transform="scale(0.015625)"/>
       <path id="DejaVuSans-61" d="M 2194 1759 
Q 1497 1759 1228 1600 
Q 959 1441 959 1056 
Q 959 750 1161 570 
Q 1363 391 1709 391 
Q 2188 391 2477 730 
Q 2766 1069 2766 1631 
L 2766 1759 
L 2194 1759 
z
M 3341 1997 
L 3341 0 
L 2766 0 
L 2766 531 
Q 2569 213 2275 61 
Q 1981 -91 1556 -91 
Q 1019 -91 701 211 
Q 384 513 384 1019 
Q 384 1609 779 1909 
Q 1175 2209 1959 2209 
L 2766 2209 
L 2766 2266 
Q 2766 2663 2505 2880 
Q 2244 3097 1772 3097 
Q 1472 3097 1187 3025 
Q 903 2953 641 2809 
L 641 3341 
Q 956 3463 1253 3523 
Q 1550 3584 1831 3584 
Q 2591 3584 2966 3190 
Q 3341 2797 3341 1997 
z
" transform="scale(0.015625)"/>
       <path id="DejaVuSans-74" d="M 1172 4494 
L 1172 3500 
L 2356 3500 
L 2356 3053 
L 1172 3053 
L 1172 1153 
Q 1172 725 1289 603 
Q 1406 481 1766 481 
L 2356 481 
L 2356 0 
L 1766 0 
Q 1100 0 847 248 
Q 594 497 594 1153 
L 594 3053 
L 172 3053 
L 172 3500 
L 594 3500 
L 594 4494 
L 1172 4494 
z
" transform="scale(0.015625)"/>
       <path id="DejaVuSans-63" d="M 3122 3366 
L 3122 2828 
Q 2878 2963 2633 3030 
Q 2388 3097 2138 3097 
Q 1578 3097 1268 2742 
Q 959 2388 959 1747 
Q 959 1106 1268 751 
Q 1578 397 2138 397 
Q 2388 397 2633 464 
Q 2878 531 3122 666 
L 3122 134 
Q 2881 22 2623 -34 
Q 2366 -91 2075 -91 
Q 1284 -91 818 406 
Q 353 903 353 1747 
Q 353 2603 823 3093 
Q 1294 3584 2113 3584 
Q 2378 3584 2631 3529 
Q 2884 3475 3122 3366 
z
" transform="scale(0.015625)"/>
       <path id="DejaVuSans-68" d="M 3513 2113 
L 3513 0 
L 2938 0 
L 2938 2094 
Q 2938 2591 2744 2837 
Q 2550 3084 2163 3084 
Q 1697 3084 1428 2787 
Q 1159 2491 1159 1978 
L 1159 0 
L 581 0 
L 581 4863 
L 1159 4863 
L 1159 2956 
Q 1366 3272 1645 3428 
Q 1925 3584 2291 3584 
Q 2894 3584 3203 3211 
Q 3513 2838 3513 2113 
z
" transform="scale(0.015625)"/>
       <path id="DejaVuSans-64" d="M 2906 2969 
L 2906 4863 
L 3481 4863 
L 3481 0 
L 2906 0 
L 2906 525 
Q 2725 213 2448 61 
Q 2172 -91 1784 -91 
Q 1150 -91 751 415 
Q 353 922 353 1747 
Q 353 2572 751 3078 
Q 1150 3584 1784 3584 
Q 2172 3584 2448 3432 
Q 2725 3281 2906 2969 
z
M 947 1747 
Q 947 1113 1208 752 
Q 1469 391 1925 391 
Q 2381 391 2643 752 
Q 2906 1113 2906 1747 
Q 2906 2381 2643 2742 
Q 2381 3103 1925 3103 
Q 1469 3103 1208 2742 
Q 947 2381 947 1747 
z
" transform="scale(0.015625)"/>
       <path id="DejaVuSans-52" d="M 2841 2188 
Q 3044 2119 3236 1894 
Q 3428 1669 3622 1275 
L 4263 0 
L 3584 0 
L 2988 1197 
Q 2756 1666 2539 1819 
Q 2322 1972 1947 1972 
L 1259 1972 
L 1259 0 
L 628 0 
L 628 4666 
L 2053 4666 
Q 2853 4666 3247 4331 
Q 3641 3997 3641 3322 
Q 3641 2881 3436 2590 
Q 3231 2300 2841 2188 
z
M 1259 4147 
L 1259 2491 
L 2053 2491 
Q 2509 2491 2742 2702 
Q 2975 2913 2975 3322 
Q 2975 3731 2742 3939 
Q 2509 4147 2053 4147 
L 1259 4147 
z
" transform="scale(0.015625)"/>
       <path id="DejaVuSans-6e" d="M 3513 2113 
L 3513 0 
L 2938 0 
L 2938 2094 
Q 2938 2591 2744 2837 
Q 2550 3084 2163 3084 
Q 1697 3084 1428 2787 
Q 1159 2491 1159 1978 
L 1159 0 
L 581 0 
L 581 3500 
L 1159 3500 
L 1159 2956 
Q 1366 3272 1645 3428 
Q 1925 3584 2291 3584 
Q 2894 3584 3203 3211 
Q 3513 2838 3513 2113 
z
" transform="scale(0.015625)"/>
       <path id="DejaVuSans-45" d="M 628 4666 
L 3578 4666 
L 3578 4134 
L 1259 4134 
L 1259 2753 
L 3481 2753 
L 3481 2222 
L 1259 2222 
L 1259 531 
L 3634 531 
L 3634 0 
L 628 0 
L 628 4666 
z
" transform="scale(0.015625)"/>
      </defs>
      <use xlink:href="#DejaVuSans-41"/>
      <use xlink:href="#DejaVuSans-73" x="68.408203"/>
      <use xlink:href="#DejaVuSans-73" x="120.507812"/>
      <use xlink:href="#DejaVuSans-65" x="172.607422"/>
      <use xlink:href="#DejaVuSans-6d" x="234.130859"/>
      <use xlink:href="#DejaVuSans-62" x="331.542969"/>
      <use xlink:href="#DejaVuSans-6c" x="395.019531"/>
      <use xlink:href="#DejaVuSans-79" x="422.802734"/>
      <use xlink:href="#DejaVuSans-20" x="481.982422"/>
      <use xlink:href="#DejaVuSans-6f" x="513.769531"/>
      <use xlink:href="#DejaVuSans-72" x="574.951172"/>
      <use xlink:href="#DejaVuSans-20" x="616.064453"/>
      <use xlink:href="#DejaVuSans-4d" x="647.851562"/>
      <use xlink:href="#DejaVuSans-61" x="734.130859"/>
      <use xlink:href="#DejaVuSans-74" x="795.410156"/>
      <use xlink:href="#DejaVuSans-63" x="834.619141"/>
      <use xlink:href="#DejaVuSans-68" x="889.599609"/>
      <use xlink:href="#DejaVuSans-65" x="952.978516"/>
      <use xlink:href="#DejaVuSans-64" x="1014.501953"/>
      <use xlink:href="#DejaVuSans-20" x="1077.978516"/>
      <use xlink:href="#DejaVuSans-52" x="1109.765625"/>
      <use xlink:href="#DejaVuSans-61" x="1176.998047"/>
      <use xlink:href="#DejaVuSans-6e" x="1238.277344"/>
      <use xlink:href="#DejaVuSans-64" x="1301.65625"/>
      <use xlink:href="#DejaVuSans-6f" x="1365.132812"/>
      <use xlink:href="#DejaVuSans-6d" x="1426.314453"/>
      <use xlink:href="#DejaVuSans-20" x="1523.726562"/>
      <use xlink:href="#DejaVuSans-45" x="1555.513672"/>
      <use xlink:href="#DejaVuSans-6e" x="1618.697266"/>
      <use xlink:href="#DejaVuSans-73" x="1682.076172"/>
      <use xlink:href="#DejaVuSans-65" x="1734.175781"/>
      <use xlink:href="#DejaVuSans-6d" x="1795.699219"/>
      <use xlink:href="#DejaVuSans-62" x="1893.111328"/>
      <use xlink:href="#DejaVuSans-6c" x="1956.587891"/>
      <use xlink:href="#DejaVuSans-65" x="1984.371094"/>
     </g>
    </g>
   </g>
   <g id="matplotlib.axis_2">
    <g id="ytick_1">
     <g id="line2d_1">
      <path d="M 81.99 407.386724 
L 702.443362 407.386724 
" clip-path="url(#p0eb7f448f8)" style="fill: none; stroke: #cccccc; stroke-linecap: round"/>
     </g>
     <g id="text_17">
      <!-- 0.0 -->
      <g style="fill: #262626" transform="translate(40.68375 414.985162) scale(0.2 -0.2)">
       <defs>
        <path id="DejaVuSans-2e" d="M 684 794 
L 1344 794 
L 1344 0 
L 684 0 
L 684 794 
z
" transform="scale(0.015625)"/>
       </defs>
       <use xlink:href="#DejaVuSans-30"/>
       <use xlink:href="#DejaVuSans-2e" x="63.623047"/>
       <use xlink:href="#DejaVuSans-30" x="95.410156"/>
      </g>
     </g>
    </g>
    <g id="ytick_2">
     <g id="line2d_2">
      <path d="M 81.99 338.946179 
L 702.443362 338.946179 
" clip-path="url(#p0eb7f448f8)" style="fill: none; stroke: #cccccc; stroke-linecap: round"/>
     </g>
     <g id="text_18">
      <!-- 0.2 -->
      <g style="fill: #262626" transform="translate(40.68375 346.544617) scale(0.2 -0.2)">
       <use xlink:href="#DejaVuSans-30"/>
       <use xlink:href="#DejaVuSans-2e" x="63.623047"/>
       <use xlink:href="#DejaVuSans-32" x="95.410156"/>
      </g>
     </g>
    </g>
    <g id="ytick_3">
     <g id="line2d_3">
      <path d="M 81.99 270.505634 
L 702.443362 270.505634 
" clip-path="url(#p0eb7f448f8)" style="fill: none; stroke: #cccccc; stroke-linecap: round"/>
     </g>
     <g id="text_19">
      <!-- 0.4 -->
      <g style="fill: #262626" transform="translate(40.68375 278.104072) scale(0.2 -0.2)">
       <use xlink:href="#DejaVuSans-30"/>
       <use xlink:href="#DejaVuSans-2e" x="63.623047"/>
       <use xlink:href="#DejaVuSans-34" x="95.410156"/>
      </g>
     </g>
    </g>
    <g id="ytick_4">
     <g id="line2d_4">
      <path d="M 81.99 202.06509 
L 702.443362 202.06509 
" clip-path="url(#p0eb7f448f8)" style="fill: none; stroke: #cccccc; stroke-linecap: round"/>
     </g>
     <g id="text_20">
      <!-- 0.6 -->
      <g style="fill: #262626" transform="translate(40.68375 209.663527) scale(0.2 -0.2)">
       <use xlink:href="#DejaVuSans-30"/>
       <use xlink:href="#DejaVuSans-2e" x="63.623047"/>
       <use xlink:href="#DejaVuSans-36" x="95.410156"/>
      </g>
     </g>
    </g>
    <g id="ytick_5">
     <g id="line2d_5">
      <path d="M 81.99 133.624545 
L 702.443362 133.624545 
" clip-path="url(#p0eb7f448f8)" style="fill: none; stroke: #cccccc; stroke-linecap: round"/>
     </g>
     <g id="text_21">
      <!-- 0.8 -->
      <g style="fill: #262626" transform="translate(40.68375 141.222982) scale(0.2 -0.2)">
       <use xlink:href="#DejaVuSans-30"/>
       <use xlink:href="#DejaVuSans-2e" x="63.623047"/>
       <use xlink:href="#DejaVuSans-38" x="95.410156"/>
      </g>
     </g>
    </g>
    <g id="ytick_6">
     <g id="line2d_6">
      <path d="M 81.99 65.184 
L 702.443362 65.184 
" clip-path="url(#p0eb7f448f8)" style="fill: none; stroke: #cccccc; stroke-linecap: round"/>
     </g>
     <g id="text_22">
      <!-- 1.0 -->
      <g style="fill: #262626" transform="translate(40.68375 72.782437) scale(0.2 -0.2)">
       <use xlink:href="#DejaVuSans-31"/>
       <use xlink:href="#DejaVuSans-2e" x="63.623047"/>
       <use xlink:href="#DejaVuSans-30" x="95.410156"/>
      </g>
     </g>
    </g>
    <g id="text_23">
     <!-- Gini Coefficient -->
     <g style="fill: #262626" transform="translate(31.6925 328.182862) rotate(-90) scale(0.24 -0.24)">
      <defs>
       <path id="DejaVuSans-47" d="M 3809 666 
L 3809 1919 
L 2778 1919 
L 2778 2438 
L 4434 2438 
L 4434 434 
Q 4069 175 3628 42 
Q 3188 -91 2688 -91 
Q 1594 -91 976 548 
Q 359 1188 359 2328 
Q 359 3472 976 4111 
Q 1594 4750 2688 4750 
Q 3144 4750 3555 4637 
Q 3966 4525 4313 4306 
L 4313 3634 
Q 3963 3931 3569 4081 
Q 3175 4231 2741 4231 
Q 1884 4231 1454 3753 
Q 1025 3275 1025 2328 
Q 1025 1384 1454 906 
Q 1884 428 2741 428 
Q 3075 428 3337 486 
Q 3600 544 3809 666 
z
" transform="scale(0.015625)"/>
       <path id="DejaVuSans-69" d="M 603 3500 
L 1178 3500 
L 1178 0 
L 603 0 
L 603 3500 
z
M 603 4863 
L 1178 4863 
L 1178 4134 
L 603 4134 
L 603 4863 
z
" transform="scale(0.015625)"/>
       <path id="DejaVuSans-43" d="M 4122 4306 
L 4122 3641 
Q 3803 3938 3442 4084 
Q 3081 4231 2675 4231 
Q 1875 4231 1450 3742 
Q 1025 3253 1025 2328 
Q 1025 1406 1450 917 
Q 1875 428 2675 428 
Q 3081 428 3442 575 
Q 3803 722 4122 1019 
L 4122 359 
Q 3791 134 3420 21 
Q 3050 -91 2638 -91 
Q 1578 -91 968 557 
Q 359 1206 359 2328 
Q 359 3453 968 4101 
Q 1578 4750 2638 4750 
Q 3056 4750 3426 4639 
Q 3797 4528 4122 4306 
z
" transform="scale(0.015625)"/>
       <path id="DejaVuSans-66" d="M 2375 4863 
L 2375 4384 
L 1825 4384 
Q 1516 4384 1395 4259 
Q 1275 4134 1275 3809 
L 1275 3500 
L 2222 3500 
L 2222 3053 
L 1275 3053 
L 1275 0 
L 697 0 
L 697 3053 
L 147 3053 
L 147 3500 
L 697 3500 
L 697 3744 
Q 697 4328 969 4595 
Q 1241 4863 1831 4863 
L 2375 4863 
z
" transform="scale(0.015625)"/>
      </defs>
      <use xlink:href="#DejaVuSans-47"/>
      <use xlink:href="#DejaVuSans-69" x="77.490234"/>
      <use xlink:href="#DejaVuSans-6e" x="105.273438"/>
      <use xlink:href="#DejaVuSans-69" x="168.652344"/>
      <use xlink:href="#DejaVuSans-20" x="196.435547"/>
      <use xlink:href="#DejaVuSans-43" x="228.222656"/>
      <use xlink:href="#DejaVuSans-6f" x="298.046875"/>
      <use xlink:href="#DejaVuSans-65" x="359.228516"/>
      <use xlink:href="#DejaVuSans-66" x="420.751953"/>
      <use xlink:href="#DejaVuSans-66" x="455.957031"/>
      <use xlink:href="#DejaVuSans-69" x="491.162109"/>
      <use xlink:href="#DejaVuSans-63" x="518.945312"/>
      <use xlink:href="#DejaVuSans-69" x="573.925781"/>
      <use xlink:href="#DejaVuSans-65" x="601.708984"/>
      <use xlink:href="#DejaVuSans-6e" x="663.232422"/>
      <use xlink:href="#DejaVuSans-74" x="726.611328"/>
     </g>
    </g>
   </g>
   <g id="patch_3">
    <path d="M 86.126356 407.386724 
L 102.671779 407.386724 
L 102.671779 218.95049 
L 86.126356 218.95049 
z
" clip-path="url(#p0eb7f448f8)" style="fill: #aeccdb; stroke: #ffffff; stroke-linejoin: miter"/>
   </g>
   <g id="patch_4">
    <path d="M 127.489913 407.386724 
L 144.035336 407.386724 
L 144.035336 212.6536 
L 127.489913 212.6536 
z
" clip-path="url(#p0eb7f448f8)" style="fill: #aeccdb; stroke: #ffffff; stroke-linejoin: miter"/>
   </g>
   <g id="patch_5">
    <path d="M 168.853471 407.386724 
L 185.398894 407.386724 
L 185.398894 184.909741 
L 168.853471 184.909741 
z
" clip-path="url(#p0eb7f448f8)" style="fill: #aeccdb; stroke: #ffffff; stroke-linejoin: miter"/>
   </g>
   <g id="patch_6">
    <path d="M 210.217028 407.386724 
L 226.762451 407.386724 
L 226.762451 166.642949 
L 210.217028 166.642949 
z
" clip-path="url(#p0eb7f448f8)" style="fill: #aeccdb; stroke: #ffffff; stroke-linejoin: miter"/>
   </g>
   <g id="patch_7">
    <path d="M 251.580586 407.386724 
L 268.126009 407.386724 
L 268.126009 172.736028 
L 251.580586 172.736028 
z
" clip-path="url(#p0eb7f448f8)" style="fill: #aeccdb; stroke: #ffffff; stroke-linejoin: miter"/>
   </g>
   <g id="patch_8">
    <path d="M 292.944143 407.386724 
L 309.489566 407.386724 
L 309.489566 184.962384 
L 292.944143 184.962384 
z
" clip-path="url(#p0eb7f448f8)" style="fill: #aeccdb; stroke: #ffffff; stroke-linejoin: miter"/>
   </g>
   <g id="patch_9">
    <path d="M 334.307701 407.386724 
L 350.853124 407.386724 
L 350.853124 158.681475 
L 334.307701 158.681475 
z
" clip-path="url(#p0eb7f448f8)" style="fill: #aeccdb; stroke: #ffffff; stroke-linejoin: miter"/>
   </g>
   <g id="patch_10">
    <path d="M 375.671258 407.386724 
L 392.216681 407.386724 
L 392.216681 175.111745 
L 375.671258 175.111745 
z
" clip-path="url(#p0eb7f448f8)" style="fill: #aeccdb; stroke: #ffffff; stroke-linejoin: miter"/>
   </g>
   <g id="patch_11">
    <path d="M 417.034816 407.386724 
L 433.580238 407.386724 
L 433.580238 196.250712 
L 417.034816 196.250712 
z
" clip-path="url(#p0eb7f448f8)" style="fill: #aeccdb; stroke: #ffffff; stroke-linejoin: miter"/>
   </g>
   <g id="patch_12">
    <path d="M 458.398373 407.386724 
L 474.943796 407.386724 
L 474.943796 173.557305 
L 458.398373 173.557305 
z
" clip-path="url(#p0eb7f448f8)" style="fill: #aeccdb; stroke: #ffffff; stroke-linejoin: miter"/>
   </g>
   <g id="patch_13">
    <path d="M 499.76193 407.386724 
L 516.307353 407.386724 
L 516.307353 174.312442 
L 499.76193 174.312442 
z
" clip-path="url(#p0eb7f448f8)" style="fill: #aeccdb; stroke: #ffffff; stroke-linejoin: miter"/>
   </g>
   <g id="patch_14">
    <path d="M 541.125488 407.386724 
L 557.670911 407.386724 
L 557.670911 168.220078 
L 541.125488 168.220078 
z
" clip-path="url(#p0eb7f448f8)" style="fill: #aeccdb; stroke: #ffffff; stroke-linejoin: miter"/>
   </g>
   <g id="patch_15">
    <path d="M 582.489045 407.386724 
L 599.034468 407.386724 
L 599.034468 138.011303 
L 582.489045 138.011303 
z
" clip-path="url(#p0eb7f448f8)" style="fill: #aeccdb; stroke: #ffffff; stroke-linejoin: miter"/>
   </g>
   <g id="patch_16">
    <path d="M 623.852603 407.386724 
L 640.398026 407.386724 
L 640.398026 147.314746 
L 623.852603 147.314746 
z
" clip-path="url(#p0eb7f448f8)" style="fill: #aeccdb; stroke: #ffffff; stroke-linejoin: miter"/>
   </g>
   <g id="patch_17">
    <path d="M 665.21616 407.386724 
L 681.761583 407.386724 
L 681.761583 123.899061 
L 665.21616 123.899061 
z
" clip-path="url(#p0eb7f448f8)" style="fill: #aeccdb; stroke: #ffffff; stroke-linejoin: miter"/>
   </g>
   <g id="patch_18">
    <path d="M 102.671779 407.386724 
L 119.217202 407.386724 
L 119.217202 237.114675 
L 102.671779 237.114675 
z
" clip-path="url(#p0eb7f448f8)" style="fill: #3274a1; stroke: #ffffff; stroke-linejoin: miter"/>
   </g>
   <g id="patch_19">
    <path d="M 144.035336 407.386724 
L 160.580759 407.386724 
L 160.580759 234.086302 
L 144.035336 234.086302 
z
" clip-path="url(#p0eb7f448f8)" style="fill: #3274a1; stroke: #ffffff; stroke-linejoin: miter"/>
   </g>
   <g id="patch_20">
    <path d="M 185.398894 407.386724 
L 201.944317 407.386724 
L 201.944317 235.273286 
L 185.398894 235.273286 
z
" clip-path="url(#p0eb7f448f8)" style="fill: #3274a1; stroke: #ffffff; stroke-linejoin: miter"/>
   </g>
   <g id="patch_21">
    <path d="M 226.762451 407.386724 
L 243.307874 407.386724 
L 243.307874 232.302043 
L 226.762451 232.302043 
z
" clip-path="url(#p0eb7f448f8)" style="fill: #3274a1; stroke: #ffffff; stroke-linejoin: miter"/>
   </g>
   <g id="patch_22">
    <path d="M 268.126009 407.386724 
L 284.671432 407.386724 
L 284.671432 221.674878 
L 268.126009 221.674878 
z
" clip-path="url(#p0eb7f448f8)" style="fill: #3274a1; stroke: #ffffff; stroke-linejoin: miter"/>
   </g>
   <g id="patch_23">
    <path d="M 309.489566 407.386724 
L 326.034989 407.386724 
L 326.034989 226.235055 
L 309.489566 226.235055 
z
" clip-path="url(#p0eb7f448f8)" style="fill: #3274a1; stroke: #ffffff; stroke-linejoin: miter"/>
   </g>
   <g id="patch_24">
    <path d="M 350.853124 407.386724 
L 367.398547 407.386724 
L 367.398547 223.898338 
L 350.853124 223.898338 
z
" clip-path="url(#p0eb7f448f8)" style="fill: #3274a1; stroke: #ffffff; stroke-linejoin: miter"/>
   </g>
   <g id="patch_25">
    <path d="M 392.216681 407.386724 
L 408.762104 407.386724 
L 408.762104 226.262131 
L 392.216681 226.262131 
z
" clip-path="url(#p0eb7f448f8)" style="fill: #3274a1; stroke: #ffffff; stroke-linejoin: miter"/>
   </g>
   <g id="patch_26">
    <path d="M 433.580238 407.386724 
L 450.125661 407.386724 
L 450.125661 221.189062 
L 433.580238 221.189062 
z
" clip-path="url(#p0eb7f448f8)" style="fill: #3274a1; stroke: #ffffff; stroke-linejoin: miter"/>
   </g>
   <g id="patch_27">
    <path d="M 474.943796 407.386724 
L 491.489219 407.386724 
L 491.489219 208.548606 
L 474.943796 208.548606 
z
" clip-path="url(#p0eb7f448f8)" style="fill: #3274a1; stroke: #ffffff; stroke-linejoin: miter"/>
   </g>
   <g id="patch_28">
    <path d="M 516.307353 407.386724 
L 532.852776 407.386724 
L 532.852776 222.914714 
L 516.307353 222.914714 
z
" clip-path="url(#p0eb7f448f8)" style="fill: #3274a1; stroke: #ffffff; stroke-linejoin: miter"/>
   </g>
   <g id="patch_29">
    <path d="M 557.670911 407.386724 
L 574.216334 407.386724 
L 574.216334 202.736418 
L 557.670911 202.736418 
z
" clip-path="url(#p0eb7f448f8)" style="fill: #3274a1; stroke: #ffffff; stroke-linejoin: miter"/>
   </g>
   <g id="patch_30">
    <path d="M 599.034468 407.386724 
L 615.579891 407.386724 
L 615.579891 200.988694 
L 599.034468 200.988694 
z
" clip-path="url(#p0eb7f448f8)" style="fill: #3274a1; stroke: #ffffff; stroke-linejoin: miter"/>
   </g>
   <g id="patch_31">
    <path d="M 640.398026 407.386724 
L 656.943449 407.386724 
L 656.943449 190.714804 
L 640.398026 190.714804 
z
" clip-path="url(#p0eb7f448f8)" style="fill: #3274a1; stroke: #ffffff; stroke-linejoin: miter"/>
   </g>
   <g id="patch_32">
    <path d="M 681.761583 407.386724 
L 698.307006 407.386724 
L 698.307006 160.352225 
L 681.761583 160.352225 
z
" clip-path="url(#p0eb7f448f8)" style="fill: #3274a1; stroke: #ffffff; stroke-linejoin: miter"/>
   </g>
   <g id="line2d_7">
    <path clip-path="url(#p0eb7f448f8)" style="fill: none; stroke: #424242; stroke-width: 2.7; stroke-linecap: round"/>
   </g>
   <g id="line2d_8">
    <path clip-path="url(#p0eb7f448f8)" style="fill: none; stroke: #424242; stroke-width: 2.7; stroke-linecap: round"/>
   </g>
   <g id="line2d_9">
    <path clip-path="url(#p0eb7f448f8)" style="fill: none; stroke: #424242; stroke-width: 2.7; stroke-linecap: round"/>
   </g>
   <g id="line2d_10">
    <path clip-path="url(#p0eb7f448f8)" style="fill: none; stroke: #424242; stroke-width: 2.7; stroke-linecap: round"/>
   </g>
   <g id="line2d_11">
    <path clip-path="url(#p0eb7f448f8)" style="fill: none; stroke: #424242; stroke-width: 2.7; stroke-linecap: round"/>
   </g>
   <g id="line2d_12">
    <path clip-path="url(#p0eb7f448f8)" style="fill: none; stroke: #424242; stroke-width: 2.7; stroke-linecap: round"/>
   </g>
   <g id="line2d_13">
    <path clip-path="url(#p0eb7f448f8)" style="fill: none; stroke: #424242; stroke-width: 2.7; stroke-linecap: round"/>
   </g>
   <g id="line2d_14">
    <path clip-path="url(#p0eb7f448f8)" style="fill: none; stroke: #424242; stroke-width: 2.7; stroke-linecap: round"/>
   </g>
   <g id="line2d_15">
    <path clip-path="url(#p0eb7f448f8)" style="fill: none; stroke: #424242; stroke-width: 2.7; stroke-linecap: round"/>
   </g>
   <g id="line2d_16">
    <path clip-path="url(#p0eb7f448f8)" style="fill: none; stroke: #424242; stroke-width: 2.7; stroke-linecap: round"/>
   </g>
   <g id="line2d_17">
    <path clip-path="url(#p0eb7f448f8)" style="fill: none; stroke: #424242; stroke-width: 2.7; stroke-linecap: round"/>
   </g>
   <g id="line2d_18">
    <path clip-path="url(#p0eb7f448f8)" style="fill: none; stroke: #424242; stroke-width: 2.7; stroke-linecap: round"/>
   </g>
   <g id="line2d_19">
    <path clip-path="url(#p0eb7f448f8)" style="fill: none; stroke: #424242; stroke-width: 2.7; stroke-linecap: round"/>
   </g>
   <g id="line2d_20">
    <path clip-path="url(#p0eb7f448f8)" style="fill: none; stroke: #424242; stroke-width: 2.7; stroke-linecap: round"/>
   </g>
   <g id="line2d_21">
    <path clip-path="url(#p0eb7f448f8)" style="fill: none; stroke: #424242; stroke-width: 2.7; stroke-linecap: round"/>
   </g>
   <g id="line2d_22">
    <path clip-path="url(#p0eb7f448f8)" style="fill: none; stroke: #424242; stroke-width: 2.7; stroke-linecap: round"/>
   </g>
   <g id="line2d_23">
    <path clip-path="url(#p0eb7f448f8)" style="fill: none; stroke: #424242; stroke-width: 2.7; stroke-linecap: round"/>
   </g>
   <g id="line2d_24">
    <path clip-path="url(#p0eb7f448f8)" style="fill: none; stroke: #424242; stroke-width: 2.7; stroke-linecap: round"/>
   </g>
   <g id="line2d_25">
    <path clip-path="url(#p0eb7f448f8)" style="fill: none; stroke: #424242; stroke-width: 2.7; stroke-linecap: round"/>
   </g>
   <g id="line2d_26">
    <path clip-path="url(#p0eb7f448f8)" style="fill: none; stroke: #424242; stroke-width: 2.7; stroke-linecap: round"/>
   </g>
   <g id="line2d_27">
    <path clip-path="url(#p0eb7f448f8)" style="fill: none; stroke: #424242; stroke-width: 2.7; stroke-linecap: round"/>
   </g>
   <g id="line2d_28">
    <path clip-path="url(#p0eb7f448f8)" style="fill: none; stroke: #424242; stroke-width: 2.7; stroke-linecap: round"/>
   </g>
   <g id="line2d_29">
    <path clip-path="url(#p0eb7f448f8)" style="fill: none; stroke: #424242; stroke-width: 2.7; stroke-linecap: round"/>
   </g>
   <g id="line2d_30">
    <path clip-path="url(#p0eb7f448f8)" style="fill: none; stroke: #424242; stroke-width: 2.7; stroke-linecap: round"/>
   </g>
   <g id="line2d_31">
    <path clip-path="url(#p0eb7f448f8)" style="fill: none; stroke: #424242; stroke-width: 2.7; stroke-linecap: round"/>
   </g>
   <g id="line2d_32">
    <path clip-path="url(#p0eb7f448f8)" style="fill: none; stroke: #424242; stroke-width: 2.7; stroke-linecap: round"/>
   </g>
   <g id="line2d_33">
    <path clip-path="url(#p0eb7f448f8)" style="fill: none; stroke: #424242; stroke-width: 2.7; stroke-linecap: round"/>
   </g>
   <g id="line2d_34">
    <path clip-path="url(#p0eb7f448f8)" style="fill: none; stroke: #424242; stroke-width: 2.7; stroke-linecap: round"/>
   </g>
   <g id="line2d_35">
    <path clip-path="url(#p0eb7f448f8)" style="fill: none; stroke: #424242; stroke-width: 2.7; stroke-linecap: round"/>
   </g>
   <g id="line2d_36">
    <path clip-path="url(#p0eb7f448f8)" style="fill: none; stroke: #424242; stroke-width: 2.7; stroke-linecap: round"/>
   </g>
   <g id="line2d_37">
    <path d="M 81.99 76.700966 
L 702.443362 76.700966 
" clip-path="url(#p0eb7f448f8)" style="fill: none; stroke-dasharray: 7.4,3.2; stroke-dashoffset: 0; stroke: #6495ed; stroke-width: 2"/>
   </g>
   <g id="line2d_38">
    <path clip-path="url(#p0eb7f448f8)" style="fill: none; stroke-dasharray: 7.4,3.2; stroke-dashoffset: 0; stroke: #708090; stroke-width: 2"/>
   </g>
   <g id="patch_33">
    <path d="M 81.99 407.386724 
L 81.99 65.184 
" style="fill: none; stroke: #cccccc; stroke-width: 1.25; stroke-linejoin: miter; stroke-linecap: square"/>
   </g>
   <g id="patch_34">
    <path d="M 702.443362 407.386724 
L 702.443362 65.184 
" style="fill: none; stroke: #cccccc; stroke-width: 1.25; stroke-linejoin: miter; stroke-linecap: square"/>
   </g>
   <g id="patch_35">
    <path d="M 81.99 407.386724 
L 702.443362 407.386724 
" style="fill: none; stroke: #cccccc; stroke-width: 1.25; stroke-linejoin: miter; stroke-linecap: square"/>
   </g>
   <g id="patch_36">
    <path d="M 81.99 65.184 
L 702.443362 65.184 
" style="fill: none; stroke: #cccccc; stroke-width: 1.25; stroke-linejoin: miter; stroke-linecap: square"/>
   </g>
   <g id="text_24">
    <!-- Assembly Cells Mean: 0.966 -->
    <g style="fill: #6495ed" transform="translate(474.943796 70.689564) scale(0.12 -0.12)">
     <defs>
      <path id="DejaVuSans-Bold-41" d="M 3419 850 
L 1538 850 
L 1241 0 
L 31 0 
L 1759 4666 
L 3194 4666 
L 4922 0 
L 3713 0 
L 3419 850 
z
M 1838 1716 
L 3116 1716 
L 2478 3572 
L 1838 1716 
z
" transform="scale(0.015625)"/>
      <path id="DejaVuSans-Bold-73" d="M 3272 3391 
L 3272 2541 
Q 2913 2691 2578 2766 
Q 2244 2841 1947 2841 
Q 1628 2841 1473 2761 
Q 1319 2681 1319 2516 
Q 1319 2381 1436 2309 
Q 1553 2238 1856 2203 
L 2053 2175 
Q 2913 2066 3209 1816 
Q 3506 1566 3506 1031 
Q 3506 472 3093 190 
Q 2681 -91 1863 -91 
Q 1516 -91 1145 -36 
Q 775 19 384 128 
L 384 978 
Q 719 816 1070 734 
Q 1422 653 1784 653 
Q 2113 653 2278 743 
Q 2444 834 2444 1013 
Q 2444 1163 2330 1236 
Q 2216 1309 1875 1350 
L 1678 1375 
Q 931 1469 631 1722 
Q 331 1975 331 2491 
Q 331 3047 712 3315 
Q 1094 3584 1881 3584 
Q 2191 3584 2531 3537 
Q 2872 3491 3272 3391 
z
" transform="scale(0.015625)"/>
      <path id="DejaVuSans-Bold-65" d="M 4031 1759 
L 4031 1441 
L 1416 1441 
Q 1456 1047 1700 850 
Q 1944 653 2381 653 
Q 2734 653 3104 758 
Q 3475 863 3866 1075 
L 3866 213 
Q 3469 63 3072 -14 
Q 2675 -91 2278 -91 
Q 1328 -91 801 392 
Q 275 875 275 1747 
Q 275 2603 792 3093 
Q 1309 3584 2216 3584 
Q 3041 3584 3536 3087 
Q 4031 2591 4031 1759 
z
M 2881 2131 
Q 2881 2450 2695 2645 
Q 2509 2841 2209 2841 
Q 1884 2841 1681 2658 
Q 1478 2475 1428 2131 
L 2881 2131 
z
" transform="scale(0.015625)"/>
      <path id="DejaVuSans-Bold-6d" d="M 3781 2919 
Q 3994 3244 4286 3414 
Q 4578 3584 4928 3584 
Q 5531 3584 5847 3212 
Q 6163 2841 6163 2131 
L 6163 0 
L 5038 0 
L 5038 1825 
Q 5041 1866 5042 1909 
Q 5044 1953 5044 2034 
Q 5044 2406 4934 2573 
Q 4825 2741 4581 2741 
Q 4263 2741 4089 2478 
Q 3916 2216 3909 1719 
L 3909 0 
L 2784 0 
L 2784 1825 
Q 2784 2406 2684 2573 
Q 2584 2741 2328 2741 
Q 2006 2741 1831 2477 
Q 1656 2213 1656 1722 
L 1656 0 
L 531 0 
L 531 3500 
L 1656 3500 
L 1656 2988 
Q 1863 3284 2130 3434 
Q 2397 3584 2719 3584 
Q 3081 3584 3359 3409 
Q 3638 3234 3781 2919 
z
" transform="scale(0.015625)"/>
      <path id="DejaVuSans-Bold-62" d="M 2400 722 
Q 2759 722 2948 984 
Q 3138 1247 3138 1747 
Q 3138 2247 2948 2509 
Q 2759 2772 2400 2772 
Q 2041 2772 1848 2508 
Q 1656 2244 1656 1747 
Q 1656 1250 1848 986 
Q 2041 722 2400 722 
z
M 1656 2988 
Q 1888 3294 2169 3439 
Q 2450 3584 2816 3584 
Q 3463 3584 3878 3070 
Q 4294 2556 4294 1747 
Q 4294 938 3878 423 
Q 3463 -91 2816 -91 
Q 2450 -91 2169 54 
Q 1888 200 1656 506 
L 1656 0 
L 538 0 
L 538 4863 
L 1656 4863 
L 1656 2988 
z
" transform="scale(0.015625)"/>
      <path id="DejaVuSans-Bold-6c" d="M 538 4863 
L 1656 4863 
L 1656 0 
L 538 0 
L 538 4863 
z
" transform="scale(0.015625)"/>
      <path id="DejaVuSans-Bold-79" d="M 78 3500 
L 1197 3500 
L 2138 1125 
L 2938 3500 
L 4056 3500 
L 2584 -331 
Q 2363 -916 2067 -1148 
Q 1772 -1381 1288 -1381 
L 641 -1381 
L 641 -647 
L 991 -647 
Q 1275 -647 1404 -556 
Q 1534 -466 1606 -231 
L 1638 -134 
L 78 3500 
z
" transform="scale(0.015625)"/>
      <path id="DejaVuSans-Bold-20" transform="scale(0.015625)"/>
      <path id="DejaVuSans-Bold-43" d="M 4288 256 
Q 3956 84 3597 -3 
Q 3238 -91 2847 -91 
Q 1681 -91 1000 561 
Q 319 1213 319 2328 
Q 319 3447 1000 4098 
Q 1681 4750 2847 4750 
Q 3238 4750 3597 4662 
Q 3956 4575 4288 4403 
L 4288 3438 
Q 3953 3666 3628 3772 
Q 3303 3878 2944 3878 
Q 2300 3878 1931 3465 
Q 1563 3053 1563 2328 
Q 1563 1606 1931 1193 
Q 2300 781 2944 781 
Q 3303 781 3628 887 
Q 3953 994 4288 1222 
L 4288 256 
z
" transform="scale(0.015625)"/>
      <path id="DejaVuSans-Bold-4d" d="M 588 4666 
L 2119 4666 
L 3181 2169 
L 4250 4666 
L 5778 4666 
L 5778 0 
L 4641 0 
L 4641 3413 
L 3566 897 
L 2803 897 
L 1728 3413 
L 1728 0 
L 588 0 
L 588 4666 
z
" transform="scale(0.015625)"/>
      <path id="DejaVuSans-Bold-61" d="M 2106 1575 
Q 1756 1575 1579 1456 
Q 1403 1338 1403 1106 
Q 1403 894 1545 773 
Q 1688 653 1941 653 
Q 2256 653 2472 879 
Q 2688 1106 2688 1447 
L 2688 1575 
L 2106 1575 
z
M 3816 1997 
L 3816 0 
L 2688 0 
L 2688 519 
Q 2463 200 2181 54 
Q 1900 -91 1497 -91 
Q 953 -91 614 226 
Q 275 544 275 1050 
Q 275 1666 698 1953 
Q 1122 2241 2028 2241 
L 2688 2241 
L 2688 2328 
Q 2688 2594 2478 2717 
Q 2269 2841 1825 2841 
Q 1466 2841 1156 2769 
Q 847 2697 581 2553 
L 581 3406 
Q 941 3494 1303 3539 
Q 1666 3584 2028 3584 
Q 2975 3584 3395 3211 
Q 3816 2838 3816 1997 
z
" transform="scale(0.015625)"/>
      <path id="DejaVuSans-Bold-6e" d="M 4056 2131 
L 4056 0 
L 2931 0 
L 2931 347 
L 2931 1631 
Q 2931 2084 2911 2256 
Q 2891 2428 2841 2509 
Q 2775 2619 2662 2680 
Q 2550 2741 2406 2741 
Q 2056 2741 1856 2470 
Q 1656 2200 1656 1722 
L 1656 0 
L 538 0 
L 538 3500 
L 1656 3500 
L 1656 2988 
Q 1909 3294 2193 3439 
Q 2478 3584 2822 3584 
Q 3428 3584 3742 3212 
Q 4056 2841 4056 2131 
z
" transform="scale(0.015625)"/>
      <path id="DejaVuSans-Bold-3a" d="M 716 3500 
L 1844 3500 
L 1844 2291 
L 716 2291 
L 716 3500 
z
M 716 1209 
L 1844 1209 
L 1844 0 
L 716 0 
L 716 1209 
z
" transform="scale(0.015625)"/>
      <path id="DejaVuSans-Bold-30" d="M 2944 2338 
Q 2944 3213 2780 3570 
Q 2616 3928 2228 3928 
Q 1841 3928 1675 3570 
Q 1509 3213 1509 2338 
Q 1509 1453 1675 1090 
Q 1841 728 2228 728 
Q 2613 728 2778 1090 
Q 2944 1453 2944 2338 
z
M 4147 2328 
Q 4147 1169 3647 539 
Q 3147 -91 2228 -91 
Q 1306 -91 806 539 
Q 306 1169 306 2328 
Q 306 3491 806 4120 
Q 1306 4750 2228 4750 
Q 3147 4750 3647 4120 
Q 4147 3491 4147 2328 
z
" transform="scale(0.015625)"/>
      <path id="DejaVuSans-Bold-2e" d="M 653 1209 
L 1778 1209 
L 1778 0 
L 653 0 
L 653 1209 
z
" transform="scale(0.015625)"/>
      <path id="DejaVuSans-Bold-39" d="M 641 103 
L 641 966 
Q 928 831 1190 764 
Q 1453 697 1709 697 
Q 2247 697 2547 995 
Q 2847 1294 2900 1881 
Q 2688 1725 2447 1647 
Q 2206 1569 1925 1569 
Q 1209 1569 770 1986 
Q 331 2403 331 3084 
Q 331 3838 820 4291 
Q 1309 4744 2131 4744 
Q 3044 4744 3544 4128 
Q 4044 3513 4044 2388 
Q 4044 1231 3459 570 
Q 2875 -91 1856 -91 
Q 1528 -91 1228 -42 
Q 928 6 641 103 
z
M 2125 2350 
Q 2441 2350 2600 2554 
Q 2759 2759 2759 3169 
Q 2759 3575 2600 3781 
Q 2441 3988 2125 3988 
Q 1809 3988 1650 3781 
Q 1491 3575 1491 3169 
Q 1491 2759 1650 2554 
Q 1809 2350 2125 2350 
z
" transform="scale(0.015625)"/>
      <path id="DejaVuSans-Bold-36" d="M 2316 2303 
Q 2000 2303 1842 2098 
Q 1684 1894 1684 1484 
Q 1684 1075 1842 870 
Q 2000 666 2316 666 
Q 2634 666 2792 870 
Q 2950 1075 2950 1484 
Q 2950 1894 2792 2098 
Q 2634 2303 2316 2303 
z
M 3803 4544 
L 3803 3681 
Q 3506 3822 3243 3889 
Q 2981 3956 2731 3956 
Q 2194 3956 1894 3657 
Q 1594 3359 1544 2772 
Q 1750 2925 1990 3001 
Q 2231 3078 2516 3078 
Q 3231 3078 3670 2659 
Q 4109 2241 4109 1563 
Q 4109 813 3618 361 
Q 3128 -91 2303 -91 
Q 1394 -91 895 523 
Q 397 1138 397 2266 
Q 397 3422 980 4083 
Q 1563 4744 2578 4744 
Q 2900 4744 3203 4694 
Q 3506 4644 3803 4544 
z
" transform="scale(0.015625)"/>
     </defs>
     <use xlink:href="#DejaVuSans-Bold-41"/>
     <use xlink:href="#DejaVuSans-Bold-73" x="77.392578"/>
     <use xlink:href="#DejaVuSans-Bold-73" x="136.914062"/>
     <use xlink:href="#DejaVuSans-Bold-65" x="196.435547"/>
     <use xlink:href="#DejaVuSans-Bold-6d" x="264.257812"/>
     <use xlink:href="#DejaVuSans-Bold-62" x="368.457031"/>
     <use xlink:href="#DejaVuSans-Bold-6c" x="440.039062"/>
     <use xlink:href="#DejaVuSans-Bold-79" x="474.316406"/>
     <use xlink:href="#DejaVuSans-Bold-20" x="539.501953"/>
     <use xlink:href="#DejaVuSans-Bold-43" x="574.316406"/>
     <use xlink:href="#DejaVuSans-Bold-65" x="647.705078"/>
     <use xlink:href="#DejaVuSans-Bold-6c" x="715.527344"/>
     <use xlink:href="#DejaVuSans-Bold-6c" x="749.804688"/>
     <use xlink:href="#DejaVuSans-Bold-73" x="784.082031"/>
     <use xlink:href="#DejaVuSans-Bold-20" x="843.603516"/>
     <use xlink:href="#DejaVuSans-Bold-4d" x="878.417969"/>
     <use xlink:href="#DejaVuSans-Bold-65" x="977.929688"/>
     <use xlink:href="#DejaVuSans-Bold-61" x="1045.751953"/>
     <use xlink:href="#DejaVuSans-Bold-6e" x="1113.232422"/>
     <use xlink:href="#DejaVuSans-Bold-3a" x="1184.423828"/>
     <use xlink:href="#DejaVuSans-Bold-20" x="1224.414062"/>
     <use xlink:href="#DejaVuSans-Bold-30" x="1259.228516"/>
     <use xlink:href="#DejaVuSans-Bold-2e" x="1328.808594"/>
     <use xlink:href="#DejaVuSans-Bold-39" x="1366.796875"/>
     <use xlink:href="#DejaVuSans-Bold-36" x="1436.376953"/>
     <use xlink:href="#DejaVuSans-Bold-36" x="1505.957031"/>
    </g>
   </g>
   <g id="text_25">
    <g id="text_26">
     <!-- 0.55 -->
     <g style="fill: #262626" transform="translate(98.262192 205.720802) rotate(-90) scale(0.14 -0.14)">
      <defs>
       <path id="DejaVuSans-Bold-35" d="M 678 4666 
L 3669 4666 
L 3669 3781 
L 1638 3781 
L 1638 3059 
Q 1775 3097 1914 3117 
Q 2053 3138 2203 3138 
Q 3056 3138 3531 2711 
Q 4006 2284 4006 1522 
Q 4006 766 3489 337 
Q 2972 -91 2053 -91 
Q 1656 -91 1267 -14 
Q 878 63 494 219 
L 494 1166 
Q 875 947 1217 837 
Q 1559 728 1863 728 
Q 2300 728 2551 942 
Q 2803 1156 2803 1522 
Q 2803 1891 2551 2103 
Q 2300 2316 1863 2316 
Q 1603 2316 1309 2248 
Q 1016 2181 678 2041 
L 678 4666 
z
" transform="scale(0.015625)"/>
      </defs>
      <use xlink:href="#DejaVuSans-Bold-30"/>
      <use xlink:href="#DejaVuSans-Bold-2e" x="69.580078"/>
      <use xlink:href="#DejaVuSans-Bold-35" x="107.568359"/>
      <use xlink:href="#DejaVuSans-Bold-35" x="177.148438"/>
     </g>
    </g>
    <g id="text_27">
     <!-- 0.57 -->
     <g style="fill: #262626" transform="translate(139.62575 199.423912) rotate(-90) scale(0.14 -0.14)">
      <defs>
       <path id="DejaVuSans-Bold-37" d="M 428 4666 
L 3944 4666 
L 3944 3988 
L 2125 0 
L 953 0 
L 2675 3781 
L 428 3781 
L 428 4666 
z
" transform="scale(0.015625)"/>
      </defs>
      <use xlink:href="#DejaVuSans-Bold-30"/>
      <use xlink:href="#DejaVuSans-Bold-2e" x="69.580078"/>
      <use xlink:href="#DejaVuSans-Bold-35" x="107.568359"/>
      <use xlink:href="#DejaVuSans-Bold-37" x="177.148438"/>
     </g>
    </g>
    <g id="text_28">
     <!-- 0.65 -->
     <g style="fill: #262626" transform="translate(180.989307 171.680054) rotate(-90) scale(0.14 -0.14)">
      <use xlink:href="#DejaVuSans-Bold-30"/>
      <use xlink:href="#DejaVuSans-Bold-2e" x="69.580078"/>
      <use xlink:href="#DejaVuSans-Bold-36" x="107.568359"/>
      <use xlink:href="#DejaVuSans-Bold-35" x="177.148438"/>
     </g>
    </g>
    <g id="text_29">
     <!-- 0.70 -->
     <g style="fill: #262626" transform="translate(222.352865 153.413262) rotate(-90) scale(0.14 -0.14)">
      <use xlink:href="#DejaVuSans-Bold-30"/>
      <use xlink:href="#DejaVuSans-Bold-2e" x="69.580078"/>
      <use xlink:href="#DejaVuSans-Bold-37" x="107.568359"/>
      <use xlink:href="#DejaVuSans-Bold-30" x="177.148438"/>
     </g>
    </g>
    <g id="text_30">
     <!-- 0.69 -->
     <g style="fill: #262626" transform="translate(263.716422 159.506341) rotate(-90) scale(0.14 -0.14)">
      <use xlink:href="#DejaVuSans-Bold-30"/>
      <use xlink:href="#DejaVuSans-Bold-2e" x="69.580078"/>
      <use xlink:href="#DejaVuSans-Bold-36" x="107.568359"/>
      <use xlink:href="#DejaVuSans-Bold-39" x="177.148438"/>
     </g>
    </g>
    <g id="text_31">
     <!-- 0.65 -->
     <g style="fill: #262626" transform="translate(305.07998 171.732697) rotate(-90) scale(0.14 -0.14)">
      <use xlink:href="#DejaVuSans-Bold-30"/>
      <use xlink:href="#DejaVuSans-Bold-2e" x="69.580078"/>
      <use xlink:href="#DejaVuSans-Bold-36" x="107.568359"/>
      <use xlink:href="#DejaVuSans-Bold-35" x="177.148438"/>
     </g>
    </g>
    <g id="text_32">
     <!-- 0.73 -->
     <g style="fill: #262626" transform="translate(346.443537 145.451788) rotate(-90) scale(0.14 -0.14)">
      <defs>
       <path id="DejaVuSans-Bold-33" d="M 2981 2516 
Q 3453 2394 3698 2092 
Q 3944 1791 3944 1325 
Q 3944 631 3412 270 
Q 2881 -91 1863 -91 
Q 1503 -91 1142 -33 
Q 781 25 428 141 
L 428 1069 
Q 766 900 1098 814 
Q 1431 728 1753 728 
Q 2231 728 2486 893 
Q 2741 1059 2741 1369 
Q 2741 1688 2480 1852 
Q 2219 2016 1709 2016 
L 1228 2016 
L 1228 2791 
L 1734 2791 
Q 2188 2791 2409 2933 
Q 2631 3075 2631 3366 
Q 2631 3634 2415 3781 
Q 2200 3928 1806 3928 
Q 1516 3928 1219 3862 
Q 922 3797 628 3669 
L 628 4550 
Q 984 4650 1334 4700 
Q 1684 4750 2022 4750 
Q 2931 4750 3382 4451 
Q 3834 4153 3834 3553 
Q 3834 3144 3618 2883 
Q 3403 2622 2981 2516 
z
" transform="scale(0.015625)"/>
      </defs>
      <use xlink:href="#DejaVuSans-Bold-30"/>
      <use xlink:href="#DejaVuSans-Bold-2e" x="69.580078"/>
      <use xlink:href="#DejaVuSans-Bold-37" x="107.568359"/>
      <use xlink:href="#DejaVuSans-Bold-33" x="177.148438"/>
     </g>
    </g>
    <g id="text_33">
     <!-- 0.68 -->
     <g style="fill: #262626" transform="translate(387.807095 161.882058) rotate(-90) scale(0.14 -0.14)">
      <defs>
       <path id="DejaVuSans-Bold-38" d="M 2228 2088 
Q 1891 2088 1709 1903 
Q 1528 1719 1528 1375 
Q 1528 1031 1709 848 
Q 1891 666 2228 666 
Q 2563 666 2741 848 
Q 2919 1031 2919 1375 
Q 2919 1722 2741 1905 
Q 2563 2088 2228 2088 
z
M 1350 2484 
Q 925 2613 709 2878 
Q 494 3144 494 3541 
Q 494 4131 934 4440 
Q 1375 4750 2228 4750 
Q 3075 4750 3515 4442 
Q 3956 4134 3956 3541 
Q 3956 3144 3739 2878 
Q 3522 2613 3097 2484 
Q 3572 2353 3814 2058 
Q 4056 1763 4056 1313 
Q 4056 619 3595 264 
Q 3134 -91 2228 -91 
Q 1319 -91 855 264 
Q 391 619 391 1313 
Q 391 1763 633 2058 
Q 875 2353 1350 2484 
z
M 1631 3419 
Q 1631 3141 1786 2991 
Q 1941 2841 2228 2841 
Q 2509 2841 2662 2991 
Q 2816 3141 2816 3419 
Q 2816 3697 2662 3845 
Q 2509 3994 2228 3994 
Q 1941 3994 1786 3844 
Q 1631 3694 1631 3419 
z
" transform="scale(0.015625)"/>
      </defs>
      <use xlink:href="#DejaVuSans-Bold-30"/>
      <use xlink:href="#DejaVuSans-Bold-2e" x="69.580078"/>
      <use xlink:href="#DejaVuSans-Bold-36" x="107.568359"/>
      <use xlink:href="#DejaVuSans-Bold-38" x="177.148438"/>
     </g>
    </g>
    <g id="text_34">
     <!-- 0.62 -->
     <g style="fill: #262626" transform="translate(429.170652 183.021024) rotate(-90) scale(0.14 -0.14)">
      <defs>
       <path id="DejaVuSans-Bold-32" d="M 1844 884 
L 3897 884 
L 3897 0 
L 506 0 
L 506 884 
L 2209 2388 
Q 2438 2594 2547 2791 
Q 2656 2988 2656 3200 
Q 2656 3528 2436 3728 
Q 2216 3928 1850 3928 
Q 1569 3928 1234 3808 
Q 900 3688 519 3450 
L 519 4475 
Q 925 4609 1322 4679 
Q 1719 4750 2100 4750 
Q 2938 4750 3402 4381 
Q 3866 4013 3866 3353 
Q 3866 2972 3669 2642 
Q 3472 2313 2841 1759 
L 1844 884 
z
" transform="scale(0.015625)"/>
      </defs>
      <use xlink:href="#DejaVuSans-Bold-30"/>
      <use xlink:href="#DejaVuSans-Bold-2e" x="69.580078"/>
      <use xlink:href="#DejaVuSans-Bold-36" x="107.568359"/>
      <use xlink:href="#DejaVuSans-Bold-32" x="177.148438"/>
     </g>
    </g>
    <g id="text_35">
     <!-- 0.68 -->
     <g style="fill: #262626" transform="translate(470.534209 160.327618) rotate(-90) scale(0.14 -0.14)">
      <use xlink:href="#DejaVuSans-Bold-30"/>
      <use xlink:href="#DejaVuSans-Bold-2e" x="69.580078"/>
      <use xlink:href="#DejaVuSans-Bold-36" x="107.568359"/>
      <use xlink:href="#DejaVuSans-Bold-38" x="177.148438"/>
     </g>
    </g>
    <g id="text_36">
     <!-- 0.68 -->
     <g style="fill: #262626" transform="translate(511.897767 161.082755) rotate(-90) scale(0.14 -0.14)">
      <use xlink:href="#DejaVuSans-Bold-30"/>
      <use xlink:href="#DejaVuSans-Bold-2e" x="69.580078"/>
      <use xlink:href="#DejaVuSans-Bold-36" x="107.568359"/>
      <use xlink:href="#DejaVuSans-Bold-38" x="177.148438"/>
     </g>
    </g>
    <g id="text_37">
     <!-- 0.70 -->
     <g style="fill: #262626" transform="translate(553.261324 154.990391) rotate(-90) scale(0.14 -0.14)">
      <use xlink:href="#DejaVuSans-Bold-30"/>
      <use xlink:href="#DejaVuSans-Bold-2e" x="69.580078"/>
      <use xlink:href="#DejaVuSans-Bold-37" x="107.568359"/>
      <use xlink:href="#DejaVuSans-Bold-30" x="177.148438"/>
     </g>
    </g>
    <g id="text_38">
     <!-- 0.79 -->
     <g style="fill: #262626" transform="translate(594.624882 124.781615) rotate(-90) scale(0.14 -0.14)">
      <use xlink:href="#DejaVuSans-Bold-30"/>
      <use xlink:href="#DejaVuSans-Bold-2e" x="69.580078"/>
      <use xlink:href="#DejaVuSans-Bold-37" x="107.568359"/>
      <use xlink:href="#DejaVuSans-Bold-39" x="177.148438"/>
     </g>
    </g>
    <g id="text_39">
     <!-- 0.76 -->
     <g style="fill: #262626" transform="translate(635.988439 134.085059) rotate(-90) scale(0.14 -0.14)">
      <use xlink:href="#DejaVuSans-Bold-30"/>
      <use xlink:href="#DejaVuSans-Bold-2e" x="69.580078"/>
      <use xlink:href="#DejaVuSans-Bold-37" x="107.568359"/>
      <use xlink:href="#DejaVuSans-Bold-36" x="177.148438"/>
     </g>
    </g>
    <g id="text_40">
     <!-- 0.83 -->
     <g style="fill: #262626" transform="translate(677.351997 110.669373) rotate(-90) scale(0.14 -0.14)">
      <use xlink:href="#DejaVuSans-Bold-30"/>
      <use xlink:href="#DejaVuSans-Bold-2e" x="69.580078"/>
      <use xlink:href="#DejaVuSans-Bold-38" x="107.568359"/>
      <use xlink:href="#DejaVuSans-Bold-33" x="177.148438"/>
     </g>
    </g>
    <g id="text_41">
     <!-- 0.50 -->
     <g style="fill: #262626" transform="translate(114.807615 223.884988) rotate(-90) scale(0.14 -0.14)">
      <use xlink:href="#DejaVuSans-Bold-30"/>
      <use xlink:href="#DejaVuSans-Bold-2e" x="69.580078"/>
      <use xlink:href="#DejaVuSans-Bold-35" x="107.568359"/>
      <use xlink:href="#DejaVuSans-Bold-30" x="177.148438"/>
     </g>
    </g>
    <g id="text_42">
     <!-- 0.51 -->
     <g style="fill: #262626" transform="translate(156.171173 220.856615) rotate(-90) scale(0.14 -0.14)">
      <defs>
       <path id="DejaVuSans-Bold-31" d="M 750 831 
L 1813 831 
L 1813 3847 
L 722 3622 
L 722 4441 
L 1806 4666 
L 2950 4666 
L 2950 831 
L 4013 831 
L 4013 0 
L 750 0 
L 750 831 
z
" transform="scale(0.015625)"/>
      </defs>
      <use xlink:href="#DejaVuSans-Bold-30"/>
      <use xlink:href="#DejaVuSans-Bold-2e" x="69.580078"/>
      <use xlink:href="#DejaVuSans-Bold-35" x="107.568359"/>
      <use xlink:href="#DejaVuSans-Bold-31" x="177.148438"/>
     </g>
    </g>
    <g id="text_43">
     <!-- 0.50 -->
     <g style="fill: #262626" transform="translate(197.53473 222.043599) rotate(-90) scale(0.14 -0.14)">
      <use xlink:href="#DejaVuSans-Bold-30"/>
      <use xlink:href="#DejaVuSans-Bold-2e" x="69.580078"/>
      <use xlink:href="#DejaVuSans-Bold-35" x="107.568359"/>
      <use xlink:href="#DejaVuSans-Bold-30" x="177.148438"/>
     </g>
    </g>
    <g id="text_44">
     <!-- 0.51 -->
     <g style="fill: #262626" transform="translate(238.898288 219.072356) rotate(-90) scale(0.14 -0.14)">
      <use xlink:href="#DejaVuSans-Bold-30"/>
      <use xlink:href="#DejaVuSans-Bold-2e" x="69.580078"/>
      <use xlink:href="#DejaVuSans-Bold-35" x="107.568359"/>
      <use xlink:href="#DejaVuSans-Bold-31" x="177.148438"/>
     </g>
    </g>
    <g id="text_45">
     <!-- 0.54 -->
     <g style="fill: #262626" transform="translate(280.261845 208.445191) rotate(-90) scale(0.14 -0.14)">
      <defs>
       <path id="DejaVuSans-Bold-34" d="M 2356 3675 
L 1038 1722 
L 2356 1722 
L 2356 3675 
z
M 2156 4666 
L 3494 4666 
L 3494 1722 
L 4159 1722 
L 4159 850 
L 3494 850 
L 3494 0 
L 2356 0 
L 2356 850 
L 288 850 
L 288 1881 
L 2156 4666 
z
" transform="scale(0.015625)"/>
      </defs>
      <use xlink:href="#DejaVuSans-Bold-30"/>
      <use xlink:href="#DejaVuSans-Bold-2e" x="69.580078"/>
      <use xlink:href="#DejaVuSans-Bold-35" x="107.568359"/>
      <use xlink:href="#DejaVuSans-Bold-34" x="177.148438"/>
     </g>
    </g>
    <g id="text_46">
     <!-- 0.53 -->
     <g style="fill: #262626" transform="translate(321.625403 213.005367) rotate(-90) scale(0.14 -0.14)">
      <use xlink:href="#DejaVuSans-Bold-30"/>
      <use xlink:href="#DejaVuSans-Bold-2e" x="69.580078"/>
      <use xlink:href="#DejaVuSans-Bold-35" x="107.568359"/>
      <use xlink:href="#DejaVuSans-Bold-33" x="177.148438"/>
     </g>
    </g>
    <g id="text_47">
     <!-- 0.54 -->
     <g style="fill: #262626" transform="translate(362.98896 210.668651) rotate(-90) scale(0.14 -0.14)">
      <use xlink:href="#DejaVuSans-Bold-30"/>
      <use xlink:href="#DejaVuSans-Bold-2e" x="69.580078"/>
      <use xlink:href="#DejaVuSans-Bold-35" x="107.568359"/>
      <use xlink:href="#DejaVuSans-Bold-34" x="177.148438"/>
     </g>
    </g>
    <g id="text_48">
     <!-- 0.53 -->
     <g style="fill: #262626" transform="translate(404.352518 213.032444) rotate(-90) scale(0.14 -0.14)">
      <use xlink:href="#DejaVuSans-Bold-30"/>
      <use xlink:href="#DejaVuSans-Bold-2e" x="69.580078"/>
      <use xlink:href="#DejaVuSans-Bold-35" x="107.568359"/>
      <use xlink:href="#DejaVuSans-Bold-33" x="177.148438"/>
     </g>
    </g>
    <g id="text_49">
     <!-- 0.54 -->
     <g style="fill: #262626" transform="translate(445.716075 207.959375) rotate(-90) scale(0.14 -0.14)">
      <use xlink:href="#DejaVuSans-Bold-30"/>
      <use xlink:href="#DejaVuSans-Bold-2e" x="69.580078"/>
      <use xlink:href="#DejaVuSans-Bold-35" x="107.568359"/>
      <use xlink:href="#DejaVuSans-Bold-34" x="177.148438"/>
     </g>
    </g>
    <g id="text_50">
     <!-- 0.58 -->
     <g style="fill: #262626" transform="translate(487.079632 195.318919) rotate(-90) scale(0.14 -0.14)">
      <use xlink:href="#DejaVuSans-Bold-30"/>
      <use xlink:href="#DejaVuSans-Bold-2e" x="69.580078"/>
      <use xlink:href="#DejaVuSans-Bold-35" x="107.568359"/>
      <use xlink:href="#DejaVuSans-Bold-38" x="177.148438"/>
     </g>
    </g>
    <g id="text_51">
     <!-- 0.54 -->
     <g style="fill: #262626" transform="translate(528.44319 209.685027) rotate(-90) scale(0.14 -0.14)">
      <use xlink:href="#DejaVuSans-Bold-30"/>
      <use xlink:href="#DejaVuSans-Bold-2e" x="69.580078"/>
      <use xlink:href="#DejaVuSans-Bold-35" x="107.568359"/>
      <use xlink:href="#DejaVuSans-Bold-34" x="177.148438"/>
     </g>
    </g>
    <g id="text_52">
     <!-- 0.60 -->
     <g style="fill: #262626" transform="translate(569.806747 189.506731) rotate(-90) scale(0.14 -0.14)">
      <use xlink:href="#DejaVuSans-Bold-30"/>
      <use xlink:href="#DejaVuSans-Bold-2e" x="69.580078"/>
      <use xlink:href="#DejaVuSans-Bold-36" x="107.568359"/>
      <use xlink:href="#DejaVuSans-Bold-30" x="177.148438"/>
     </g>
    </g>
    <g id="text_53">
     <!-- 0.60 -->
     <g style="fill: #262626" transform="translate(611.170305 187.759006) rotate(-90) scale(0.14 -0.14)">
      <use xlink:href="#DejaVuSans-Bold-30"/>
      <use xlink:href="#DejaVuSans-Bold-2e" x="69.580078"/>
      <use xlink:href="#DejaVuSans-Bold-36" x="107.568359"/>
      <use xlink:href="#DejaVuSans-Bold-30" x="177.148438"/>
     </g>
    </g>
    <g id="text_54">
     <!-- 0.63 -->
     <g style="fill: #262626" transform="translate(652.533862 177.485117) rotate(-90) scale(0.14 -0.14)">
      <use xlink:href="#DejaVuSans-Bold-30"/>
      <use xlink:href="#DejaVuSans-Bold-2e" x="69.580078"/>
      <use xlink:href="#DejaVuSans-Bold-36" x="107.568359"/>
      <use xlink:href="#DejaVuSans-Bold-33" x="177.148438"/>
     </g>
    </g>
    <g id="text_55">
     <!-- 0.72 -->
     <g style="fill: #262626" transform="translate(693.89742 147.122538) rotate(-90) scale(0.14 -0.14)">
      <use xlink:href="#DejaVuSans-Bold-30"/>
      <use xlink:href="#DejaVuSans-Bold-2e" x="69.580078"/>
      <use xlink:href="#DejaVuSans-Bold-37" x="107.568359"/>
      <use xlink:href="#DejaVuSans-Bold-32" x="177.148438"/>
     </g>
    </g>
    <g id="text_56">
     <!-- Sparsity of Activity -->
     <g style="fill: #262626" transform="translate(279.229181 32.30925) scale(0.24 -0.24)">
      <defs>
       <path id="DejaVuSans-53" d="M 3425 4513 
L 3425 3897 
Q 3066 4069 2747 4153 
Q 2428 4238 2131 4238 
Q 1616 4238 1336 4038 
Q 1056 3838 1056 3469 
Q 1056 3159 1242 3001 
Q 1428 2844 1947 2747 
L 2328 2669 
Q 3034 2534 3370 2195 
Q 3706 1856 3706 1288 
Q 3706 609 3251 259 
Q 2797 -91 1919 -91 
Q 1588 -91 1214 -16 
Q 841 59 441 206 
L 441 856 
Q 825 641 1194 531 
Q 1563 422 1919 422 
Q 2459 422 2753 634 
Q 3047 847 3047 1241 
Q 3047 1584 2836 1778 
Q 2625 1972 2144 2069 
L 1759 2144 
Q 1053 2284 737 2584 
Q 422 2884 422 3419 
Q 422 4038 858 4394 
Q 1294 4750 2059 4750 
Q 2388 4750 2728 4690 
Q 3069 4631 3425 4513 
z
" transform="scale(0.015625)"/>
       <path id="DejaVuSans-70" d="M 1159 525 
L 1159 -1331 
L 581 -1331 
L 581 3500 
L 1159 3500 
L 1159 2969 
Q 1341 3281 1617 3432 
Q 1894 3584 2278 3584 
Q 2916 3584 3314 3078 
Q 3713 2572 3713 1747 
Q 3713 922 3314 415 
Q 2916 -91 2278 -91 
Q 1894 -91 1617 61 
Q 1341 213 1159 525 
z
M 3116 1747 
Q 3116 2381 2855 2742 
Q 2594 3103 2138 3103 
Q 1681 3103 1420 2742 
Q 1159 2381 1159 1747 
Q 1159 1113 1420 752 
Q 1681 391 2138 391 
Q 2594 391 2855 752 
Q 3116 1113 3116 1747 
z
" transform="scale(0.015625)"/>
       <path id="DejaVuSans-76" d="M 191 3500 
L 800 3500 
L 1894 563 
L 2988 3500 
L 3597 3500 
L 2284 0 
L 1503 0 
L 191 3500 
z
" transform="scale(0.015625)"/>
      </defs>
      <use xlink:href="#DejaVuSans-53"/>
      <use xlink:href="#DejaVuSans-70" x="63.476562"/>
      <use xlink:href="#DejaVuSans-61" x="126.953125"/>
      <use xlink:href="#DejaVuSans-72" x="188.232422"/>
      <use xlink:href="#DejaVuSans-73" x="229.345703"/>
      <use xlink:href="#DejaVuSans-69" x="281.445312"/>
      <use xlink:href="#DejaVuSans-74" x="309.228516"/>
      <use xlink:href="#DejaVuSans-79" x="348.4375"/>
      <use xlink:href="#DejaVuSans-20" x="407.617188"/>
      <use xlink:href="#DejaVuSans-6f" x="439.404297"/>
      <use xlink:href="#DejaVuSans-66" x="500.585938"/>
      <use xlink:href="#DejaVuSans-20" x="535.791016"/>
      <use xlink:href="#DejaVuSans-41" x="567.578125"/>
      <use xlink:href="#DejaVuSans-63" x="634.236328"/>
      <use xlink:href="#DejaVuSans-74" x="689.216797"/>
      <use xlink:href="#DejaVuSans-69" x="728.425781"/>
      <use xlink:href="#DejaVuSans-76" x="756.208984"/>
      <use xlink:href="#DejaVuSans-69" x="815.388672"/>
      <use xlink:href="#DejaVuSans-74" x="843.171875"/>
      <use xlink:href="#DejaVuSans-79" x="882.380859"/>
     </g>
     <!-- p=6.234e-05 -->
     <g style="fill: #262626" transform="translate(313.206056 59.184) scale(0.24 -0.24)">
      <defs>
       <path id="DejaVuSans-3d" d="M 678 2906 
L 4684 2906 
L 4684 2381 
L 678 2381 
L 678 2906 
z
M 678 1631 
L 4684 1631 
L 4684 1100 
L 678 1100 
L 678 1631 
z
" transform="scale(0.015625)"/>
       <path id="DejaVuSans-2d" d="M 313 2009 
L 1997 2009 
L 1997 1497 
L 313 1497 
L 313 2009 
z
" transform="scale(0.015625)"/>
      </defs>
      <use xlink:href="#DejaVuSans-70"/>
      <use xlink:href="#DejaVuSans-3d" x="63.476562"/>
      <use xlink:href="#DejaVuSans-36" x="147.265625"/>
      <use xlink:href="#DejaVuSans-2e" x="210.888672"/>
      <use xlink:href="#DejaVuSans-32" x="242.675781"/>
      <use xlink:href="#DejaVuSans-33" x="306.298828"/>
      <use xlink:href="#DejaVuSans-34" x="369.921875"/>
      <use xlink:href="#DejaVuSans-65" x="433.544922"/>
      <use xlink:href="#DejaVuSans-2d" x="495.068359"/>
      <use xlink:href="#DejaVuSans-30" x="531.152344"/>
      <use xlink:href="#DejaVuSans-35" x="594.775391"/>
     </g>
    </g>
    <g id="legend_1">
     <g id="patch_37">
      <path d="M 90.39 127.121636 
L 311.53125 127.121636 
Q 313.93125 127.121636 313.93125 124.721636 
L 313.93125 90.694136 
Q 313.93125 88.294136 311.53125 88.294136 
L 90.39 88.294136 
Q 87.99 88.294136 87.99 90.694136 
L 87.99 124.721636 
Q 87.99 127.121636 90.39 127.121636 
z
" style="fill: #ffffff; opacity: 0.8; stroke: #cccccc; stroke-linejoin: miter"/>
     </g>
     <g id="patch_38">
      <path d="M 92.79 102.212261 
L 116.79 102.212261 
L 116.79 93.812261 
L 92.79 93.812261 
z
" style="fill: #aeccdb; stroke: #ffffff; stroke-linejoin: miter"/>
     </g>
     <g id="text_57">
      <!-- Assembly Gini Values -->
      <g style="fill: #262626" transform="translate(126.39 102.212261) scale(0.12 -0.12)">
       <defs>
        <path id="DejaVuSans-56" d="M 1831 0 
L 50 4666 
L 709 4666 
L 2188 738 
L 3669 4666 
L 4325 4666 
L 2547 0 
L 1831 0 
z
" transform="scale(0.015625)"/>
        <path id="DejaVuSans-75" d="M 544 1381 
L 544 3500 
L 1119 3500 
L 1119 1403 
Q 1119 906 1312 657 
Q 1506 409 1894 409 
Q 2359 409 2629 706 
Q 2900 1003 2900 1516 
L 2900 3500 
L 3475 3500 
L 3475 0 
L 2900 0 
L 2900 538 
Q 2691 219 2414 64 
Q 2138 -91 1772 -91 
Q 1169 -91 856 284 
Q 544 659 544 1381 
z
M 1991 3584 
L 1991 3584 
z
" transform="scale(0.015625)"/>
       </defs>
       <use xlink:href="#DejaVuSans-41"/>
       <use xlink:href="#DejaVuSans-73" x="68.408203"/>
       <use xlink:href="#DejaVuSans-73" x="120.507812"/>
       <use xlink:href="#DejaVuSans-65" x="172.607422"/>
       <use xlink:href="#DejaVuSans-6d" x="234.130859"/>
       <use xlink:href="#DejaVuSans-62" x="331.542969"/>
       <use xlink:href="#DejaVuSans-6c" x="395.019531"/>
       <use xlink:href="#DejaVuSans-79" x="422.802734"/>
       <use xlink:href="#DejaVuSans-20" x="481.982422"/>
       <use xlink:href="#DejaVuSans-47" x="513.769531"/>
       <use xlink:href="#DejaVuSans-69" x="591.259766"/>
       <use xlink:href="#DejaVuSans-6e" x="619.042969"/>
       <use xlink:href="#DejaVuSans-69" x="682.421875"/>
       <use xlink:href="#DejaVuSans-20" x="710.205078"/>
       <use xlink:href="#DejaVuSans-56" x="741.992188"/>
       <use xlink:href="#DejaVuSans-61" x="802.650391"/>
       <use xlink:href="#DejaVuSans-6c" x="863.929688"/>
       <use xlink:href="#DejaVuSans-75" x="891.712891"/>
       <use xlink:href="#DejaVuSans-65" x="955.091797"/>
       <use xlink:href="#DejaVuSans-73" x="1016.615234"/>
      </g>
     </g>
     <g id="patch_39">
      <path d="M 92.79 119.826011 
L 116.79 119.826011 
L 116.79 111.426011 
L 92.79 111.426011 
z
" style="fill: #3274a1; stroke: #ffffff; stroke-linejoin: miter"/>
     </g>
     <g id="text_58">
      <!-- Random Ensemble Gini Values -->
      <g style="fill: #262626" transform="translate(126.39 119.826011) scale(0.12 -0.12)">
       <use xlink:href="#DejaVuSans-52"/>
       <use xlink:href="#DejaVuSans-61" x="67.232422"/>
       <use xlink:href="#DejaVuSans-6e" x="128.511719"/>
       <use xlink:href="#DejaVuSans-64" x="191.890625"/>
       <use xlink:href="#DejaVuSans-6f" x="255.367188"/>
       <use xlink:href="#DejaVuSans-6d" x="316.548828"/>
       <use xlink:href="#DejaVuSans-20" x="413.960938"/>
       <use xlink:href="#DejaVuSans-45" x="445.748047"/>
       <use xlink:href="#DejaVuSans-6e" x="508.931641"/>
       <use xlink:href="#DejaVuSans-73" x="572.310547"/>
       <use xlink:href="#DejaVuSans-65" x="624.410156"/>
       <use xlink:href="#DejaVuSans-6d" x="685.933594"/>
       <use xlink:href="#DejaVuSans-62" x="783.345703"/>
       <use xlink:href="#DejaVuSans-6c" x="846.822266"/>
       <use xlink:href="#DejaVuSans-65" x="874.605469"/>
       <use xlink:href="#DejaVuSans-20" x="936.128906"/>
       <use xlink:href="#DejaVuSans-47" x="967.916016"/>
       <use xlink:href="#DejaVuSans-69" x="1045.40625"/>
       <use xlink:href="#DejaVuSans-6e" x="1073.189453"/>
       <use xlink:href="#DejaVuSans-69" x="1136.568359"/>
       <use xlink:href="#DejaVuSans-20" x="1164.351562"/>
       <use xlink:href="#DejaVuSans-56" x="1196.138672"/>
       <use xlink:href="#DejaVuSans-61" x="1256.796875"/>
       <use xlink:href="#DejaVuSans-6c" x="1318.076172"/>
       <use xlink:href="#DejaVuSans-75" x="1345.859375"/>
       <use xlink:href="#DejaVuSans-65" x="1409.238281"/>
       <use xlink:href="#DejaVuSans-73" x="1470.761719"/>
      </g>
     </g>
    </g>
   </g>
  </g>
  <defs>
   <clipPath id="p0eb7f448f8">
    <rect x="81.99" y="65.184" width="620.453362" height="342.202724"/>
   </clipPath>
  </defs>
 </g>
</svg>
