<?xml version="1.0" encoding="UTF-8" standalone="no"?>
<!DOCTYPE svg PUBLIC "-//W3C//DTD SVG 1.1//EN" "http://www.w3.org/Graphics/SVG/1.1/DTD/svg11.dtd">
<svg width="100%" height="100%" viewBox="0 0 2363 1890" version="1.1" xmlns="http://www.w3.org/2000/svg" xmlns:xlink="http://www.w3.org/1999/xlink" xml:space="preserve" xmlns:serif="http://www.serif.com/" style="fill-rule:evenodd;clip-rule:evenodd;stroke-linecap:round;stroke-linejoin:round;stroke-miterlimit:1.5;">
    <g transform="matrix(1,0,0,1,70.5666,-28.2267)">
        <g transform="matrix(2.09733,0,0,2.09733,-1871.74,-921.636)">
            <path d="M1772.39,706.985C1772.39,706.985 1777.64,700.21 1778.31,700.511C1781.64,701.991 1784.42,708.465 1787.19,714.385C1789.28,718.845 1794.22,724.929 1799.03,729.924C1803.84,734.918 1809.2,740.283 1809.2,740.283C1809.2,740.283 1811.98,735.843 1814.94,735.843C1817.9,735.843 1819.75,739.913 1822.15,742.688C1824.56,745.462 1830.11,748.792 1832.33,751.012C1834.55,753.232 1833.25,756.562 1829.92,757.672C1826.59,758.782 1825.11,752.677 1823.63,755.267C1822.15,757.857 1820.67,761.556 1816.24,759.891C1811.8,758.227 1808.47,758.227 1806.25,759.336C1804.03,760.446 1805.13,751.752 1802.92,749.162C1800.7,746.572 1798.3,739.448 1796.44,737.323C1793.85,734.363 1787.38,728.629 1786.08,726.409C1784.79,724.189 1780.16,712.72 1777.76,711.98C1775.35,711.24 1771.1,709.575 1772.39,706.985Z" style="fill:rgb(169,169,169);stroke:black;stroke-width:1.99px;"/>
        </g>
        <g transform="matrix(2.09733,0,0,2.09733,-1871.74,-921.636)">
            <path d="M1664.04,555.04C1664.04,555.04 1664.04,563.986 1669.24,570.345C1674.44,576.704 1677.34,586.242 1682.83,588.265C1688.32,590.289 1691.79,593.179 1696.7,595.202C1701.62,597.226 1702.48,602.428 1702.77,610.522C1703.06,618.615 1706.24,620.638 1711.15,623.239C1716.07,625.841 1719.25,624.396 1721.85,631.622C1724.45,638.848 1724.16,647.808 1727.63,653.589C1731.1,659.37 1734.85,659.081 1735.14,667.463C1735.43,675.845 1733.99,680.181 1736.01,683.649C1738.03,687.118 1740.06,687.985 1744.39,687.696C1748.73,687.407 1751.62,689.141 1757.4,691.742C1763.18,694.344 1769.25,696.078 1773.88,693.477C1778.5,690.875 1781.97,688.563 1780.52,681.915C1779.08,675.267 1775.9,669.486 1771.56,666.885C1767.23,664.283 1762.89,659.948 1758.85,660.815C1754.8,661.682 1748.15,665.729 1745.84,663.994C1743.53,662.26 1739.77,661.682 1736.59,656.768C1733.41,651.855 1728.79,648.097 1730.52,644.34C1732.25,640.582 1741.5,638.848 1741.79,634.223C1742.08,629.598 1741.79,623.529 1738.32,623.239C1734.85,622.95 1729.94,625.841 1727.05,625.841C1724.16,625.841 1721.27,620.349 1720.11,616.013C1718.96,611.678 1717.8,605.608 1713.75,603.007C1709.71,600.405 1707.39,594.624 1704.51,593.179C1701.62,591.734 1694.97,587.109 1690.63,582.196C1686.3,577.282 1681.96,566.876 1680.52,563.408C1679.07,559.939 1676.18,554.448 1676.18,554.448L1664.04,555.04Z" style="fill:rgb(169,169,169);stroke:black;stroke-width:1.99px;"/>
        </g>
        <g transform="matrix(2.09733,0,0,2.09733,-1871.74,-921.636)">
            <path d="M1694.61,698.449C1694.61,698.449 1699.69,697.987 1702.01,699.837C1704.32,701.686 1704.09,702.38 1707.32,700.761C1710.56,699.143 1716.11,690.818 1721.43,688.506C1726.75,686.194 1729.52,683.65 1734.15,680.182" style="fill:none;stroke:black;stroke-width:1.99px;"/>
        </g>
        <g transform="matrix(2.09733,0,0,2.09733,-1871.74,-921.636)">
            <path d="M1696.69,710.936C1701.31,708.623 1706.17,713.479 1709.64,710.473C1713.11,707.467 1715.88,703.999 1720.97,701.455C1726.05,698.912 1729.06,699.605 1732.3,697.062C1735.53,694.518 1739.47,693.131 1739.47,693.131C1739.47,693.131 1738.31,698.218 1743.4,701.455C1748.48,704.692 1753.11,707.93 1757.96,707.93C1762.82,707.93 1766.06,708.623 1769.76,708.392C1773.46,708.161 1781.55,697.755 1781.55,697.755C1781.55,697.755 1784.09,700.761 1786.41,703.768C1788.72,706.774 1792.42,711.167 1796.58,712.786C1800.74,714.404 1802.82,718.566 1807.22,719.491C1811.61,720.416 1820.4,720.879 1823.17,719.029C1825.95,717.179 1828.95,713.711 1834.04,713.711" style="fill:none;stroke:black;stroke-width:1.99px;"/>
        </g>
        <g transform="matrix(2.09733,0,0,2.09733,-1871.74,-921.636)">
            <path d="M1782.24,686.425C1782.24,686.425 1786.64,689.431 1789.87,692.437C1793.11,695.443 1796.81,698.449 1798.2,701.918C1799.59,705.386 1801.44,708.623 1806.75,709.548C1812.07,710.473 1815.08,713.017 1820.4,711.167C1825.72,709.317 1829.65,707.93 1833.58,708.392" style="fill:none;stroke:black;stroke-width:1.99px;"/>
        </g>
    </g>
    <g transform="matrix(0.885611,0.464428,-0.464428,0.885611,608.314,-681.341)">
        <g transform="matrix(2.05541,0,0,2.05541,-1479.71,-595.495)">
            <path d="M1474.28,708.869C1474.28,708.869 1465.97,700.197 1463.08,694.055C1460.19,687.913 1463.8,677.074 1473.56,666.596C1483.31,656.119 1491.62,650.338 1496.32,640.944C1501.02,631.55 1511.59,627.782 1519.42,625.624C1525.97,623.816 1537.96,618.456 1544.58,618.623C1550.41,618.77 1560.93,610.412 1568.16,616.636C1573.98,621.65 1570.01,629.088 1582.26,629.262C1592.25,629.404 1598.21,635.163 1602.18,644.557C1606.15,653.951 1599.65,660.816 1599.65,669.126C1599.65,677.435 1590.98,684.662 1584.12,689.72C1577.25,694.778 1564.24,699.836 1564.24,699.836C1564.24,699.836 1553.77,691.165 1545.82,691.526C1537.87,691.888 1522.69,684.662 1516.19,687.913C1509.69,691.165 1497.76,689.72 1492.34,694.778C1486.92,699.836 1474.28,708.869 1474.28,708.869Z" style="fill:rgb(169,169,169);stroke:black;stroke-width:3.04px;"/>
        </g>
        <g transform="matrix(2.05541,0,0,2.05541,-1479.71,-595.495)">
            <path d="M1475.13,709.935C1475.13,709.935 1490.54,722.237 1492.7,722.96C1494.87,723.682 1501.38,728.74 1510.05,726.573C1518.72,724.405 1534.62,719.708 1541.48,720.069C1548.35,720.43 1558.46,714.65 1559.91,707.785C1561.35,700.92 1561.88,699.226 1561.88,699.226" style="fill:none;stroke:black;stroke-width:3.04px;"/>
        </g>
        <g transform="matrix(0.984023,0,0,0.915165,27.4325,69.217)">
            <path d="M1554.89,860.064C1554.89,860.064 1559.28,867.001 1567.14,862.145C1575.01,857.289 1583.56,843.415 1595.12,839.022C1606.68,834.628 1626.57,832.316 1630.5,830.004C1634.43,827.692 1637.21,824.223 1643.91,825.148C1650.62,826.073 1661.49,828.616 1668.89,829.079C1676.29,829.541 1689.7,834.166 1697.1,833.935C1704.5,833.704 1708.66,837.403 1711.43,834.628C1714.21,831.854 1716.98,831.854 1716.98,831.854L1707.27,826.304L1691.09,825.61L1670.04,821.217L1645.07,815.899L1629.11,820.292L1596.74,826.535L1554.89,860.064Z" style="stroke:black;stroke-width:4.38px;"/>
        </g>
    </g>
    <g transform="matrix(1.16636,0,0,1.16636,-3.63146,36.9356)">
        <g transform="matrix(0.857369,-0,-0,0.857369,3.1135,-31.6674)">
            <path d="M1893.05,572.575L1906.67,546.246L1911.57,575.485L1893.05,572.575Z"/>
            <path d="M1871.25,771.72C1871.25,771.72 1894.24,625.35 1903.18,568.473" style="fill:none;stroke:black;stroke-width:6.25px;stroke-dasharray:12.5,18.75,0,0,0,0;"/>
        </g>
    </g>
    <g transform="matrix(0.958735,0.668956,-0.76258,1.02999,594.642,-984.802)">
        <g transform="matrix(0.687752,-0.446679,0.509194,0.640172,92.4889,896.057)">
            <path d="M1808.86,539.477L1836.43,528.598L1820.9,553.848L1808.86,539.477Z"/>
            <path d="M1598.76,727.773C1598.76,727.773 1764.53,588.85 1819.19,543.05" style="fill:none;stroke:black;stroke-width:6.25px;stroke-dasharray:12.5,18.75,0,0,0,0;"/>
        </g>
    </g>
    <g transform="matrix(0.762624,0,0,0.786641,-61.2394,-809.353)">
        <path d="M738.737,1599.1L847.054,1599.1" style="fill:none;stroke:black;stroke-width:8.07px;"/>
    </g>
    <g transform="matrix(0.786641,0,0,0.786641,179.746,-809.353)">
        <path d="M743.514,1599.1L847.054,1599.1" style="fill:none;stroke:black;stroke-width:7.95px;"/>
    </g>
    <g transform="matrix(0.402928,0,0,0.402928,288.148,-194.971)">
        <rect x="738.173" y="1377.95" width="437.218" height="442.295" style="fill:rgb(169,169,169);stroke:black;stroke-width:15.51px;"/>
    </g>
    <g transform="matrix(4.81678e-17,0.738608,-0.786641,4.52267e-17,1933.36,-267.707)">
        <path d="M738.737,1599.1L847.054,1599.1" style="fill:none;stroke:black;stroke-width:8.19px;"/>
    </g>
    <g transform="matrix(4.81678e-17,0.757287,-0.786641,4.63705e-17,1933.36,-19.1563)">
        <path d="M738.737,1599.1L847.054,1599.1" style="fill:none;stroke:black;stroke-width:8.09px;"/>
    </g>
    <g transform="matrix(0.786641,0,0,0.786641,75.2665,-559.688)">
        <text x="680.065px" y="1279.79px" style="font-family:'ArialMT', 'Arial', sans-serif;font-size:47.671px;">Column</text>
        <g transform="matrix(47.6711,0,0,47.6711,775.454,1329.02)">
        </g>
        <text x="748.941px" y="1329.02px" style="font-family:'ArialMT', 'Arial', sans-serif;font-size:47.671px;">1</text>
    </g>
    <g transform="matrix(0.786641,0,0,0.786641,-9.00018,-669.271)">
        <text x="680.065px" y="1279.79px" style="font-family:'ArialMT', 'Arial', sans-serif;font-size:47.671px;">Column</text>
        <g transform="matrix(47.6711,0,0,47.6711,706.577,1329.02)">
        </g>
        <text x="680.065px" y="1329.02px" style="font-family:'ArialMT', 'Arial', sans-serif;font-size:47.671px;">2</text>
    </g>
    <g transform="matrix(0.786641,0,0,0.786641,158.056,-667.826)">
        <text x="680.065px" y="1279.79px" style="font-family:'ArialMT', 'Arial', sans-serif;font-size:47.671px;">Column</text>
        <g transform="matrix(47.6711,0,0,47.6711,844.33,1329.02)">
        </g>
        <text x="817.818px" y="1329.02px" style="font-family:'ArialMT', 'Arial', sans-serif;font-size:47.671px;">3</text>
    </g>
    <g transform="matrix(0.786641,0,0,0.786641,-8.34393,-458.487)">
        <text x="680.065px" y="1279.79px" style="font-family:'ArialMT', 'Arial', sans-serif;font-size:47.671px;">4</text>
        <g transform="matrix(47.6711,0,0,47.6711,844.33,1329.02)">
        </g>
        <text x="680.065px" y="1329.02px" style="font-family:'ArialMT', 'Arial', sans-serif;font-size:47.671px;">Column</text>
    </g>
    <g transform="matrix(0.786641,0,0,0.786641,208.013,-458.487)">
        <text x="754.055px" y="1279.79px" style="font-family:'ArialMT', 'Arial', sans-serif;font-size:47.671px;">5</text>
        <g transform="matrix(47.6711,0,0,47.6711,780.568,1329.02)">
        </g>
        <text x="616.303px" y="1329.02px" style="font-family:'ArialMT', 'Arial', sans-serif;font-size:47.671px;">Column</text>
    </g>
    <g transform="matrix(0.786641,0,0,0.786641,-268.502,-782.332)">
        <g transform="matrix(47.6711,0,0,47.6711,1281.75,1300.67)">
        </g>
        <text x="1121.8px" y="1300.67px" style="font-family:'ArialMT', 'Arial', sans-serif;font-size:47.671px;">800 μm</text>
    </g>
    <g transform="matrix(0.786641,0,0,0.786641,-78.9811,-808.567)">
        <rect x="738.173" y="1377.95" width="437.218" height="442.295" style="fill:none;stroke:black;stroke-width:7.95px;"/>
    </g>
    <g transform="matrix(2.25966,0,0,2.25966,-1562.09,-3160)">
        <g transform="matrix(0.442544,-0,-0,0.442544,691.294,1398.44)">
            <path d="M825.163,248.315L837.663,254.565L825.163,260.815L825.163,248.315Z"/>
            <path d="M707.634,254.565L827.663,254.565" style="fill:none;stroke:black;stroke-width:4.17px;"/>
        </g>
    </g>
    <g transform="matrix(-3.99369,-2.69173e-16,4.89086e-16,-2.19797,4747.35,3575.9)">
        <g transform="matrix(-0.250395,3.06645e-17,-5.57173e-17,-0.454966,1188.71,1626.91)">
            <path d="M518.565,260.815L506.065,254.565L518.565,248.315L518.565,260.815Z"/>
            <path d="M735.876,254.565L516.065,254.565" style="fill:none;stroke:black;stroke-width:4.17px;"/>
        </g>
    </g>
    <g transform="matrix(-1.52509,0.663304,-0.313742,-0.721366,2895.1,1180.08)">
        <g transform="matrix(-0.551396,-0.507015,0.239818,-1.16574,1313.35,2843.53)">
            <path d="M880.16,767L889.13,756.283L875.174,755.537L880.16,767Z"/>
            <path d="M815.326,795.198L801.371,794.452L810.341,783.735L815.326,795.198Z"/>
            <path d="M879.96,760.272C863.106,767.602 827.394,783.134 810.541,790.464" style="fill:none;stroke:black;stroke-width:4.17px;"/>
        </g>
    </g>
    <g transform="matrix(4.81678e-17,-1.04518,0.786641,6.3999e-17,-763.241,1888.34)">
        <g transform="matrix(7.78403e-17,1.27123,-0.956771,5.85853e-17,1806.71,970.254)">
            <path d="M419.197,790.861L425.447,778.361L431.697,790.861L419.197,790.861Z"/>
            <path d="M425.447,838.505L425.447,788.361" style="fill:none;stroke:black;stroke-width:4.17px;"/>
        </g>
    </g>
    <g transform="matrix(-1.44504e-16,0.640339,-0.786641,-1.17628e-16,1614.14,192.176)">
        <g transform="matrix(-2.33521e-16,-1.27123,1.56167,-2.86875e-16,-300.117,2051.94)">
            <path d="M431.697,859.714L425.447,872.214L419.197,859.714L431.697,859.714Z"/>
            <path d="M425.447,835.367L425.447,862.214" style="fill:none;stroke:black;stroke-width:4.17px;"/>
        </g>
    </g>
    <g transform="matrix(2.43894,0,0,0.786641,-1720.78,-463.001)">
        <g transform="matrix(0.410014,-0,-0,1.27123,705.542,588.58)">
            <path d="M856.87,719.437L869.37,725.687L856.87,731.937L856.87,719.437Z"/>
            <path d="M729.024,725.687L859.37,725.687" style="fill:none;stroke:black;stroke-width:4.17px;"/>
        </g>
    </g>
    <g transform="matrix(-3.21133,-9.63357e-17,3.93275e-16,-0.786641,3968.01,1914.38)">
        <g transform="matrix(-0.311397,3.81352e-17,-1.55681e-16,-1.27123,1235.63,2433.61)">
            <path d="M570.09,731.937L557.59,725.687L570.09,719.437L570.09,731.937Z"/>
            <path d="M742.381,725.687L567.59,725.687" style="fill:none;stroke:black;stroke-width:4.17px;"/>
        </g>
    </g>
    <g transform="matrix(0.786641,0,0,0.786641,-235.535,-308.626)">
        <g transform="matrix(47.6711,0,0,47.6711,1281.75,1300.67)">
        </g>
        <text x="1121.8px" y="1300.67px" style="font-family:'ArialMT', 'Arial', sans-serif;font-size:47.671px;">400 μm</text>
    </g>
    <g transform="matrix(4.81678e-17,-0.786641,0.786641,4.81678e-17,-614.47,1751.41)">
        <g transform="matrix(47.6711,0,0,47.6711,1255.24,1300.67)">
        </g>
        <text x="1121.8px" y="1300.67px" style="font-family:'ArialMT', 'Arial', sans-serif;font-size:47.671px;">80 μm</text>
    </g>
    <g transform="matrix(0.996943,-0.412737,0.412737,0.996943,-838.974,-13.3078)">
        <g transform="matrix(20.8333,0,0,20.8333,1191.7,1300.67)">
        </g>
        <text x="1121.8px" y="1300.67px" style="font-family:'ArialMT', 'Arial', sans-serif;font-size:20.833px;">400 μm</text>
    </g>
    <g transform="matrix(0.786641,0,0,0.786641,405.534,-745.489)">
        <g transform="matrix(47.6711,0,0,47.6711,1283.08,1300.67)">
        </g>
        <text x="1121.8px" y="1300.67px" style="font-family:'ArialMT', 'Arial', sans-serif;font-size:47.671px;">~75 μm</text>
    </g>
    <g transform="matrix(0.786641,0,0,0.786641,409.51,-413.183)">
        <g transform="matrix(47.6711,0,0,47.6711,1309.59,1300.67)">
        </g>
        <text x="1121.8px" y="1300.67px" style="font-family:'ArialMT', 'Arial', sans-serif;font-size:47.671px;">~620 μm</text>
    </g>
    <g transform="matrix(0.786641,0,0,0.786641,-78.9811,-808.567)">
        <path d="M658.627,2133.35L1114.01,2133.35L1236.32,2076.94L1236.32,1967.27L1110.85,2017.36L658.627,2017.36L658.627,2133.35Z" style="fill:none;stroke:black;stroke-width:7.95px;"/>
        <path d="M784.997,1966.37L661.335,2016.91L784.997,1966.37Z" style="fill:none;stroke:black;stroke-width:7.95px;"/>
        <g transform="matrix(1,0,0,1,2,4)">
            <path d="M1233.61,1961.85L780.033,1961.85" style="fill:none;stroke:black;stroke-width:7.95px;"/>
        </g>
        <path d="M1112.29,2018.6L1112.29,2132.52" style="fill:none;stroke:black;stroke-width:7.95px;"/>
        <path d="M659.266,2043.33L1112.75,2043.33" style="fill:none;stroke:black;stroke-width:5.3px;"/>
        <g transform="matrix(1,0,0,1,1.15538,23.2557)">
            <path d="M659.266,2043.33L1112.75,2043.33" style="fill:none;stroke:black;stroke-width:5.3px;"/>
        </g>
        <g transform="matrix(1,0,0,1,-0.577692,46.5115)">
            <path d="M659.266,2043.33L1112.75,2043.33" style="fill:none;stroke:black;stroke-width:5.3px;"/>
        </g>
        <g transform="matrix(1,0,0,1,0,69.7672)">
            <path d="M659.266,2043.33L1112.75,2043.33" style="fill:none;stroke:black;stroke-width:5.3px;"/>
        </g>
    </g>
    <g transform="matrix(0.517609,0,0,0.517609,638.38,-758.154)">
        <path d="M658.627,2133.35L1114.01,2133.35L1236.32,2076.94L1236.32,1967.27L1110.85,2017.36L658.627,2017.36L658.627,2133.35Z" style="fill:none;stroke:black;stroke-width:12.07px;"/>
        <path d="M784.997,1966.37L661.335,2016.91L784.997,1966.37Z" style="fill:none;stroke:black;stroke-width:12.07px;"/>
        <g transform="matrix(1,0,0,1,2,4)">
            <path d="M1233.61,1961.85L780.033,1961.85" style="fill:none;stroke:black;stroke-width:12.07px;"/>
        </g>
        <path d="M1112.29,2018.6L1112.29,2132.52" style="fill:none;stroke:black;stroke-width:12.07px;"/>
        <path d="M659.266,2043.33L1112.75,2043.33" style="fill:none;stroke:black;stroke-width:8.05px;"/>
        <g transform="matrix(1,0,0,1,1.15538,23.2557)">
            <path d="M659.266,2043.33L1112.75,2043.33" style="fill:none;stroke:black;stroke-width:8.05px;"/>
        </g>
        <g transform="matrix(1,0,0,1,-0.577692,46.5115)">
            <path d="M659.266,2043.33L1112.75,2043.33" style="fill:none;stroke:black;stroke-width:8.05px;"/>
        </g>
        <g transform="matrix(1,0,0,1,0,69.7672)">
            <path d="M659.266,2043.33L1112.75,2043.33" style="fill:none;stroke:black;stroke-width:8.05px;"/>
        </g>
    </g>
    <g transform="matrix(0.681014,0,0,1.09828,484.946,-1482.46)">
        <path d="M658.627,2133.35L1114.01,2133.35L1289.29,2082.89L1288.87,1962.61L1110.85,2017.36L658.627,2017.36L658.627,2133.35Z" style="fill:none;stroke:black;stroke-width:6.84px;"/>
    </g>
    <g transform="matrix(0.681014,0,0,0.681014,484.16,-641.146)">
        <path d="M835.878,1929.66L661.335,2016.91L835.878,1929.66Z" style="fill:none;stroke:black;stroke-width:9.18px;"/>
    </g>
    <g transform="matrix(0.681014,0,0,0.681014,521.024,-663.416)">
        <path d="M1233.61,1961.85L780.033,1961.85" style="fill:none;stroke:black;stroke-width:9.18px;"/>
    </g>
    <g transform="matrix(0.681014,0,0,1.11981,484.16,-1526.9)">
        <path d="M1112.29,2018.6L1112.29,2132.52" style="fill:none;stroke:black;stroke-width:6.74px;"/>
    </g>
    <g transform="matrix(0.681014,0,0,0.681014,484.444,-634.046)">
        <path d="M659.266,2043.33L1112.75,2043.33" style="fill:none;stroke:black;stroke-width:6.12px;"/>
    </g>
    <g transform="matrix(0.786641,0,0,0.786641,-78.9811,-808.567)">
        <path d="M1679.58,1990.81L1834.18,1914.94" style="fill:none;stroke:black;stroke-width:5.3px;"/>
    </g>
    <g transform="matrix(0.681014,0,0,0.681014,486.935,-606.345)">
        <path d="M659.266,2043.33L1112.75,2043.33" style="fill:none;stroke:black;stroke-width:6.12px;"/>
    </g>
    <g transform="matrix(0.681014,0,0,0.681014,483.482,-582.052)">
        <path d="M659.266,2043.33L1112.75,2043.33" style="fill:none;stroke:black;stroke-width:6.12px;"/>
    </g>
    <g transform="matrix(0.681014,0,0,0.681014,486.148,-557.585)">
        <path d="M659.266,2043.33L1112.75,2043.33" style="fill:none;stroke:black;stroke-width:6.12px;"/>
    </g>
    <g transform="matrix(0.382335,0,0,0.382335,774.073,91.9065)">
        <path d="M658.627,2133.35L1114.01,2133.35L1236.32,2076.94L1327.6,2030.16L1326.36,1966.31L1228.71,2009.26L1134.13,2010.69L1110.85,2017.36L658.627,2017.36L658.627,2133.35Z" style="fill:rgb(169,169,169);stroke:black;stroke-width:16.35px;"/>
    </g>
    <g transform="matrix(0.382335,0,0,0.382335,774.073,91.9065)">
        <path d="M1112.29,2018.6L1112.29,2132.52" style="fill:none;stroke:black;stroke-width:16.35px;"/>
    </g>
    <g transform="matrix(0.382335,0,0,0.382335,774.073,91.9065)">
        <path d="M659.266,2043.33L1112.75,2043.33" style="fill:none;stroke:black;stroke-width:10.9px;"/>
    </g>
    <g transform="matrix(0.382335,0,0,0.382335,774.514,100.798)">
        <path d="M659.266,2043.33L1112.75,2043.33" style="fill:none;stroke:black;stroke-width:10.9px;"/>
    </g>
    <g transform="matrix(0.382335,0,0,0.382335,773.852,109.689)">
        <path d="M659.266,2043.33L1112.75,2043.33" style="fill:none;stroke:black;stroke-width:10.9px;"/>
    </g>
    <g transform="matrix(0.382335,0,0,0.382335,774.073,118.581)">
        <path d="M659.266,2043.33L1112.75,2043.33" style="fill:none;stroke:black;stroke-width:10.9px;"/>
    </g>
    <g transform="matrix(0.786641,0,0,0.786641,-78.9811,-808.567)">
        <g transform="matrix(0.657999,0,0,0.657999,911.93,153.998)">
            <path d="M658.627,2133.35L1114.01,2133.35L1236.32,2076.94L1236.32,1959.67L1110.85,2017.36L658.627,2017.36L658.627,2133.35Z" style="fill:none;stroke:black;stroke-width:12.07px;"/>
        </g>
        <g transform="matrix(0.657999,0,0,0.657999,911.93,153.998)">
            <path d="M1112.29,2018.6L1112.29,2132.52" style="fill:none;stroke:black;stroke-width:12.07px;"/>
        </g>
    </g>
    <g transform="matrix(0.786641,0,0,0.786641,-78.9811,-737.535)">
        <g transform="matrix(0.657999,0,0,0.657999,911.93,153.998)">
            <path d="M658.627,2133.35L1114.01,2133.35L1236.32,2076.94L1236.32,1959.67L1110.85,2017.36L658.627,2017.36L658.627,2133.35Z" style="fill:rgb(169,169,169);stroke:black;stroke-width:12.07px;"/>
        </g>
        <g transform="matrix(0.657999,0,0,0.657999,911.93,153.998)">
            <path d="M1112.29,2018.6L1112.29,2132.52" style="fill:none;stroke:black;stroke-width:12.07px;"/>
        </g>
    </g>
    <g transform="matrix(0.786641,0,0,0.786641,-78.9811,-665.419)">
        <g transform="matrix(0.657999,0,0,0.657999,911.93,153.998)">
            <path d="M658.627,2133.35L1114.01,2133.35L1236.32,2076.94L1236.32,1959.67L1110.85,2017.36L658.627,2017.36L658.627,2133.35Z" style="fill:none;stroke:black;stroke-width:12.07px;"/>
        </g>
        <g transform="matrix(0.657999,0,0,0.657999,911.93,153.998)">
            <path d="M1112.29,2018.6L1112.29,2132.52" style="fill:none;stroke:black;stroke-width:12.07px;"/>
        </g>
    </g>
    <g transform="matrix(0.786641,0,0,0.786641,-78.9811,-592.937)">
        <g transform="matrix(0.657999,0,0,0.657999,911.93,153.998)">
            <path d="M658.627,2133.35L1114.01,2133.35L1236.32,2076.94L1236.32,1959.67L1110.85,2017.36L658.627,2017.36L658.627,2133.35Z" style="fill:none;stroke:black;stroke-width:12.07px;"/>
        </g>
        <g transform="matrix(0.657999,0,0,0.657999,911.93,153.998)">
            <path d="M1112.29,2018.6L1112.29,2132.52" style="fill:none;stroke:black;stroke-width:12.07px;"/>
        </g>
    </g>
    <g transform="matrix(0.786641,0,0,0.786641,14.0538,-578.527)">
        <g transform="matrix(47.6711,0,0,47.6711,1182.49,1898.79)">
        </g>
        <text x="467.007px" y="1898.79px" style="font-family:'ArialMT', 'Arial', sans-serif;font-size:47.671px;">Planes in one volume of a column</text>
    </g>
    <g transform="matrix(0.786641,0,0,0.786641,935.649,-1075.17)">
        <text x="467.007px" y="1898.79px" style="font-family:'ArialMT', 'Arial', sans-serif;font-size:47.671px;">V<tspan x="496.173px 522.686px " y="1898.79px 1898.79px ">ol</tspan>umes</text>
        <text x="467.007px" y="1948.02px" style="font-family:'ArialMT', 'Arial', sans-serif;font-size:47.671px;">1-5 in each</text>
        <g transform="matrix(47.6711,0,0,47.6711,620.681,1997.25)">
        </g>
        <text x="467.007px" y="1997.25px" style="font-family:'ArialMT', 'Arial', sans-serif;font-size:47.671px;">column</text>
    </g>
    <g transform="matrix(0.786641,0,0,0.786641,-78.9811,-807.78)">
        <path d="M1679.29,2023.98L1834.55,1949.6" style="fill:none;stroke:black;stroke-width:5.3px;"/>
    </g>
    <g transform="matrix(0.786641,0,0,0.786641,-78.9811,-783.394)">
        <path d="M1679.29,2023.98L1834.55,1949.6" style="fill:none;stroke:black;stroke-width:5.3px;"/>
    </g>
    <g transform="matrix(0.786641,0,0,0.786641,-78.9811,-759.008)">
        <path d="M1679.29,2023.98L1834.55,1949.6" style="fill:none;stroke:black;stroke-width:5.3px;"/>
    </g>
    <g transform="matrix(0.786641,0,0,0.786641,-78.9811,-808.567)">
        <path d="M1486.99,1961.44L1486.99,2121.75" style="fill:none;stroke:black;stroke-width:5.3px;"/>
    </g>
    <g transform="matrix(0.786641,0,0,0.786641,-78.9811,-808.567)">
        <path d="M1766.81,1917.75L1766.81,2082.03" style="fill:none;stroke:black;stroke-width:5.3px;"/>
    </g>
    <g transform="matrix(0.786641,0,0,0.786641,-78.9811,-807.78)">
        <path d="M1404.65,1935.9L1491.88,1892.86L1711.69,1892.86L1627.93,1936.19L1404.65,1935.9Z" style="fill:rgb(169,169,169);stroke:black;stroke-width:7.95px;"/>
    </g>
    <g transform="matrix(0.786641,0,0,0.786641,-78.9811,-808.567)">
        <path d="M1378.08,1914.24L1447.11,1914.24" style="fill:none;stroke:black;stroke-width:5.3px;"/>
    </g>
    <g transform="matrix(1.0697,0,0,0.786641,-237.296,-807.203)">
        <path d="M1378.08,1914.24L1447.11,1914.24" style="fill:none;stroke:black;stroke-width:4.44px;"/>
    </g>
    <g transform="matrix(0.786641,0,0,0.786641,-84.4876,-808.567)">
        <path d="M1595.29,1894.6L1612.62,1882.75" style="fill:none;stroke:black;stroke-width:5.3px;"/>
    </g>
    <g transform="matrix(0.786641,0,0,0.786641,-78.9811,-808.567)">
        <path d="M1487.55,1960.16L1519.9,1937.06" style="fill:none;stroke:black;stroke-width:5.3px;"/>
    </g>
    <g transform="matrix(0.787279,0,0,0.787279,509.12,126.529)">
        <g transform="matrix(37.5,0,0,37.5,871.101,435.873)">
        </g>
        <text x="618.855px" y="435.873px" style="font-family:'ArialMT', 'Arial', sans-serif;font-size:37.5px;">Scan V<tspan x="737.69px 758.546px " y="435.873px 435.873px ">ol</tspan>ume 3</text>
    </g>
    <g id="Calque1">
    </g>
    <g transform="matrix(0.817392,0,0,0.817392,92.7312,-874.452)">
        <rect x="1942.18" y="2790.8" width="128.335" height="14.568" style="stroke:black;stroke-width:10.2px;"/>
    </g>
    <g transform="matrix(0.817392,0,0,0.891752,89.1601,-1084.72)">
        <g transform="matrix(1.2234,-0,-0,1.12139,-109.079,1216.39)">
            <path d="M1744.86,1359.2L1732.36,1384.2L1719.86,1359.2L1744.86,1359.2Z"/>
            <path d="M1732.36,1199.9L1732.36,1364.2" style="fill:none;stroke:black;stroke-width:8.33px;"/>
        </g>
    </g>
    <g transform="matrix(0.817392,0,0,-0.352895,89.1601,1928.85)">
        <g transform="matrix(1.2234,0,0,-2.8337,-109.079,5465.78)">
            <path d="M1719.86,976.819L1732.36,951.819L1744.86,976.819L1719.86,976.819Z"/>
            <path d="M1732.36,1024.75L1732.36,971.819" style="fill:none;stroke:black;stroke-width:8.33px;"/>
        </g>
    </g>
    <g transform="matrix(0.817392,0,0,0.817392,-12.8663,-1019.1)">
        <g transform="matrix(83.3333,0,0,83.3333,1397.96,2492.01)">
        </g>
        <text x="925.504px" y="2492.01px" style="font-family:'ArialMT', 'Arial', sans-serif;font-size:83.333px;">Ca   Imaging</text>
    </g>
    <g transform="matrix(0.817392,0,0,0.817392,-512.726,-369.735)">
        <g transform="matrix(83.3333,0,0,83.3333,1424.16,2492.01)">
        </g>
        <text x="925.504px" y="2492.01px" style="font-family:'ArialMT', 'Arial', sans-serif;font-size:83.333px;">V<tspan x="979.581px 998.095px " y="2492.01px 2492.01px ">is</tspan>ual Stimuli</text>
    </g>
    <g transform="matrix(0.817392,0,0,0.817392,797.249,-943.148)">
        <text x="983.345px" y="2492.01px" style="font-family:'ArialMT', 'Arial', sans-serif;font-size:83.333px;">Electron</text>
        <g transform="matrix(83.3333,0,0,83.3333,1346.89,2578.06)">
        </g>
        <text x="925.504px" y="2578.07px" style="font-family:'ArialMT', 'Arial', sans-serif;font-size:83.333px;">Microscopy</text>
    </g>
    <g transform="matrix(1.01745,0,0,0.817392,-264.437,-1031.71)">
        <g transform="matrix(0.98285,-0,-0,1.2234,259.902,1262.2)">
            <path d="M1631.97,1349.85L1639.7,1380.13L1608.47,1379.07L1631.97,1349.85Z"/>
            <path d="M1024.16,1282.34C1024.16,1282.34 1180.77,1220.37 1339.37,1236.31C1460.46,1248.47 1581.92,1334.86 1624.11,1367.6" style="fill:none;stroke:black;stroke-width:8.33px;stroke-dasharray:16.67,25,0,0,0,0;"/>
        </g>
    </g>
    <g transform="matrix(0.817392,0,0,0.580202,-11.065,-344.546)">
        <ellipse cx="1137.49" cy="2902.71" rx="11.092" ry="8.088" style="stroke:black;stroke-width:11.76px;"/>
    </g>
    <g transform="matrix(0.847871,0,0,0.807661,46.4691,-987.38)">
        <path d="M531.208,2550.38L531.208,3142.73L419.583,3193.34L419.583,2600.98L531.208,2550.38Z" style="fill:rgb(169,169,169);stroke:black;stroke-width:10.06px;"/>
    </g>
    <g transform="matrix(0.817392,0,0,0.817392,-15.0999,-1036.9)">
        <path d="M1132.53,2907.61L585.302,3127.05L585.302,2686.31L1132.53,2907.61Z" style="fill:none;stroke:black;stroke-width:7.65px;stroke-dasharray:15.29,22.94,0,0,0,0;"/>
    </g>
    <g transform="matrix(0.817392,0,0,0.817392,-11.065,-1031.71)">
        <path d="M1474.74,3083.44L1470.35,3091.07L1477.74,3093.61C1477.74,3093.61 1473.35,3097.31 1474.74,3101C1476.12,3104.7 1501.46,3094.07 1510.01,3095.23" style="fill:none;stroke:black;stroke-width:7.65px;"/>
    </g>
    <g transform="matrix(0.817392,0,0,0.817392,-11.065,-1031.71)">
        <path d="M1596.52,3079.05C1596.52,3079.05 1588.66,3091.76 1583.81,3092.91C1578.95,3094.07 1556.08,3092.45 1542.67,3094.07C1529.27,3095.69 1503.85,3094.99 1498.08,3100.54C1492.3,3106.09 1497.15,3109.09 1498.08,3114.17C1499,3119.26 1511.48,3109.09 1518.41,3107.7C1525.34,3106.32 1498.08,3114.17 1498.08,3114.17C1498.08,3114.17 1500.39,3122.72 1508.48,3123.65C1516.56,3124.57 1522.34,3116.25 1530.43,3114.41C1538.52,3112.56 1544.99,3114.64 1544.99,3114.64C1544.99,3114.64 1537.59,3121.57 1538.52,3125.03C1539.44,3128.5 1550.76,3126.42 1553.3,3124.34C1555.85,3122.26 1578.95,3116.95 1585.42,3115.79C1591.89,3114.64 1606.91,3119.26 1612,3114.64C1617.08,3110.01 1630.02,3090.6 1631.18,3087.14C1632.33,3083.67 1627.25,3071.66 1627.25,3071.66" style="fill:none;stroke:black;stroke-width:7.65px;"/>
    </g>
    <g transform="matrix(0.817392,0,0,0.817392,-11.065,-1031.71)">
        <path d="M1258.76,3060.13C1258.76,3060.13 1245.45,3074.18 1241.2,3077.32C1236.95,3080.47 1226.97,3081.58 1224.75,3088.78C1222.53,3095.99 1225.49,3107.09 1229.74,3109.3C1233.99,3111.52 1239.72,3112.08 1241.02,3110.41C1242.31,3108.75 1241.25,3094.03 1244.16,3093.78C1248.41,3093.41 1248.78,3103.02 1248.78,3103.02C1248.78,3103.02 1263.38,3095.81 1266.71,3086.01C1270.04,3076.21 1271.89,3069.93 1271.89,3069.93" style="fill:none;stroke:black;stroke-width:7.65px;"/>
    </g>
    <g transform="matrix(0.817392,0,0,0.817392,-11.065,-1031.71)">
        <path d="M1138.6,3095.67C1138.6,3095.67 1136.01,3096.78 1136.38,3100.11C1136.75,3103.44 1143.41,3107.87 1147.48,3107.5C1151.54,3107.13 1163.74,3104.18 1165.41,3103.81C1167.07,3103.44 1156.28,3105.89 1156.28,3105.89C1156.28,3105.89 1156.16,3115.64 1162.08,3115.64C1168,3115.64 1176.87,3110.46 1180.01,3108.98C1183.15,3107.5 1172.44,3112.7 1172.44,3112.7C1172.44,3112.7 1174.1,3122.71 1182.41,3119.7C1190.73,3116.7 1196.09,3111.34 1199.42,3111.15C1202.75,3110.97 1217.17,3114.11 1219.94,3111.89C1222.71,3109.67 1224.38,3103.39 1224.38,3103.39" style="fill:none;stroke:black;stroke-width:7.65px;"/>
    </g>
    <g transform="matrix(0.817392,0,0,0.817392,-11.065,-1031.71)">
        <path d="M1138.05,3095.86C1138.05,3095.86 1149.51,3095.12 1155.06,3093.27C1160.6,3091.42 1164.48,3090.87 1168.92,3091.24C1173.36,3091.61 1182.05,3095.86 1186.67,3094.93C1191.29,3094.01 1203.86,3091.05 1208.66,3083.47C1213.47,3075.89 1228.44,3055 1228.44,3055" style="fill:none;stroke:black;stroke-width:7.65px;"/>
    </g>
    <g transform="matrix(0.817392,0,0,0.817392,-11.065,-1031.71)">
        <path d="M1232.66,3041.71C1232.66,3041.71 1227.25,3049.84 1228.15,3052.55C1229.05,3055.25 1245.82,3064.99 1248.96,3064.99C1252.11,3064.99 1256.73,3055.93 1256.73,3055.93" style="fill:none;stroke:black;stroke-width:7.65px;"/>
    </g>
    <g transform="matrix(0.817392,0,0,0.817392,-11.065,-1031.71)">
        <path d="M1684.79,3024.73C1700.89,3030.92 1733.08,3043.32 1752.67,3056.86C1771.82,3070.11 1795.25,3086.46 1802.3,3106.01C1814.56,3140.04 1800.3,3161.76 1783,3177.82C1765.7,3193.88 1727.83,3201.99 1698.51,3202.37C1667.27,3202.78 1626.26,3190.38 1595.54,3180.27C1566.2,3170.62 1536.02,3161.26 1510.04,3156.15C1486.91,3151.61 1460.99,3149.17 1439.63,3149.65C1420.13,3150.09 1392.63,3157.96 1381.86,3159.04C1379.39,3159.29 1373,3157.61 1375,3156.15C1380.3,3152.3 1399.33,3138.47 1413.64,3135.93C1433.98,3132.32 1469.45,3131.05 1497.04,3134.49C1527.43,3138.28 1564.38,3148.59 1595.97,3158.68C1627.62,3168.8 1665.86,3176.19 1691.43,3177.1C1711.23,3177.79 1735.32,3171.25 1749.42,3164.1C1761.31,3158.06 1773.43,3149.3 1775.99,3134.17C1778.38,3120.11 1765.21,3102.48 1756.28,3094.41C1739.12,3078.9 1693.91,3058.54 1664.93,3048.92" style="fill:none;stroke:black;stroke-width:7.65px;"/>
    </g>
    <g transform="matrix(0.817392,0,0,0.817392,-11.065,-1031.71)">
        <path d="M1188.66,2836.84C1188.66,2836.84 1191.26,2824.02 1208.47,2817.17C1220.75,2812.29 1231.5,2812.34 1238.64,2814.22C1247.67,2816.59 1243.38,2827.08 1240.57,2829.45C1236.62,2832.77 1229.77,2838.03 1229.77,2838.03" style="fill:none;stroke:black;stroke-width:7.65px;"/>
    </g>
    <g transform="matrix(0.817392,0,0,0.817392,-11.065,-1031.71)">
        <path d="M1218.67,2856.89C1232.6,2852.89 1240.67,2840.62 1260.45,2844.88C1280.23,2849.13 1282.64,2865.57 1282.45,2873.35C1282.26,2880.93 1276.68,2900.88 1271.54,2909.21C1267.82,2915.23 1262.01,2921.23 1254.72,2921.78C1247.32,2922.33 1236.49,2920.02 1230.13,2917.9C1225.14,2916.23 1219.04,2913.28 1217.19,2910.5C1215.34,2907.73 1223.11,2904.59 1225.14,2898.86C1227.17,2893.12 1228.47,2882.22 1228.84,2877.6C1229.21,2872.98 1231.24,2862.07 1236.05,2858.93C1240.85,2855.78 1253.24,2851.72 1257.86,2851.53C1262.48,2851.35 1274.43,2853.24 1278.16,2855.53" style="fill:none;stroke:black;stroke-width:7.65px;"/>
    </g>
    <g transform="matrix(0.817392,0,0,0.817392,-11.065,-1031.71)">
        <path d="M1206.65,2853.93C1206.65,2853.93 1217.56,2858.56 1219.59,2863.55C1221.63,2868.54 1224.95,2871.87 1216.64,2900.7" style="fill:none;stroke:black;stroke-width:7.65px;"/>
    </g>
    <g transform="matrix(0.817392,0,0,0.817392,-11.065,-1031.71)">
        <path d="M1282.95,3060.87C1285.67,3062.98 1291.11,3067.19 1297.31,3071.03C1303.93,3075.13 1314.97,3077.33 1324.17,3077.35C1333.9,3077.36 1343.85,3073.35 1355.71,3071.11C1366.99,3068.97 1380.44,3065.85 1389.6,3064.98C1396.6,3064.32 1403.78,3064.52 1410.67,3065.89C1419.91,3067.73 1433.42,3073.29 1445.05,3076.01C1457.85,3078.99 1473.35,3082.26 1487.51,3083.8C1501.59,3085.34 1517.4,3085.39 1529.97,3085.25C1540.97,3085.12 1553.36,3083.42 1562.9,3082.94C1570.98,3082.53 1580.56,3084.33 1587.16,3082.36C1593.23,3080.54 1597.65,3073.74 1602.47,3071.09C1606.66,3068.79 1611.66,3066.33 1616.04,3066.47C1620.42,3066.62 1624.17,3072.53 1628.75,3071.96C1634.14,3071.29 1644.16,3065.85 1648.39,3062.43C1651.61,3059.83 1651.03,3054.14 1654.17,3051.45C1657.88,3048.28 1666.29,3047.67 1670.63,3043.37C1675.3,3038.74 1681.55,3031.29 1682.19,3023.72C1683.01,3014.1 1681.92,2996.81 1675.55,2985.6C1667.6,2971.64 1649.31,2954.09 1634.53,2939.96C1619.22,2925.32 1601.76,2910.37 1583.69,2897.79C1565.16,2884.89 1542.58,2870.59 1523.32,2862.55C1505.89,2855.27 1487,2850.96 1468.15,2849.55C1446.3,2847.91 1413.13,2851.43 1392.19,2852.73C1375.59,2853.76 1353.43,2855.57 1342.51,2857.35C1336.91,2858.26 1331.72,2863.85 1326.62,2863.41C1321.52,2862.98 1317.59,2854.75 1311.89,2854.75C1304.48,2854.75 1289.58,2860.53 1282.14,2863.41" style="fill:none;stroke:black;stroke-width:7.65px;"/>
    </g>
    <g transform="matrix(0.817392,0,0,0.817392,-11.065,-1031.71)">
        <path d="M1178.55,2842.26C1182.61,2840 1205.18,2836.39 1214.66,2838.2C1224.13,2840 1243.54,2839.1 1248.96,2843.61" style="fill:none;stroke:black;stroke-width:7.65px;"/>
    </g>
    <g transform="matrix(0.817392,0,0,0.817392,-11.065,-1031.71)">
        <path d="M1111,2869.37C1111,2869.37 1100.61,2870.82 1082.41,2882.95C1064.21,2895.08 1051.21,2908.37 1051.21,2908.37C1051.21,2908.37 1052.08,2912.12 1051.79,2917.9C1051.5,2923.68 1042.84,2931.18 1042.84,2931.18C1042.84,2931.18 1045.15,2946.49 1052.08,2951.12C1059.01,2955.74 1097.72,2970.18 1104.65,2972.2C1111.58,2974.22 1157.8,2987.22 1164.44,2988.66C1171.08,2990.11 1196.5,2997.04 1201.99,3000.22C1207.48,3003.4 1210.37,3017.55 1214.7,3024.19C1219.03,3030.84 1226.83,3036.04 1237.23,3041.81C1247.63,3047.59 1257.16,3051.35 1260.05,3055.97C1262.94,3060.59 1266.69,3061.74 1269.87,3065.79C1273.05,3069.83 1275.07,3074.74 1275.07,3074.74C1275.07,3074.74 1282.58,3061.17 1287.2,3053.66C1291.82,3046.15 1296.73,3024.77 1297.31,3015.53" style="fill:none;stroke:black;stroke-width:7.65px;"/>
    </g>
    <g transform="matrix(0.817392,0,0,0.817392,-11.065,-1031.71)">
        <path d="M1104.03,2843.12L1119.54,2882.61L1180.89,2861.45L1167.49,2821.96L1104.03,2843.12Z" style="fill:rgb(169,169,169);stroke:black;stroke-width:5.1px;"/>
    </g>
    <g transform="matrix(0.717999,-0.246691,0.249125,0.725083,-591.713,-506.075)">
        <path d="M1176.66,2767.38L1176.66,2821.26C1176.66,2836.12 1164.47,2848.2 1149.46,2848.2L1076.93,2848.2C1061.91,2848.2 1049.73,2836.12 1049.73,2821.26L1049.73,2767.38C1049.73,2752.51 1061.91,2740.44 1076.93,2740.44L1149.46,2740.44C1164.47,2740.44 1176.66,2752.51 1176.66,2767.38Z" style="fill:rgb(169,169,169);stroke:black;stroke-width:5.46px;"/>
    </g>
    <g transform="matrix(0.788072,0.00483228,0.0144968,0.81419,-19.9834,-1025.49)">
        <path d="M1058.53,2775.34L1167.75,2739.69" style="fill:none;stroke:black;stroke-width:10.28px;"/>
    </g>
    <g transform="matrix(0.817392,0,0,0.817392,-11.065,-1031.71)">
        <path d="M1107.83,2537.35C1121.94,2551.71 1135.84,2568.67 1134.35,2584.43C1132.06,2608.61 1119.12,2617.15 1100.5,2647.62C1081.88,2678.08 1071.16,2688.24 1075.68,2705.72C1080.19,2723.21 1101.06,2737.88 1101.06,2737.88" style="fill:none;stroke:black;stroke-width:5.1px;"/>
    </g>
    <g transform="matrix(0.817392,0,0,0.817392,-11.065,-1030.89)">
        <path d="M1048.42,2907.43C1048.42,2907.43 1041.62,2909.06 1039.4,2914.82C1037.18,2920.59 1041.17,2929.17 1041.17,2929.17" style="fill:none;stroke:black;stroke-width:7.65px;"/>
    </g>
    <g transform="matrix(1,0,0,1,287.348,15.807)">
        <g transform="matrix(41.6667,0,0,41.6667,591.009,979.075)">
        </g>
        <text x="543.503px" y="979.075px" style="font-family:'ArialMT', 'Arial', sans-serif;font-size:41.667px;">2+</text>
    </g>
    <g transform="matrix(1,0,0,1,-1.14211,-41.1691)">
        <text x="1645.68px" y="791.407px" style="font-family:'ArialMT', 'Arial', sans-serif;font-size:29.167px;">Post-synaptic</text>
        <g transform="matrix(29.1667,0,0,29.1667,1830.43,821.528)">
        </g>
        <text x="1645.68px" y="821.528px" style="font-family:'ArialMT', 'Arial', sans-serif;font-size:29.167px;">Density (PSD)</text>
    </g>
    <g transform="matrix(0.794423,0,0,1,394.255,0)">
        <rect x="1447.69" y="677.309" width="466.622" height="239.044" style="fill:none;stroke:black;stroke-width:9.23px;"/>
    </g>
    <g transform="matrix(1.5453,0.0349519,-0.672512,1.05523,-385.864,-94.481)">
        <g transform="matrix(0.637928,-0.0211298,0.406559,0.934193,284.566,80.1103)">
            <path d="M1734.53,817.57L1722.47,824.627L1724.06,810.743L1734.53,817.57Z"/>
            <path d="M1743.86,791.826C1743.86,791.826 1734.27,806.532 1727.93,816.251" style="fill:none;stroke:black;stroke-width:4.17px;"/>
        </g>
    </g>
</svg>
